<svg width="240" height="240" viewBox="0 0 240 240" fill="none" xmlns="http://www.w3.org/2000/svg">
<circle cx="120" cy="120" r="120" fill="#007AFF"/>
<path fill-rule="evenodd" clip-rule="evenodd" d="M75.5484 112.036H64.6008C64.6008 110.227 64.3895 109.015 63.9704 108.397C63.3181 107.483 61.5199 107.026 58.577 107.026C55.7183 107.026 53.8249 107.289 52.9001 107.815C51.9753 108.344 51.5124 109.493 51.5124 111.262C51.5124 112.865 51.9228 113.919 52.7436 114.424C53.3313 114.783 54.1095 114.995 55.0781 115.058L57.2856 115.214C62.0168 115.53 64.9729 115.754 66.1516 115.879C69.8935 116.259 72.6066 117.26 74.2887 118.884C75.6141 120.149 76.4032 121.803 76.656 123.848C76.8027 125.07 76.876 126.453 76.876 127.99C76.876 131.532 76.54 134.126 75.868 135.77C74.6488 138.786 71.9105 140.692 67.6499 141.492C65.8649 141.83 63.1342 142 59.4613 142C53.3303 142 49.0576 141.632 46.6454 140.894C43.685 139.99 41.7325 138.157 40.788 135.4C40.2616 133.863 40 131.306 40 127.727H50.9477C50.9477 128.125 50.9499 128.43 50.9499 128.642C50.9499 130.551 51.4949 131.781 52.5838 132.327C53.339 132.705 54.2507 132.903 55.321 132.926H59.3464C61.3995 132.926 62.7107 132.82 63.2765 132.608C64.2823 132.21 64.9433 131.569 65.2585 130.681C65.426 130.135 65.5092 129.429 65.5092 128.564C65.5092 126.626 64.8065 125.448 63.4035 125.025C62.8792 124.859 60.4386 124.625 56.0806 124.33C52.5817 124.08 50.1509 123.838 48.7905 123.603C45.2062 122.929 42.8182 121.54 41.6252 119.434C40.5779 117.645 40.0536 114.937 40.0536 111.314C40.0536 108.555 40.3371 106.344 40.9029 104.68C41.4698 103.016 42.3826 101.752 43.6423 100.888C45.4875 99.5617 47.8493 98.7819 50.7233 98.5496C53.1157 98.3392 55.7687 98.2324 58.6875 98.2324C63.282 98.2324 66.5565 98.4989 68.509 99.0253C73.2731 100.314 75.6546 103.922 75.6546 109.851C75.6546 110.337 75.6196 111.064 75.5484 112.036Z" fill="white"/>
<path fill-rule="evenodd" clip-rule="evenodd" d="M135.457 120.433H142.794C145.12 120.349 146.534 120.168 147.044 119.886C147.739 119.502 148.206 118.732 148.438 117.576C148.587 116.807 148.661 115.663 148.661 114.145C148.661 112.283 148.513 110.903 148.217 110.004C147.793 108.74 146.78 107.972 145.174 107.693C144.857 107.651 144.096 107.628 142.892 107.628H135.457V120.433ZM123.689 142V98H145.614C148.621 98 150.916 98.2478 152.492 98.7401C156.098 99.8778 158.518 102.206 159.757 105.724C160.397 107.571 160.716 110.351 160.716 114.063C160.716 118.526 160.362 121.733 159.659 123.686C158.253 127.548 155.358 129.772 150.988 130.348C150.474 130.435 148.287 130.512 144.427 130.574L142.473 130.64H135.457V142H123.689Z" fill="white"/>
<path fill-rule="evenodd" clip-rule="evenodd" d="M183.497 125.823L177.984 106.751L172.634 125.823H183.497ZM185.835 134.395H170.101L167.987 142H155.812L168.949 98H186.701L199.999 142H188.08L185.835 134.395Z" fill="white"/>
<path fill-rule="evenodd" clip-rule="evenodd" d="M107.45 104.191C112.304 104.191 116.636 106.441 119.483 109.964L122.019 104.491C118.052 100.718 112.653 98.3921 106.697 98.3921C97.4253 98.3921 89.4939 104.028 86.2379 112.005H81.2921L78.3711 118.306H84.7342C84.6871 118.89 84.6565 119.475 84.6565 120.071C84.6565 120.794 84.6926 121.507 84.7637 122.213H81.5658L78.6458 128.515H86.39C89.7379 136.291 97.5708 141.749 106.697 141.749C111.297 141.749 115.566 140.362 119.1 137.993V130.268C116.253 133.53 112.091 135.59 107.45 135.59C102.026 135.59 97.2545 132.775 94.4757 128.515H110.692L113.613 122.213H92.0899C91.9793 121.454 91.9202 120.679 91.9202 119.889C91.9202 119.355 91.9476 118.828 91.9979 118.306H115.422L118.342 112.005H94.0237C96.7139 107.334 101.719 104.191 107.45 104.191Z" fill="white"/>
</svg>
