<svg width="24" height="24" viewBox="0 0 24 24" fill="none" xmlns="http://www.w3.org/2000/svg">
<g clip-path="url(#clip0)">
<path d="M21.41 11.58L12.41 2.58C12.05 2.22 11.55 2 11 2H4C2.9 2 2 2.9 2 4V11C2 11.55 2.22 12.05 2.59 12.42L11.59 21.42C11.95 21.78 12.45 22 13 22C13.55 22 14.05 21.78 14.41 21.41L21.41 14.41C21.78 14.05 22 13.55 22 13C22 12.45 21.77 11.94 21.41 11.58ZM8.76263 10.2494C7.93263 10.2494 7.26263 9.57943 7.26263 8.74943C7.26263 7.91943 7.93263 7.24943 8.76263 7.24943C9.59263 7.24943 10.2626 7.91943 10.2626 8.74943C10.2626 9.57943 9.59263 10.2494 8.76263 10.2494Z" fill="#F15B5D"/>
</g>
<defs>
<clipPath id="clip0">
<rect width="24" height="24" fill="white"/>
</clipPath>
</defs>
</svg>
