<?xml version="1.0" encoding="UTF-8"?>
<svg xmlns="http://www.w3.org/2000/svg" width="64pt" height="64pt" viewBox="0 0 64 64" version="1.1">
<g id="surface1">
<path style="fill:none;stroke-width:1;stroke-linecap:round;stroke-linejoin:round;stroke:rgb(50.980392%,50.980392%,50.980392%);stroke-opacity:1;stroke-miterlimit:4;" d="M 2.510078 5.999844 C 2.510078 5.171563 3.178047 4.500625 4.000391 4.500625 L 20.000469 4.500625 C 20.824297 4.500625 21.499688 5.174531 21.499688 5.999844 L 21.499688 17.999531 C 21.499688 18.824844 20.824297 19.500234 20.000469 19.500234 L 4.000391 19.500234 C 3.175078 19.500234 2.499688 18.824844 2.499688 17.999531 Z M 2.510078 5.999844 " transform="matrix(2.631579,0,0,2.631579,0,0)"/>
<path style="fill-rule:nonzero;fill:rgb(94.509804%,35.686275%,36.470588%);fill-opacity:1;stroke-width:1;stroke-linecap:round;stroke-linejoin:round;stroke:rgb(94.509804%,35.686275%,36.470588%);stroke-opacity:1;stroke-miterlimit:4;" d="M 2.510078 5.999844 C 2.510078 5.171563 3.178047 4.500625 4.000391 4.500625 L 20.000469 4.500625 C 20.824297 4.500625 21.499688 5.174531 21.499688 5.999844 L 21.499688 17.999531 C 21.499688 18.824844 20.824297 19.500234 20.000469 19.500234 L 4.000391 19.500234 C 3.175078 19.500234 2.499688 18.824844 2.499688 17.999531 Z M 2.510078 5.999844 " transform="matrix(2.631579,0,0,2.631579,0,0)"/>
<path style=" stroke:none;fill-rule:nonzero;fill:rgb(100%,100%,100%);fill-opacity:1;" d="M 26.25 39.71875 C 24.820312 39.71875 23.660156 40.855469 23.660156 42.230469 C 23.660156 43.609375 24.820312 44.738281 26.25 44.738281 C 27.6875 44.738281 28.863281 43.609375 28.863281 42.230469 C 28.863281 40.855469 27.6875 39.71875 26.25 39.71875 Z M 39.308594 39.71875 C 37.871094 39.71875 36.710938 40.855469 36.710938 42.230469 C 36.710938 43.609375 37.871094 44.738281 39.308594 44.738281 C 40.738281 44.738281 41.917969 43.609375 41.917969 42.230469 C 41.917969 40.855469 40.738281 39.71875 39.308594 39.71875 Z M 27.6875 33.460938 L 37.417969 33.460938 C 38.394531 33.460938 39.25 32.945312 39.695312 32.171875 L 44.738281 23.378906 L 42.46875 22.179688 L 37.417969 30.953125 L 28.25 30.953125 L 22.6875 19.671875 L 18.421875 19.671875 L 18.421875 22.179688 L 21.027344 22.179688 L 25.730469 31.695312 L 23.972656 34.753906 C 23.019531 36.429688 24.269531 38.46875 26.25 38.46875 L 41.917969 38.46875 L 41.917969 35.960938 L 26.25 35.960938 Z M 27.6875 33.460938 "/>
</g>
</svg>
