<?xml version="1.0" encoding="UTF-8"?>
<svg xmlns="http://www.w3.org/2000/svg" width="30pt" height="30pt" viewBox="0 0 30 30" version="1.1">
<g id="surface1">
<path style="fill:none;stroke-width:1;stroke-linecap:round;stroke-linejoin:round;stroke:rgb(50.980392%,50.980392%,50.980392%);stroke-opacity:1;stroke-miterlimit:4;" d="M 2.509375 6 C 2.509375 5.171875 3.178125 4.5 4 4.5 L 20 4.5 C 20.825 4.5 21.5 5.175 21.5 6 L 21.5 18 C 21.5 18.825 20.825 19.5 20 19.5 L 4 19.5 C 3.175 19.5 2.5 18.825 2.5 18 Z M 2.509375 6 " transform="matrix(1.25,0,0,1.25,0,0)"/>
<path style="fill-rule:nonzero;fill:rgb(94.509804%,35.686275%,36.470588%);fill-opacity:1;stroke-width:1;stroke-linecap:round;stroke-linejoin:round;stroke:rgb(94.509804%,35.686275%,36.470588%);stroke-opacity:1;stroke-miterlimit:4;" d="M 2.509375 6 C 2.509375 5.171875 3.178125 4.5 4 4.5 L 20 4.5 C 20.825 4.5 21.5 5.175 21.5 6 L 21.5 18 C 21.5 18.825 20.825 19.5 20 19.5 L 4 19.5 C 3.175 19.5 2.5 18.825 2.5 18 Z M 2.509375 6 " transform="matrix(1.25,0,0,1.25,0,0)"/>
<path style=" stroke:none;fill-rule:nonzero;fill:rgb(100%,100%,100%);fill-opacity:1;" d="M 12.46875 18.867188 C 11.789062 18.867188 11.238281 19.40625 11.238281 20.058594 C 11.238281 20.714844 11.789062 21.25 12.46875 21.25 C 13.152344 21.25 13.710938 20.714844 13.710938 20.058594 C 13.710938 19.40625 13.152344 18.867188 12.46875 18.867188 Z M 18.671875 18.867188 C 17.988281 18.867188 17.4375 19.40625 17.4375 20.058594 C 17.4375 20.714844 17.988281 21.25 18.671875 21.25 C 19.351562 21.25 19.910156 20.714844 19.910156 20.058594 C 19.910156 19.40625 19.351562 18.867188 18.671875 18.867188 Z M 13.152344 15.894531 L 17.773438 15.894531 C 18.238281 15.894531 18.644531 15.648438 18.855469 15.28125 L 21.25 11.105469 L 20.171875 10.535156 L 17.773438 14.703125 L 13.417969 14.703125 L 10.777344 9.34375 L 8.75 9.34375 L 8.75 10.535156 L 9.988281 10.535156 L 12.222656 15.054688 L 11.386719 16.507812 C 10.933594 17.304688 11.527344 18.273438 12.46875 18.273438 L 19.910156 18.273438 L 19.910156 17.082031 L 12.46875 17.082031 Z M 13.152344 15.894531 "/>
</g>
</svg>
