<svg width="21" height="20" viewBox="0 0 21 20" fill="none" xmlns="http://www.w3.org/2000/svg">
<path d="M10 7.61684H12V4.83523H15V2.98083H12V0.199219H10V2.98083H7V4.83523H10V7.61684ZM6 15.9617C4.9 15.9617 4.01 16.7962 4.01 17.8161C4.01 18.836 4.9 19.6705 6 19.6705C7.1 19.6705 8 18.836 8 17.8161C8 16.7962 7.1 15.9617 6 15.9617ZM16 15.9617C14.9 15.9617 14.01 16.7962 14.01 17.8161C14.01 18.836 14.9 19.6705 16 19.6705C17.1 19.6705 18 18.836 18 17.8161C18 16.7962 17.1 15.9617 16 15.9617ZM7.1 11.3257H14.55C15.3 11.3257 15.96 10.9455 16.3 10.3706L20.16 3.87094L18.42 2.98083L14.55 9.47125H7.53L3.27 1.12642H0V2.98083H2L5.6 10.0183L4.25 12.2807C3.52 13.5231 4.48 15.0345 6 15.0345H18V13.1801H6L7.1 11.3257Z" fill="#828282"/>
</svg>
