<svg width="24" height="24" viewBox="0 0 24 24" fill="none" xmlns="http://www.w3.org/2000/svg">
<path d="M7.22061 7.73604C7.21593 7.8157 7.20656 7.89067 7.20656 7.97032C7.20656 10.6599 7.20656 13.3448 7.20656 16.0344C7.20656 16.114 7.21593 16.189 7.22061 16.2686C7.21593 16.3764 7.21124 16.4889 7.21124 16.5966C7.21124 18.6255 7.21124 20.6544 7.21124 22.6833C7.21124 22.7864 7.20187 22.8848 7.19719 22.9879C7.14096 22.9692 7.08004 22.9504 7.02382 22.9223C2.90043 20.8887 0.566964 17.5994 0.0468543 13.0308C0.0468543 12.984 0.0468543 12.9371 0.0468543 12.8903C0.0468543 12.8294 0.0515399 12.7684 0.0515399 12.7028C0.0515399 12.6232 0.0890253 12.5342 0.0093689 12.4639C0.0093689 12.2155 0.0093689 11.9625 0.0093689 11.7142C0.0937109 11.5783 0.0468543 11.433 0.0515399 11.2878C0.0515399 11.2269 0.0515399 11.1659 0.0468543 11.1003C0.0468543 11.0535 0.0468543 11.0066 0.0468543 10.9598C0.206167 9.1886 0.716905 7.52518 1.61655 5.98828C2.9426 3.72979 4.79812 2.05701 7.20187 0.998047C7.20656 1.09176 7.21124 1.18547 7.21124 1.27919C7.21124 3.3362 7.21124 5.38852 7.21124 7.44553C7.21124 7.54861 7.21593 7.64233 7.22061 7.73604Z" fill="#CD1227"/>
<path d="M7.1972 22.9832C7.20189 22.8801 7.21126 22.7817 7.21126 22.6786C7.21126 20.6497 7.21126 18.6208 7.21126 16.5919C7.21126 16.4841 7.21595 16.3717 7.22063 16.2639C12.5389 16.2639 17.8618 16.2639 23.1894 16.2639C21.9899 19.6985 18.396 23.4799 13.0309 23.9531C12.984 23.9531 12.9372 23.9531 12.895 23.9531C12.8294 23.9531 12.7685 23.9531 12.7029 23.9531C12.6232 23.9578 12.5342 23.9203 12.4686 23.9953C12.2202 23.9953 11.9672 23.9953 11.7189 23.9953C11.6158 23.911 11.4986 23.9578 11.3862 23.9531C11.3253 23.9531 11.2597 23.9531 11.1988 23.9578C11.1238 23.9578 11.0441 23.9578 10.9692 23.9531C10.599 23.9016 10.2288 23.8688 9.85866 23.8032C8.94027 23.6345 8.04531 23.3862 7.1972 22.9832Z" fill="#020202"/>
<path d="M7.22063 7.73604C7.21595 7.64233 7.20658 7.54861 7.20658 7.4549C7.20658 5.39789 7.20658 3.34557 7.20658 1.28856C7.20658 1.19485 7.20189 1.10113 7.1972 1.00742C8.40142 0.468567 9.66187 0.168684 10.9692 0.0468567C11.0441 0.0468567 11.1238 0.0468567 11.1988 0.042171C11.2784 0.042171 11.3534 0.042171 11.433 0.042171C11.5314 0.0374854 11.6345 0.0796564 11.7189 0C11.9063 0 12.0937 0 12.2812 0C12.3842 0.084342 12.5014 0.0327997 12.6138 0.042171C12.6748 0.042171 12.7404 0.0374854 12.8013 0.0374854C12.8762 0.0374854 12.9559 0.0374854 13.0309 0.042171C17.8149 0.613823 21.1792 3.10191 23.1238 7.51113C23.18 7.64233 23.2503 7.74541 23.0067 7.74541C17.7681 7.74073 12.5295 7.74073 7.29092 7.74073C7.26749 7.73604 7.24406 7.73604 7.22063 7.73604Z" fill="#019D49"/>
<path d="M0.0468707 11.2925C0.0421851 11.4331 0.0890418 11.583 0.00469971 11.7189C0.00469971 11.5783 0.00469971 11.4377 0.00469971 11.2972C0.0187567 11.2972 0.0328137 11.2972 0.0468707 11.2925Z" fill="#D94758"/>
<path d="M12.6138 0.0468097C12.5014 0.0374384 12.3842 0.0889807 12.2811 0.00463867C12.3889 0.00463867 12.5014 0.00463867 12.6091 0.00463867C12.6091 0.0186957 12.6091 0.0327527 12.6138 0.0468097Z" fill="#30AF6B"/>
<path d="M11.3862 23.9532C11.4986 23.9532 11.6158 23.911 11.7189 23.9953C11.6111 23.9953 11.4986 23.9953 11.3909 23.9953C11.3909 23.9813 11.3909 23.9672 11.3862 23.9532Z" fill="#303030"/>
<path d="M11.7189 0.00463867C11.6345 0.0842951 11.5314 0.042124 11.433 0.0468097C11.4377 0.0327527 11.4377 0.0186957 11.4377 0.00463867C11.5314 0.00463867 11.6252 0.00463867 11.7189 0.00463867Z" fill="#30AF6B"/>
<path d="M10.9691 0.0468097C10.9738 0.0327527 10.9738 0.0186957 10.9691 0.00463867C11.0488 0.00463867 11.1238 0.00463867 11.2034 0.00463867C11.2034 0.0186957 11.1987 0.0327527 11.1987 0.042124C11.1191 0.042124 11.0441 0.0468097 10.9691 0.0468097Z" fill="#BEE5D0"/>
<path d="M11.1988 0.042124C11.1988 0.028067 11.2034 0.0186957 11.2034 0.00463867C11.2831 0.00463867 11.3581 0.00463867 11.4377 0.00463867C11.4377 0.0186957 11.433 0.0327527 11.433 0.0468097C11.3534 0.0468097 11.2784 0.042124 11.1988 0.042124Z" fill="#69C593"/>
<path d="M13.0309 0.0468097C12.9559 0.0468097 12.8762 0.0468097 12.8013 0.042124C12.7966 0.028067 12.7966 0.01401 12.7966 0.00463867C12.8762 0.00463867 12.9512 0.00463867 13.0309 0.00463867C13.0309 0.0186957 13.0309 0.0327527 13.0309 0.0468097Z" fill="#BEE5D0"/>
<path d="M0.00469971 12.4685C0.0843561 12.5341 0.0468707 12.6231 0.0468707 12.7075C0.0328137 12.7028 0.0187567 12.7028 0.00469971 12.7028C0.00469971 12.6231 0.00469971 12.5482 0.00469971 12.4685Z" fill="#D94758"/>
<path d="M10.9691 23.9951C10.9738 23.981 10.9738 23.9669 10.9691 23.9529C11.0441 23.9529 11.1238 23.9529 11.1987 23.9576C11.1987 23.9716 11.2034 23.9857 11.2034 23.9951C11.1238 23.9951 11.0488 23.9951 10.9691 23.9951Z" fill="#B6B6B6"/>
<path d="M12.4686 23.9956C12.5342 23.9206 12.6232 23.9534 12.7029 23.9534C12.6982 23.9675 12.6982 23.9815 12.7029 23.9956C12.6232 23.9956 12.5482 23.9956 12.4686 23.9956Z" fill="#505050"/>
<path d="M12.7966 0.00463867C12.7966 0.0186957 12.8012 0.0327527 12.8012 0.042124C12.7403 0.042124 12.6747 0.0468097 12.6138 0.0468097C12.6091 0.0327527 12.6091 0.0186957 12.6091 0.00463867C12.67 0.00463867 12.7356 0.00463867 12.7966 0.00463867Z" fill="#69C593"/>
<path d="M0.0468707 11.2924C0.0328137 11.2971 0.0187567 11.2971 0.00469971 11.2971C0.00469971 11.2362 0.00469971 11.1706 0.00469971 11.1097C0.0187567 11.1097 0.0328137 11.1097 0.0468707 11.105C0.0468707 11.1706 0.0468707 11.2315 0.0468707 11.2924Z" fill="#E999A3"/>
<path d="M0.00469971 12.7029C0.0187567 12.7029 0.0328137 12.7029 0.0468707 12.7076C0.0468707 12.7685 0.0421851 12.8294 0.0421851 12.895C0.0281281 12.895 0.014071 12.895 0.00469971 12.8903C0.00469971 12.8294 0.00469971 12.7638 0.00469971 12.7029Z" fill="#E999A3"/>
<path d="M11.2034 23.9951C11.2034 23.981 11.1988 23.9669 11.1988 23.9576C11.2597 23.9576 11.3253 23.9576 11.3862 23.9529C11.3909 23.9669 11.3909 23.981 11.3909 23.9951C11.33 23.9951 11.2644 23.9951 11.2034 23.9951Z" fill="#6F6F6F"/>
<path d="M12.7029 23.9951C12.7029 23.981 12.7029 23.9669 12.7029 23.9529C12.7685 23.9529 12.8294 23.9529 12.895 23.9529C12.8903 23.9669 12.8856 23.981 12.8903 23.9951C12.8294 23.9951 12.7638 23.9951 12.7029 23.9951Z" fill="#6F6F6F"/>
<path d="M0.0468707 11.1049C0.0328137 11.1049 0.0187567 11.1049 0.00469971 11.1096C0.00469971 11.0627 0.00469971 11.0159 0.00469971 10.969C0.0187567 10.969 0.0328137 10.969 0.0468707 10.969C0.0468707 11.0159 0.0468707 11.0627 0.0468707 11.1049Z" fill="#F4D1D5"/>
<path d="M0.00468567 12.8901C0.0187427 12.8901 0.0327997 12.8901 0.042171 12.8948C0.042171 12.9417 0.042171 12.9885 0.042171 13.0354C0.028114 13.0354 0.014057 13.0354 0 13.0354C0.00468567 12.9839 0.00468567 12.937 0.00468567 12.8901Z" fill="#F4D1D5"/>
<path d="M12.8903 23.9951C12.8856 23.981 12.8903 23.9669 12.895 23.9529C12.9418 23.9529 12.9887 23.9529 13.0308 23.9529C13.0308 23.9669 13.0308 23.981 13.0308 23.9951C12.984 23.9951 12.9371 23.9951 12.8903 23.9951Z" fill="#BEE5D0"/>
</svg>
