<svg width="24" height="24" viewBox="0 0 24 24" fill="none" xmlns="http://www.w3.org/2000/svg">
<path d="M7.21875 7.73442C7.21406 7.81411 7.20938 7.88911 7.20938 7.9688C7.20938 10.6501 7.20938 13.3313 7.20938 16.0126C7.20938 16.0969 7.21875 16.1813 7.21875 16.2704C7.21875 18.4032 7.21406 20.536 7.21406 22.6688C7.21406 22.7766 7.20469 22.8844 7.2 22.9969C7.07344 22.9407 6.9375 22.8938 6.81562 22.8282C3.08437 20.9251 0.848437 17.9251 0.13125 13.7954C0.0890625 13.5422 0.117188 13.2751 0 13.0313C0 12.3422 0 11.6579 0 10.9688C0.0609375 10.9501 0.046875 10.8938 0.0515625 10.8516C0.0890625 10.5797 0.1125 10.3079 0.159375 10.0407C0.6375 7.27505 1.91719 4.94536 3.99375 3.06567C4.93594 2.21255 5.98594 1.5188 7.1625 1.02661C7.25625 1.1063 7.21406 1.2188 7.21406 1.31255C7.21875 3.45474 7.21875 5.59224 7.21875 7.73442Z" fill="#4C4C4C"/>
<path d="M7.20004 22.9922C7.20473 22.8844 7.2141 22.7766 7.2141 22.6641C7.2141 20.5312 7.21879 18.3984 7.21879 16.2656C12.5438 16.2656 17.8641 16.2656 23.2125 16.2656C23.0204 16.8234 22.7813 17.325 22.5 17.8125C20.6907 20.9531 18.0235 22.9406 14.4844 23.7422C14.011 23.85 13.5329 23.9156 13.05 23.9531C13.0079 23.9578 12.9516 23.9344 12.9375 24C12.2954 24 11.6579 24 11.0157 24C10.7391 23.8922 10.4438 23.9109 10.1579 23.8641C9.13598 23.6906 8.14223 23.4281 7.20004 22.9922Z" fill="#010101"/>
<path d="M7.21876 7.73438C7.21876 5.59219 7.21876 3.45469 7.21407 1.3125C7.21407 1.21406 7.25626 1.10625 7.16251 1.02656C8.11876 0.576562 9.13126 0.309375 10.1719 0.135938C10.5 0.0796875 10.8328 0.0890625 11.1563 0C11.7516 0 12.3422 0 12.9375 0C13.2094 0.103125 13.5 0.084375 13.7766 0.13125C17.7703 0.810938 20.7281 2.93906 22.6594 6.49219C22.8516 6.84375 23.0063 7.20469 23.1563 7.575C23.2078 7.69688 23.1891 7.75313 23.0484 7.73438C23.0344 7.73438 23.0156 7.73438 23.0016 7.73438C17.7422 7.73438 12.4828 7.73438 7.21876 7.73438Z" fill="#656565"/>
</svg>
