<svg width="64" height="64" viewBox="0 0 64 64" fill="none" xmlns="http://www.w3.org/2000/svg">
<circle cx="30.9706" cy="31.6231" r="28.8709" fill="white"/>
<path d="M33.0704 63.6436C32.0467 63.6436 31.0231 63.6436 29.9995 63.6436C29.2751 63.5649 28.5429 63.5019 27.8185 63.4153C23.724 62.9665 19.8816 61.7224 16.2911 59.7303C11.5431 57.1004 7.71642 53.4784 4.81882 48.8722C2.31493 44.9038 0.795263 40.5889 0.228343 35.9433C0.133856 35.2031 0.070865 34.463 0 33.7228C0 32.6756 0 31.6205 0 30.5733C0.0236217 30.4473 0.0551173 30.3213 0.0629912 30.1953C0.149604 29.3764 0.204721 28.5497 0.314956 27.7308C0.653533 25.1324 1.33856 22.6207 2.33855 20.2034C3.96844 16.2507 6.29912 12.7625 9.34631 9.75472C12.8502 6.29808 16.9367 3.78631 21.606 2.23515C25.4327 0.967458 29.3618 0.471403 33.3932 0.70762C36.6372 0.904467 39.7789 1.56587 42.8025 2.73908C47.2985 4.47921 51.1961 7.11697 54.4952 10.6366C57.5975 13.9515 59.881 17.7546 61.3376 22.0459C62.9045 26.6521 63.3534 31.3843 62.7313 36.211C62.1014 41.1322 60.4006 45.6675 57.5975 49.762C53.7472 55.3997 48.6213 59.4232 42.1962 61.7696C39.9206 62.5964 37.59 63.1712 35.1727 63.4153C34.4719 63.4861 33.7711 63.5649 33.0704 63.6436ZM31.4798 60.2657C33.3932 60.2815 35.2829 60.0846 37.149 59.6909C42.456 58.5886 47.0623 56.1477 50.9913 52.4155C51.2039 52.2186 51.2512 52.069 51.1252 51.7855C49.8732 48.9194 48.1095 46.4077 45.7552 44.3526C40.275 39.581 33.9129 37.8645 26.8342 39.4314C19.8895 40.9747 14.9604 45.1715 11.9368 51.6202C11.7242 52.0769 11.8502 52.2816 12.1573 52.5651C17.606 57.628 24.0547 60.1712 31.4798 60.2657ZM42.7474 24.3135C42.7552 18.1089 37.7317 13.0381 31.5586 13.0145C25.3382 12.9988 20.2517 18.0302 20.2438 24.2269C20.2359 30.4473 25.2752 35.5181 31.472 35.526C37.6687 35.5338 42.7395 30.4945 42.7474 24.3135Z" fill="#F6B49E"/>
</svg>
