<?xml version="1.0" encoding="UTF-8"?>
<svg xmlns="http://www.w3.org/2000/svg" width="20pt" height="20pt" viewBox="0 0 20 20" version="1.1">
<g id="surface1">
<path style=" stroke:none;fill-rule:nonzero;fill:rgb(94.509804%,35.686275%,36.470588%);fill-opacity:1;" d="M 17.378906 2.613281 L 13.496094 2.613281 L 13.496094 1.835938 C 13.496094 0.980469 12.800781 0.285156 11.945312 0.285156 L 8.0625 0.285156 C 7.207031 0.285156 6.511719 0.980469 6.511719 1.835938 L 6.511719 2.613281 L 2.632812 2.613281 L 2.632812 3.390625 L 3.429688 3.390625 L 4.207031 18.136719 C 4.207031 18.992188 4.902344 19.6875 5.761719 19.6875 L 14.296875 19.6875 C 15.152344 19.6875 15.847656 18.992188 15.847656 18.136719 L 16.613281 3.390625 L 17.378906 3.390625 Z M 7.289062 1.835938 C 7.289062 1.410156 7.636719 1.0625 8.0625 1.0625 L 11.945312 1.0625 C 12.371094 1.0625 12.71875 1.410156 12.71875 1.835938 L 12.71875 2.613281 L 7.289062 2.613281 Z M 15.074219 18.09375 L 15.074219 18.136719 C 15.074219 18.5625 14.726562 18.910156 14.296875 18.910156 L 5.761719 18.910156 C 5.332031 18.910156 4.984375 18.5625 4.984375 18.136719 L 4.984375 18.09375 L 4.207031 3.390625 L 15.835938 3.390625 Z M 15.074219 18.09375 "/>
<path style=" stroke:none;fill-rule:nonzero;fill:rgb(94.509804%,35.686275%,36.470588%);fill-opacity:1;" d="M 9.617188 4.941406 L 10.390625 4.941406 L 10.390625 17.359375 L 9.617188 17.359375 Z M 9.617188 4.941406 "/>
<path style=" stroke:none;fill-rule:nonzero;fill:rgb(94.509804%,35.686275%,36.470588%);fill-opacity:1;" d="M 8.082031 17.335938 L 7.289062 4.941406 L 6.511719 4.992188 L 7.308594 17.382812 Z M 8.082031 17.335938 "/>
<path style=" stroke:none;fill-rule:nonzero;fill:rgb(94.509804%,35.686275%,36.470588%);fill-opacity:1;" d="M 13.5 4.964844 L 12.726562 4.917969 L 11.945312 17.335938 L 12.71875 17.382812 Z M 13.5 4.964844 "/>
</g>
</svg>
