<svg width="261" height="242" viewBox="0 0 261 242" fill="none" xmlns="http://www.w3.org/2000/svg">
<path opacity="0.4" fill-rule="evenodd" clip-rule="evenodd" d="M229.987 149.06C233.181 184.688 155.341 207.93 88.3456 191.726C21.3503 175.522 -9.38636 112.124 22.5811 78.3516C54.5486 44.5794 226.794 113.379 229.987 149.06Z" fill="#FFDB2D"/>
<path opacity="0.3" fill-rule="evenodd" clip-rule="evenodd" d="M211.933 50.2611C246.07 70.0868 228.498 141.524 180.299 180.484C132.1 219.444 58.8655 202.504 43.9508 158.094C29.0361 113.685 177.746 30.4014 211.933 50.2611Z" fill="#FFDB2D"/>
<g opacity="0.7">
<path fill-rule="evenodd" clip-rule="evenodd" d="M184.388 106.936C187.77 109.32 190.278 114.334 187.897 118.104C186.161 120.857 184.087 123.306 182.493 126.17C181.211 128.441 180.341 130.92 179.8 133.467C179.268 135.906 179.87 138.854 178.841 141.094C178.183 142.521 176.685 144.089 175.338 144.975C173.712 146.023 174.065 146.11 174.119 148.095C174.216 151.98 174.044 155.768 173.059 159.566C171.64 165.043 169.086 170.696 164.926 174.633C164.387 175.125 162.701 177.079 161.807 176.607C160.799 176.083 162.128 175.22 162.453 174.903C164.629 172.763 166.536 170.868 168.085 168.16C174.069 157.692 172.125 146.189 173.943 134.778C174.02 134.191 174.274 132.791 174.418 131.875C174.643 130.414 175.614 128.052 175.446 126.701C175.131 124.169 174.199 128.047 174.059 128.813C173.878 129.776 173.685 130.805 173.56 131.698C173.021 135.807 172.444 140.307 171.897 144.525C163.202 140.412 164.896 127.495 167.476 120.148C169.634 114.07 176.454 101.363 184.388 106.936Z" fill="#90C99F"/>
<path fill-rule="evenodd" clip-rule="evenodd" d="M234.799 132.1C229.054 128.281 222.772 129.107 217.275 132.795C214.288 134.796 212.048 137.458 209.409 139.845C205.418 143.42 201.392 145.329 196.018 145.877C194.347 146.053 192.914 146.414 191.644 147.056C189.87 147.265 188.11 147.751 186.42 148.635C184.226 149.772 182.324 151.709 181.886 154.222C181.778 154.899 181.655 156.326 181.944 157.277C175.492 160.521 169.761 165.093 165.502 170.819C162.933 174.29 160.455 177.793 157.982 181.339C157.308 182.296 156.451 184.024 158.086 182.868C159.581 181.793 160.802 179.208 161.901 177.708C167.231 170.422 172.09 163.834 180.23 159.513C181.075 159.071 181.962 158.624 182.83 158.2C182.854 158.219 182.896 158.214 182.915 158.19C182.939 158.209 182.92 158.232 182.944 158.251C183.005 158.222 183.065 158.194 183.15 158.184C183.319 158.164 183.525 158.097 183.707 158.011C184.245 157.862 184.863 157.661 185.048 157.425C189.188 155.909 193.435 154.745 197.717 153.684C197.674 153.689 202.479 152.351 200.754 153.818C199.922 154.537 196.974 154.777 195.583 155.134C192.51 155.924 188.746 157.01 185.364 158.244C185.082 158.213 184.353 158.556 183.825 158.789C183.54 158.909 183.278 159.046 183.012 159.142C186.937 165.038 193.799 164.743 199.781 162.881C199.781 162.881 199.781 162.881 199.799 162.858C201.541 162.396 203.289 161.975 205.084 161.935C208.076 161.882 210.226 163.149 212.936 164.092C220.353 166.708 228.739 161.095 233.929 156.137C239.661 150.537 242.9 137.46 234.799 132.1Z" fill="#F6B49E"/>
<path fill-rule="evenodd" clip-rule="evenodd" d="M237.946 106.039C227.879 107.44 218.946 113.31 210.928 119.136C201.989 125.649 193.746 132.936 186.851 141.584C182.309 147.279 177.654 152.923 173.511 158.892C172.039 161.014 170.662 163.21 169.399 165.457C169.293 165.641 166.515 170.699 168.017 170.201C168.883 169.928 170.925 164.977 171.366 164.219C173.869 160.049 176.765 156.111 179.784 152.308C184.788 146.023 189.518 139.6 195.078 133.828C195.913 132.959 196.761 132.024 197.719 131.29C198.715 130.509 198.074 130.692 199.171 130.905C200.227 131.123 201.116 131.896 202.269 132.038C206.839 132.613 212.203 129.048 215.897 126.878C220.15 124.386 224.019 121.211 227.667 117.976C230.348 115.583 232.886 113.079 235.3 110.44C236.074 109.599 236.796 108.679 237.646 107.937C237.879 107.738 238.449 107.499 238.615 107.287C238.943 106.82 238.885 106.356 239.157 105.96C238.73 105.968 238.326 105.994 237.946 106.039Z" fill="#FAC389"/>
<path fill-rule="evenodd" clip-rule="evenodd" d="M147.565 158.889C140.112 168.395 141.827 182.194 151.393 189.694C160.959 197.194 174.768 195.567 182.221 186.06" fill="#D2E4A9"/>
<path fill-rule="evenodd" clip-rule="evenodd" d="M166.214 173.625L165.289 172.899C166.248 171.823 167.225 170.723 168.303 169.739C172.423 166 179.7 161.459 185.287 164.697C185.496 164.822 186.184 165.362 186.978 166.061C187.548 166.165 188.086 166.358 188.579 166.707C193.116 169.769 195.206 176.93 194.484 182.153C193.889 186.333 190.626 189.908 187.202 192.174C184.904 193.687 181.116 195.439 178.581 193.49C175.411 191.081 178.277 187.082 180.005 184.78C182.283 181.729 183.956 178.813 183.149 174.904C182.973 174.004 182.689 173.096 182.513 172.196C182.208 170.776 181.826 169.258 182.693 167.957C183.84 166.152 185.054 166.609 186.261 168.051C186.461 168.284 188.108 171.365 188.413 170.195C188.498 169.842 188.26 169.313 187.868 168.739C186.626 167.537 185.165 166.125 184.616 165.847C178.781 163.024 171.452 168.362 167.532 172.335C167.068 172.732 166.65 173.167 166.214 173.625Z" fill="#90C99F"/>
</g>
<path d="M16.1932 63.8927C12.9363 65.8218 9.08294 66.5027 5.39113 65.8013L2.16536 65.1581C1.79574 65.0916 1.45857 64.9141 1.20035 64.6501C0.942138 64.3861 0.775606 64.0486 0.723736 63.6842C0.671866 63.3197 0.737213 62.9464 0.910762 62.6155C1.08431 62.2847 1.35751 62.0127 1.69266 61.8371L2.67306 61.3086C4.66726 60.2401 6.87283 59.6192 9.12666 59.4919C11.3805 59.3646 13.6249 59.734 15.6939 60.573L15.982 60.6914C16.3001 60.8111 16.5755 61.017 16.7763 61.2852C16.9772 61.5534 17.0955 61.8731 17.1176 62.2076C17.1396 62.5421 17.0646 62.8776 16.901 63.1758C16.7375 63.4739 16.4921 63.7224 16.1932 63.8927Z" fill="#FFDB2D"/>
<path d="M14.9561 62.3037C12.9678 59.3569 12.1175 55.7746 12.5747 52.2712L12.9723 49.2158C13.0191 48.8727 13.1673 48.555 13.3972 48.3052C13.627 48.0555 13.9274 47.8857 14.2581 47.8187C14.5887 47.7516 14.9338 47.7905 15.247 47.9302C15.5602 48.0699 15.8264 48.3036 16.0101 48.6L16.595 49.4542C17.7007 51.2655 18.4018 53.2992 18.6468 55.4052C18.8917 57.5113 18.6741 59.6359 18.0101 61.6224L17.9169 61.8948C17.8255 62.1993 17.6519 62.4693 17.4159 62.6741C17.18 62.8788 16.8912 63.0099 16.5825 63.0526C16.2738 63.0952 15.9577 63.0476 15.6701 62.9152C15.3825 62.7827 15.1351 62.5709 14.9561 62.3037Z" fill="#FFDB2D"/>
<path d="M230.31 49.8857L230.31 49.8856L230.304 49.8775C228.463 47.3558 227.808 44.3683 228.481 41.4951L229.123 38.8803L229.123 38.8804L229.125 38.8713C229.17 38.6703 229.292 38.4758 229.486 38.3216C229.681 38.1673 229.932 38.0661 230.204 38.0347C230.476 38.0033 230.746 38.0441 230.976 38.1419C231.204 38.2391 231.38 38.3867 231.49 38.5571L231.49 38.5571L231.494 38.5629L232.022 39.357C232.022 39.3573 232.022 39.3575 232.022 39.3577C233.042 40.9025 233.635 42.6115 233.757 44.3602C233.879 46.1091 233.526 47.8566 232.719 49.4727C232.718 49.473 232.718 49.4734 232.718 49.4737L232.601 49.7054L232.597 49.7117L232.595 49.7181C232.512 49.897 232.365 50.0592 232.166 50.1803C231.966 50.3015 231.728 50.3731 231.479 50.3864C231.231 50.3997 230.99 50.3539 230.784 50.2621C230.578 50.1708 230.417 50.0383 230.31 49.8857Z" stroke="#FFDB2D"/>
<path d="M231.768 49.5243L231.768 49.5243L231.769 49.5236C234.628 47.9583 238.103 47.2907 241.492 47.6496L241.493 47.6496L244.545 47.9718C244.546 47.9719 244.546 47.9719 244.546 47.972C244.795 47.9997 245.007 48.085 245.16 48.1995L245.465 47.8437L245.16 48.1996C245.311 48.3125 245.406 48.4523 245.443 48.6015C245.481 48.7523 245.463 48.9253 245.368 49.0972C245.273 49.2702 245.107 49.4283 244.883 49.5408L244.875 49.5451L244.866 49.5498L244.022 50.0189C242.267 50.8863 240.297 51.4364 238.259 51.6287C236.217 51.8213 234.164 51.6497 232.25 51.131L231.98 51.0558L231.97 51.0533L231.961 51.051C231.747 50.9988 231.574 50.9039 231.452 50.7901C231.332 50.6778 231.259 50.5449 231.234 50.403C231.21 50.2594 231.235 50.0986 231.325 49.9397C231.416 49.7802 231.566 49.6336 231.768 49.5243Z" stroke="#FFDB2D"/>
<path d="M50.5723 16.8203C50.4459 16.9303 50.2887 17.007 50.1167 17.04C47.2682 17.5347 44.331 16.9877 41.8856 15.5097C41.8853 15.5096 41.8851 15.5094 41.8848 15.5093L39.6745 14.1624C39.5178 14.0595 39.3998 13.9166 39.332 13.7542C39.2635 13.5902 39.2483 13.4116 39.2873 13.2404C39.3264 13.069 39.4189 12.9095 39.5566 12.7842C39.6929 12.66 39.8671 12.5754 40.0579 12.5439L40.9371 12.431C40.9372 12.431 40.9372 12.431 40.9372 12.431C42.6511 12.2111 44.3944 12.363 46.0382 12.8752C47.682 13.3873 49.1831 14.2463 50.4314 15.3873L50.6024 15.5438C50.723 15.6584 50.8068 15.8 50.8476 15.9524C50.8886 16.1057 50.8852 16.2665 50.8377 16.4184L51.3149 16.5677L50.8377 16.4184C50.7901 16.5704 50.6993 16.7098 50.5723 16.8203Z" stroke="#FFDB2D"/>
<path d="M51.6469 7.69782L51.6474 7.69682L52.9182 5.28618C53.017 5.1014 53.1652 4.95654 53.3397 4.86745C53.5141 4.77839 53.7085 4.74811 53.8977 4.77888C54.087 4.80968 54.2661 4.90089 54.4096 5.04434C54.5528 5.18741 54.6535 5.3756 54.6948 5.58511L54.8611 6.50474L54.861 6.50474L54.8617 6.50819C55.197 8.29126 55.1443 10.1306 54.7076 11.8892C54.271 13.6478 53.462 15.2792 52.3421 16.663L52.3421 16.663L52.3396 16.6661L52.1822 16.8638C52.0657 17.0071 51.916 17.1114 51.7513 17.1682C51.5862 17.2251 51.4101 17.2331 51.2415 17.1916C51.0728 17.1501 50.9154 17.0599 50.788 16.9279C50.6605 16.7958 50.5681 16.6272 50.5238 16.4394C49.8347 13.4802 50.2365 10.3586 51.6469 7.69782Z" stroke="#FFDB2D"/>
<g filter="url(#filter0_d)">
<path fill-rule="evenodd" clip-rule="evenodd" d="M174.006 157.668L93.9027 156.944L94.9631 39.6209L95.8977 39.6293C95.9006 39.4859 95.9351 39.3393 96.0065 39.1982L96.5071 38.2092C96.881 37.4706 97.9391 37.4801 98.2996 38.2254L98.7822 39.2232C98.8511 39.3656 98.8829 39.5129 98.8833 39.6563L100.752 39.6732C100.755 39.5298 100.79 39.3832 100.861 39.2421L101.362 38.2531C101.736 37.5145 102.794 37.5241 103.154 38.2693L103.637 39.2672C103.706 39.4095 103.738 39.5567 103.738 39.7002L105.783 39.7187C105.786 39.5554 105.83 39.3885 105.922 39.2313L106.654 37.9898C107.045 37.3267 108.007 37.3354 108.386 38.0055L109.095 39.26C109.185 39.4188 109.226 39.5865 109.226 39.7498L111.271 39.7683C111.274 39.6249 111.308 39.4783 111.38 39.3372L111.88 38.3482C112.254 37.6096 113.312 37.6192 113.673 38.3644L114.156 39.3623C114.224 39.5046 114.256 39.6518 114.257 39.7953L116.126 39.8122C116.129 39.6687 116.163 39.5221 116.235 39.381L116.735 38.3921C117.109 37.6535 118.167 37.663 118.528 38.4083L119.01 39.4061C119.079 39.5485 119.111 39.6957 119.111 39.8392L120.981 39.8561C120.983 39.7126 121.018 39.566 121.089 39.4249L121.59 38.4359C121.964 37.6973 123.022 37.7069 123.382 38.4521L123.865 39.45C123.934 39.5923 123.966 39.7396 123.966 39.883L125.835 39.8999C125.838 39.7565 125.873 39.6098 125.944 39.4687L126.445 38.4798C126.819 37.7412 127.877 37.7507 128.237 38.496L128.72 39.4938C128.789 39.6362 128.821 39.7834 128.821 39.9269L130.69 39.9438C130.693 39.8004 130.727 39.6538 130.799 39.5127L131.299 38.5237C131.673 37.7851 132.731 37.7947 133.092 38.5399L133.575 39.5378C133.643 39.6801 133.675 39.8273 133.676 39.9708L136.354 39.995C136.357 39.8516 136.391 39.7049 136.463 39.5638L136.963 38.5749C137.337 37.8363 138.395 37.8458 138.756 38.5911L139.238 39.5889C139.307 39.7313 139.339 39.8785 139.34 40.022L141.209 40.0389C141.212 39.8955 141.246 39.7488 141.318 39.6078L141.818 38.6188C142.192 37.8802 143.25 37.8898 143.611 38.635L144.093 39.6329C144.162 39.7752 144.194 39.9224 144.194 40.0659L146.063 40.0828C146.066 39.9393 146.101 39.7927 146.172 39.6516L146.673 38.6626C147.047 37.924 148.105 37.9336 148.465 38.6788L148.948 39.6767C149.017 39.8191 149.049 39.9663 149.049 40.1097L150.918 40.1266C150.921 39.9832 150.956 39.8366 151.027 39.6955L151.528 38.7065C151.902 37.9679 152.96 37.9775 153.32 38.7227L153.803 39.7206C153.872 39.8629 153.903 40.0101 153.904 40.1536L155.773 40.1705C155.776 40.0271 155.81 39.8804 155.882 39.7393L156.382 38.7504C156.756 38.0117 157.814 38.0213 158.175 38.7666L158.658 39.7644C158.726 39.9068 158.758 40.054 158.759 40.1975L160.803 40.216C160.806 40.0527 160.85 39.8858 160.943 39.7287L161.675 38.4871C162.066 37.824 163.028 37.8327 163.407 38.5028L164.116 39.7573C164.206 39.9161 164.247 40.0838 164.247 40.2471L166.292 40.2656C166.295 40.1221 166.329 39.9755 166.4 39.8344L166.901 38.8454C167.275 38.1068 168.333 38.1164 168.693 38.8616L169.176 39.8595C169.245 40.0019 169.277 40.1491 169.277 40.2926L171.146 40.3095C171.149 40.166 171.184 40.0194 171.255 39.8784L171.756 38.8894C172.13 38.1508 173.188 38.1603 173.548 38.9056L174.031 39.9034C174.1 40.0458 174.132 40.193 174.132 40.3364L175.066 40.3449L174.006 157.668Z" fill="#C4C4C4"/>
</g>
<rect width="2.81006" height="35.7614" transform="matrix(0.889995 0.45597 -0.541892 0.840448 145.998 77.9181)" fill="#FAFAFA"/>
<ellipse rx="3.43936" ry="2.81308" transform="matrix(0.997389 0.0722182 0.067749 0.997702 125.916 88.0341)" fill="#FAFAFA"/>
<ellipse rx="3.43936" ry="2.81308" transform="matrix(0.997389 0.0722182 0.067749 0.997702 149.112 99.2893)" fill="#FAFAFA"/>
<g filter="url(#filter1_d)">
<path fill-rule="evenodd" clip-rule="evenodd" d="M156.011 137.763L79.7916 162.413L43.6883 50.778L44.5775 50.4904C44.5349 50.3534 44.5213 50.2034 44.5444 50.0469L44.7065 48.9504C44.8276 48.1315 45.8344 47.8058 46.4121 48.3988L47.1855 49.1928C47.2959 49.3061 47.3727 49.4357 47.4184 49.5717L49.1969 48.9965C49.1543 48.8595 49.1407 48.7095 49.1638 48.5531L49.3259 47.4565C49.447 46.6376 50.4538 46.312 51.0314 46.905L51.8049 47.6989C51.9153 47.8122 51.9921 47.9418 52.0378 48.0778L53.9832 47.4486C53.9345 47.2927 53.9235 47.1204 53.9617 46.942L54.2633 45.5328C54.4243 44.78 55.3399 44.4839 55.9113 44.9998L56.9809 45.9656C57.1163 46.0878 57.2083 46.2339 57.2601 46.3888L59.2056 45.7596C59.163 45.6227 59.1494 45.4727 59.1725 45.3162L59.3346 44.2197C59.4556 43.4008 60.4625 43.0752 61.0401 43.6681L61.8136 44.4621C61.9239 44.5754 62.0007 44.7049 62.0464 44.8409L63.825 44.2657C63.7824 44.1287 63.7687 43.9787 63.7919 43.8223L63.954 42.7257C64.075 41.9068 65.0818 41.5812 65.6595 42.1742L66.433 42.9681C66.5433 43.0814 66.6201 43.211 66.6658 43.347L68.4444 42.7718C68.4018 42.6348 68.3881 42.4848 68.4113 42.3283L68.5733 41.2318C68.6944 40.4128 69.7012 40.0872 70.2789 40.6802L71.0524 41.4742C71.1627 41.5875 71.2395 41.717 71.2852 41.853L73.0638 41.2778C73.0212 41.1408 73.0075 40.9908 73.0306 40.8344L73.1927 39.7378C73.3138 38.9189 74.3206 38.5933 74.8983 39.1862L75.6717 39.9802C75.7821 40.0935 75.8589 40.2231 75.9046 40.3591L77.6831 39.7839C77.6405 39.6469 77.6269 39.4969 77.65 39.3405L77.8121 38.244C77.9331 37.425 78.94 37.0994 79.5176 37.6924L80.2911 38.4864C80.4015 38.5996 80.4783 38.7292 80.5239 38.8652L83.0724 38.041C83.0298 37.904 83.0162 37.754 83.0393 37.5975L83.2014 36.501C83.3224 35.6821 84.3293 35.3564 84.9069 35.9494L85.6804 36.7434C85.7908 36.8567 85.8676 36.9863 85.9132 37.1223L87.6918 36.5471C87.6492 36.4101 87.6356 36.2601 87.6587 36.1037L87.8208 35.0071C87.9418 34.1882 88.9486 33.8626 89.5263 34.4555L90.2998 35.2495C90.4101 35.3628 90.4869 35.4924 90.5326 35.6283L92.3112 35.0531C92.2686 34.9161 92.255 34.7661 92.2781 34.6097L92.4402 33.5132C92.5612 32.6942 93.568 32.3686 94.1457 32.9616L94.9192 33.7556C95.0295 33.8688 95.1063 33.9984 95.152 34.1344L96.9306 33.5592C96.888 33.4222 96.8743 33.2722 96.8975 33.1157L97.0595 32.0192C97.1806 31.2003 98.1874 30.8747 98.7651 31.4676L99.5386 32.2616C99.6489 32.3749 99.7257 32.5045 99.7714 32.6405L101.55 32.0653C101.507 31.9283 101.494 31.7782 101.517 31.6218L101.679 30.5253C101.8 29.7063 102.807 29.3807 103.384 29.9737L104.158 30.7676C104.268 30.8809 104.345 31.0105 104.391 31.1465L106.336 30.5174C106.288 30.3614 106.277 30.1892 106.315 30.0109L106.616 28.6016C106.777 27.8488 107.693 27.5527 108.264 28.0686L109.334 29.0344C109.469 29.1566 109.561 29.3027 109.613 29.4576L111.559 28.8284C111.516 28.6914 111.502 28.5414 111.526 28.385L111.688 27.2884C111.809 26.4695 112.815 26.1439 113.393 26.7368L114.167 27.5308C114.277 27.6441 114.354 27.7737 114.399 27.9097L116.178 27.3345C116.135 27.1975 116.122 27.0475 116.145 26.8911L116.307 25.7946C116.428 24.9756 117.435 24.65 118.013 25.243L118.786 26.0369C118.896 26.1502 118.973 26.2798 119.019 26.4158L119.908 26.1282L156.011 137.763Z" fill="#CECECE"/>
</g>
<rect width="2.81006" height="35.7614" transform="matrix(0.988525 0.151055 -0.248237 0.968699 104.217 70.9666)" fill="#FAFAFA"/>
<ellipse rx="3.43936" ry="2.81308" transform="matrix(0.969025 -0.246963 0.379844 0.925051 88.3651 86.9153)" fill="#FAFAFA"/>
<ellipse rx="3.43936" ry="2.81308" transform="matrix(0.969025 -0.246963 0.379844 0.925051 113.93 90.2558)" fill="#FAFAFA"/>
<defs>
<filter id="filter0_d" x="81.9027" y="31.3843" width="105.184" height="144.284" filterUnits="userSpaceOnUse" color-interpolation-filters="sRGB">
<feFlood flood-opacity="0" result="BackgroundImageFix"/>
<feColorMatrix in="SourceAlpha" type="matrix" values="0 0 0 0 0 0 0 0 0 0 0 0 0 0 0 0 0 0 127 0"/>
<feOffset dy="6"/>
<feGaussianBlur stdDeviation="6"/>
<feColorMatrix type="matrix" values="0 0 0 0 0.270833 0 0 0 0 0.0643229 0 0 0 0 0.0670764 0 0 0 0.15 0"/>
<feBlend mode="normal" in2="BackgroundImageFix" result="effect1_dropShadow"/>
<feBlend mode="normal" in="SourceGraphic" in2="effect1_dropShadow" result="shape"/>
</filter>
<filter id="filter1_d" x="31" y="18" width="137.011" height="162.413" filterUnits="userSpaceOnUse" color-interpolation-filters="sRGB">
<feFlood flood-opacity="0" result="BackgroundImageFix"/>
<feColorMatrix in="SourceAlpha" type="matrix" values="0 0 0 0 0 0 0 0 0 0 0 0 0 0 0 0 0 0 127 0"/>
<feOffset dy="6"/>
<feGaussianBlur stdDeviation="6"/>
<feColorMatrix type="matrix" values="0 0 0 0 0.270833 0 0 0 0 0.0643229 0 0 0 0 0.0670764 0 0 0 0.15 0"/>
<feBlend mode="normal" in2="BackgroundImageFix" result="effect1_dropShadow"/>
<feBlend mode="normal" in="SourceGraphic" in2="effect1_dropShadow" result="shape"/>
</filter>
</defs>
</svg>
