<svg width="327" height="141" viewBox="0 0 327 141" fill="none" xmlns="http://www.w3.org/2000/svg" xmlns:xlink="http://www.w3.org/1999/xlink">
<mask id="mask0" mask-type="alpha" maskUnits="userSpaceOnUse" x="0" y="0" width="327" height="141">
<rect width="327" height="141" rx="4" fill="#C4C4C4"/>
<rect width="327" height="141" rx="4" fill="url(#pattern0)"/>
<rect width="327" height="141" rx="4" fill="url(#pattern1)"/>
</mask>
<g mask="url(#mask0)">
<rect width="355.435" height="188.197" transform="matrix(-1 0 0 1 346.904 -14.159)" fill="url(#pattern2)"/>
<rect x="-9" y="-15" width="344" height="171" fill="#CECECE"/>
<path d="M126.77 61L163.539 97.7696H126.77H90L126.77 61Z" fill="white"/>
<path d="M181.539 43L236.309 97.7695H181.539H126.77L181.539 43Z" fill="white"/>
<circle cx="136.27" cy="44.5" r="10.5" fill="white"/>
<rect x="223" y="39" width="2" height="14" fill="white"/>
<rect x="231" y="45" width="2" height="14" transform="rotate(90 231 45)" fill="white"/>
</g>
<defs>
<pattern id="pattern0" patternContentUnits="objectBoundingBox" width="1" height="1">
<use xlink:href="#image0" transform="translate(0 -0.369766) scale(0.000295421 0.000685125)"/>
</pattern>
<pattern id="pattern1" patternContentUnits="objectBoundingBox" width="1" height="1">
<use xlink:href="#image0" transform="translate(0 -0.369766) scale(0.000295421 0.000685125)"/>
</pattern>
<pattern id="pattern2" patternContentUnits="objectBoundingBox" width="1" height="1">
<use xlink:href="#image0" transform="translate(0 -0.208308) scale(0.000295421 0.000557942)"/>
</pattern>
</defs>
</svg>
