<svg width="261" height="263" viewBox="0 0 261 263" fill="none" xmlns="http://www.w3.org/2000/svg">
<path opacity="0.4" fill-rule="evenodd" clip-rule="evenodd" d="M229.987 170.06C233.181 205.688 155.341 228.93 88.3456 212.726C21.3503 196.522 -9.38636 133.124 22.5811 99.3514C54.5486 65.5791 226.794 134.378 229.987 170.06Z" fill="#FFDB2D"/>
<path opacity="0.3" fill-rule="evenodd" clip-rule="evenodd" d="M211.933 71.2611C246.07 91.0868 228.498 162.524 180.299 201.484C132.1 240.444 58.8655 223.504 43.9508 179.094C29.0361 134.685 177.746 51.4014 211.933 71.2611Z" fill="#FFDB2D"/>
<g opacity="0.7">
<path fill-rule="evenodd" clip-rule="evenodd" d="M184.388 127.936C187.77 130.32 190.278 135.334 187.897 139.104C186.161 141.856 184.087 144.306 182.493 147.17C181.211 149.441 180.341 151.919 179.8 154.467C179.268 156.906 179.87 159.853 178.841 162.094C178.183 163.52 176.685 165.088 175.338 165.975C173.712 167.023 174.065 167.11 174.119 169.095C174.216 172.98 174.044 176.768 173.059 180.566C171.64 186.043 169.086 191.696 164.926 195.633C164.387 196.125 162.701 198.079 161.807 197.606C160.799 197.083 162.128 196.22 162.453 195.903C164.629 193.763 166.536 191.868 168.085 189.159C174.069 178.692 172.125 167.189 173.943 155.778C174.02 155.191 174.274 153.791 174.418 152.875C174.643 151.414 175.614 149.051 175.446 147.701C175.131 145.169 174.199 149.047 174.059 149.813C173.878 150.776 173.685 151.805 173.56 152.697C173.021 156.807 172.444 161.307 171.897 165.524C163.202 161.411 164.896 148.495 167.476 141.147C169.634 135.07 176.454 122.363 184.388 127.936Z" fill="#90C99F"/>
<path fill-rule="evenodd" clip-rule="evenodd" d="M234.799 153.099C229.054 149.281 222.772 150.107 217.275 153.795C214.288 155.796 212.048 158.458 209.409 160.845C205.418 164.42 201.392 166.329 196.018 166.877C194.347 167.052 192.914 167.414 191.644 168.056C189.87 168.265 188.11 168.751 186.42 169.635C184.226 170.772 182.324 172.709 181.886 175.222C181.778 175.899 181.655 177.326 181.944 178.277C175.492 181.521 169.761 186.093 165.502 191.818C162.933 195.29 160.455 198.793 157.982 202.339C157.308 203.296 156.451 205.024 158.086 203.868C159.581 202.792 160.802 200.208 161.901 198.708C167.231 191.422 172.09 184.833 180.23 180.513C181.075 180.07 181.962 179.623 182.83 179.2C182.854 179.218 182.896 179.213 182.915 179.19C182.939 179.208 182.92 179.232 182.944 179.251C183.005 179.222 183.065 179.194 183.15 179.184C183.319 179.164 183.525 179.097 183.707 179.011C184.245 178.862 184.863 178.66 185.048 178.425C189.188 176.909 193.435 175.745 197.717 174.683C197.674 174.688 202.479 173.351 200.754 174.818C199.922 175.537 196.974 175.777 195.583 176.134C192.51 176.924 188.746 178.01 185.364 179.244C185.082 179.213 184.353 179.556 183.825 179.789C183.54 179.908 183.278 180.046 183.012 180.142C186.937 186.038 193.799 185.742 199.781 183.881C199.781 183.881 199.781 183.881 199.799 183.858C201.541 183.395 203.289 182.975 205.084 182.935C208.076 182.882 210.226 184.148 212.936 185.092C220.353 187.707 228.739 182.095 233.929 177.137C239.661 171.537 242.9 158.46 234.799 153.099Z" fill="#F6B49E"/>
<path fill-rule="evenodd" clip-rule="evenodd" d="M237.946 127.039C227.879 128.439 218.946 134.309 210.928 140.136C201.989 146.648 193.746 153.936 186.851 162.584C182.309 168.279 177.654 173.923 173.511 179.892C172.039 182.014 170.662 184.21 169.399 186.457C169.293 186.64 166.515 191.699 168.017 191.201C168.883 190.928 170.925 185.977 171.366 185.219C173.869 181.049 176.765 177.111 179.784 173.308C184.788 167.023 189.518 160.6 195.078 154.828C195.913 153.959 196.761 153.024 197.719 152.29C198.715 151.509 198.074 151.691 199.171 151.905C200.227 152.123 201.116 152.896 202.269 153.038C206.839 153.613 212.203 150.047 215.897 147.878C220.15 145.385 224.019 142.21 227.667 138.976C230.348 136.583 232.886 134.079 235.3 131.439C236.074 130.599 236.796 129.679 237.646 128.936C237.879 128.738 238.449 128.499 238.615 128.287C238.943 127.82 238.885 127.356 239.157 126.96C238.73 126.968 238.326 126.994 237.946 127.039Z" fill="#FAC389"/>
<path fill-rule="evenodd" clip-rule="evenodd" d="M147.565 179.889C140.112 189.395 141.827 203.194 151.393 210.694C160.959 218.194 174.768 216.566 182.221 207.06" fill="#D2E4A9"/>
<path fill-rule="evenodd" clip-rule="evenodd" d="M166.214 194.625L165.289 193.899C166.248 192.823 167.225 191.722 168.303 190.739C172.423 186.999 179.7 182.459 185.287 185.697C185.496 185.822 186.184 186.362 186.978 187.06C187.548 187.165 188.086 187.358 188.579 187.707C193.116 190.768 195.206 197.929 194.484 203.153C193.889 207.333 190.626 210.908 187.202 213.174C184.904 214.686 181.116 216.439 178.581 214.49C175.411 212.08 178.277 208.082 180.005 205.78C182.283 202.728 183.956 199.812 183.149 195.904C182.973 195.004 182.689 194.096 182.513 193.196C182.208 191.776 181.826 190.258 182.693 188.957C183.84 187.152 185.054 187.608 186.261 189.05C186.461 189.284 188.108 192.365 188.413 191.194C188.498 190.842 188.261 190.313 187.868 189.739C186.626 188.536 185.165 187.124 184.616 186.846C178.781 184.023 171.452 189.362 167.532 193.335C167.068 193.732 166.65 194.167 166.214 194.625Z" fill="#90C99F"/>
</g>
<path d="M16.1932 84.8924C12.9363 86.8216 9.08295 87.5024 5.39114 86.801L2.16538 86.1579C1.79576 86.0913 1.45859 85.9138 1.20037 85.6498C0.942153 85.3858 0.775622 85.0483 0.723752 84.6839C0.671882 84.3195 0.737228 83.9461 0.910777 83.6153C1.08433 83.2844 1.35752 83.0124 1.69268 82.8368L2.67308 82.3084C4.66728 81.2399 6.87285 80.619 9.12668 80.4916C11.3805 80.3643 13.6249 80.7338 15.6939 81.5727L15.982 81.6912C16.3001 81.8109 16.5755 82.0167 16.7764 82.2849C16.9772 82.5532 17.0955 82.8729 17.1176 83.2073C17.1396 83.5418 17.0646 83.8774 16.9011 84.1755C16.7375 84.4736 16.4921 84.7221 16.1932 84.8924Z" fill="#FFDB2D"/>
<path d="M14.9561 83.3035C12.9678 80.3568 12.1175 76.7745 12.5747 73.271L12.9723 70.2157C13.0191 69.8726 13.1673 69.5549 13.3972 69.3051C13.627 69.0554 13.9274 68.8856 14.2581 68.8185C14.5887 68.7515 14.9338 68.7904 15.247 68.9301C15.5602 69.0697 15.8264 69.3035 16.0101 69.5998L16.595 70.4541C17.7007 72.2654 18.4018 74.2991 18.6468 76.4051C18.8917 78.5111 18.6741 80.6358 18.0101 82.6223L17.9169 82.8947C17.8255 83.1992 17.6519 83.4692 17.4159 83.6739C17.18 83.8786 16.8912 84.0098 16.5825 84.0524C16.2738 84.0951 15.9577 84.0475 15.6701 83.915C15.3825 83.7826 15.1351 83.5707 14.9561 83.3035Z" fill="#FFDB2D"/>
<path d="M230.31 70.8855L230.31 70.8855L230.304 70.8774C228.463 68.3557 227.808 65.3682 228.481 62.495L229.123 59.8802L229.123 59.8803L229.125 59.8712C229.17 59.6702 229.292 59.4757 229.486 59.3215C229.681 59.1672 229.932 59.066 230.204 59.0346C230.476 59.0032 230.746 59.044 230.976 59.1417C231.204 59.239 231.38 59.3866 231.49 59.557L231.49 59.557L231.494 59.5628L232.022 60.3569C232.022 60.3571 232.022 60.3573 232.022 60.3575C233.042 61.9024 233.635 63.6114 233.757 65.3601C233.879 67.109 233.526 68.8565 232.719 70.4726C232.718 70.4729 232.718 70.4733 232.718 70.4736L232.601 70.7053L232.597 70.7116L232.595 70.7179C232.512 70.8969 232.365 71.0591 232.166 71.1802C231.966 71.3014 231.728 71.373 231.479 71.3862C231.231 71.3995 230.99 71.3538 230.784 71.262C230.578 71.1706 230.417 71.0382 230.31 70.8855Z" stroke="#FFDB2D"/>
<path d="M231.767 70.5241L231.767 70.5241L231.769 70.5235C234.628 68.9582 238.103 68.2906 241.492 68.6495L241.493 68.6495L244.545 68.9717C244.546 68.9718 244.546 68.9718 244.546 68.9719C244.795 68.9996 245.007 69.0849 245.16 69.1994L245.465 68.8436L245.16 69.1994C245.311 69.3123 245.406 69.4521 245.443 69.6013C245.481 69.7522 245.463 69.9252 245.368 70.0971C245.273 70.2701 245.107 70.4282 244.883 70.5406L244.875 70.545L244.866 70.5497L244.022 71.0188C242.267 71.8861 240.297 72.4363 238.259 72.6286C236.217 72.8212 234.164 72.6495 232.25 72.1308L231.98 72.0557L231.97 72.0532L231.961 72.0509C231.746 71.9986 231.574 71.9038 231.452 71.79C231.332 71.6777 231.258 71.5448 231.234 71.4029C231.21 71.2593 231.235 71.0984 231.325 70.9396C231.416 70.7801 231.566 70.6335 231.767 70.5241Z" stroke="#FFDB2D"/>
<path d="M50.5723 37.8202C50.4459 37.9302 50.2887 38.0069 50.1167 38.0399C47.2682 38.5346 44.331 37.9876 41.8856 36.5096C41.8853 36.5095 41.8851 36.5093 41.8848 36.5092L39.6745 35.1623C39.5179 35.0594 39.3998 34.9165 39.332 34.754C39.2635 34.5901 39.2483 34.4115 39.2873 34.2403C39.3264 34.0688 39.4189 33.9094 39.5566 33.7841C39.693 33.6599 39.8671 33.5752 40.0579 33.5437L40.9372 33.4309C40.9372 33.4309 40.9372 33.4309 40.9372 33.4309C42.6511 33.2109 44.3945 33.3629 46.0383 33.875C47.682 34.3872 49.1832 35.2462 50.4314 36.3872L50.6025 36.5437C50.723 36.6583 50.8068 36.7998 50.8476 36.9523C50.8886 37.1056 50.8853 37.2664 50.8377 37.4183L51.3149 37.5676L50.8377 37.4183C50.7901 37.5703 50.6994 37.7097 50.5723 37.8202Z" stroke="#FFDB2D"/>
<path d="M51.6469 28.6977L51.6474 28.6967L52.9182 26.2861C53.017 26.1013 53.1652 25.9564 53.3397 25.8673C53.5141 25.7783 53.7085 25.748 53.8977 25.7788C54.087 25.8096 54.2661 25.9008 54.4096 26.0442C54.5528 26.1873 54.6536 26.3755 54.6948 26.585L54.8611 27.5046L54.8611 27.5046L54.8617 27.5081C55.197 29.2911 55.1443 31.1304 54.7076 32.8891C54.271 34.6477 53.462 36.2791 52.3421 37.6629L52.3421 37.6629L52.3397 37.666L52.1822 37.8637C52.0657 38.007 51.916 38.1112 51.7513 38.168C51.5862 38.225 51.4101 38.2329 51.2415 38.1915C51.0728 38.1499 50.9154 38.0598 50.788 37.9278C50.6605 37.7957 50.5681 37.627 50.5238 37.4393C49.8347 34.4801 50.2365 31.3584 51.6469 28.6977Z" stroke="#FFDB2D"/>
<g filter="url(#filter0_d)">
<path d="M58.5403 59.9139L154.681 43.0886L173.372 159.525L70.304 169.342L58.5403 59.9139Z" fill="#565656"/>
</g>
<g filter="url(#filter1_d)">
<path d="M142.838 54.1046L154.681 43.0886L172.853 159.249L151.876 167.41L142.838 54.1046Z" fill="#CECECE"/>
</g>
<g filter="url(#filter2_d)">
<path d="M142.838 54.1046L188.945 61.2909L176.357 166.436L151.876 167.41L142.838 54.1046Z" fill="#828282"/>
</g>
<g filter="url(#filter3_d)">
<path d="M58.0211 59.6382L98.8722 66.6948L90.5672 168.79L68.3735 172.976L58.0211 59.6382Z" fill="#CECECE"/>
</g>
<g filter="url(#filter4_d)">
<path d="M81.1887 79.9334L99.6672 66.4513L84.1916 182.044L81.1887 79.9334Z" fill="#828282"/>
</g>
<g filter="url(#filter5_d)">
<path d="M80.118 80.6959L189.74 61.0475L178.191 166.744L84.1916 182.044L80.118 80.6959Z" fill="#CECECE"/>
</g>
<defs>
<filter id="filter0_d" x="3.7924" y="0.959717" width="225.707" height="226.924" filterUnits="userSpaceOnUse" color-interpolation-filters="sRGB">
<feFlood flood-opacity="0" result="BackgroundImageFix"/>
<feColorMatrix in="SourceAlpha" type="matrix" values="0 0 0 0 0 0 0 0 0 0 0 0 0 0 0 0 0 0 127 0"/>
<feOffset dy="6"/>
<feGaussianBlur stdDeviation="6"/>
<feColorMatrix type="matrix" values="0 0 0 0 0.270833 0 0 0 0 0.0643229 0 0 0 0 0.0670764 0 0 0 0.15 0"/>
<feBlend mode="normal" in2="BackgroundImageFix" result="effect1_dropShadow"/>
<feBlend mode="normal" in="SourceGraphic" in2="effect1_dropShadow" result="shape"/>
</filter>
<filter id="filter1_d" x="85.8836" y="34.6064" width="143.096" height="157.698" filterUnits="userSpaceOnUse" color-interpolation-filters="sRGB">
<feFlood flood-opacity="0" result="BackgroundImageFix"/>
<feColorMatrix in="SourceAlpha" type="matrix" values="0 0 0 0 0 0 0 0 0 0 0 0 0 0 0 0 0 0 127 0"/>
<feOffset dy="6"/>
<feGaussianBlur stdDeviation="6"/>
<feColorMatrix type="matrix" values="0 0 0 0 0.270833 0 0 0 0 0.0643229 0 0 0 0 0.0670764 0 0 0 0.15 0"/>
<feBlend mode="normal" in2="BackgroundImageFix" result="effect1_dropShadow"/>
<feBlend mode="normal" in="SourceGraphic" in2="effect1_dropShadow" result="shape"/>
</filter>
<filter id="filter2_d" x="85.8836" y="34.6064" width="148.807" height="160.732" filterUnits="userSpaceOnUse" color-interpolation-filters="sRGB">
<feFlood flood-opacity="0" result="BackgroundImageFix"/>
<feColorMatrix in="SourceAlpha" type="matrix" values="0 0 0 0 0 0 0 0 0 0 0 0 0 0 0 0 0 0 127 0"/>
<feOffset dy="6"/>
<feGaussianBlur stdDeviation="6"/>
<feColorMatrix type="matrix" values="0 0 0 0 0.270833 0 0 0 0 0.0643229 0 0 0 0 0.0670764 0 0 0 0.15 0"/>
<feBlend mode="normal" in2="BackgroundImageFix" result="effect1_dropShadow"/>
<feBlend mode="normal" in="SourceGraphic" in2="effect1_dropShadow" result="shape"/>
</filter>
<filter id="filter3_d" x="1.34267" y="42.2167" width="145.351" height="157.033" filterUnits="userSpaceOnUse" color-interpolation-filters="sRGB">
<feFlood flood-opacity="0" result="BackgroundImageFix"/>
<feColorMatrix in="SourceAlpha" type="matrix" values="0 0 0 0 0 0 0 0 0 0 0 0 0 0 0 0 0 0 127 0"/>
<feOffset dy="6"/>
<feGaussianBlur stdDeviation="6"/>
<feColorMatrix type="matrix" values="0 0 0 0 0.270833 0 0 0 0 0.0643229 0 0 0 0 0.0670764 0 0 0 0.15 0"/>
<feBlend mode="normal" in2="BackgroundImageFix" result="effect1_dropShadow"/>
<feBlend mode="normal" in="SourceGraphic" in2="effect1_dropShadow" result="shape"/>
</filter>
<filter id="filter4_d" x="27.544" y="55.7628" width="119.945" height="144.282" filterUnits="userSpaceOnUse" color-interpolation-filters="sRGB">
<feFlood flood-opacity="0" result="BackgroundImageFix"/>
<feColorMatrix in="SourceAlpha" type="matrix" values="0 0 0 0 0 0 0 0 0 0 0 0 0 0 0 0 0 0 127 0"/>
<feOffset dy="6"/>
<feGaussianBlur stdDeviation="6"/>
<feColorMatrix type="matrix" values="0 0 0 0 0.270833 0 0 0 0 0.0643229 0 0 0 0 0.0670764 0 0 0 0.15 0"/>
<feBlend mode="normal" in2="BackgroundImageFix" result="effect1_dropShadow"/>
<feBlend mode="normal" in="SourceGraphic" in2="effect1_dropShadow" result="shape"/>
</filter>
<filter id="filter5_d" x="27.0248" y="13.9543" width="209.499" height="221.667" filterUnits="userSpaceOnUse" color-interpolation-filters="sRGB">
<feFlood flood-opacity="0" result="BackgroundImageFix"/>
<feColorMatrix in="SourceAlpha" type="matrix" values="0 0 0 0 0 0 0 0 0 0 0 0 0 0 0 0 0 0 127 0"/>
<feOffset dy="6"/>
<feGaussianBlur stdDeviation="6"/>
<feColorMatrix type="matrix" values="0 0 0 0 0.270833 0 0 0 0 0.0643229 0 0 0 0 0.0670764 0 0 0 0.15 0"/>
<feBlend mode="normal" in2="BackgroundImageFix" result="effect1_dropShadow"/>
<feBlend mode="normal" in="SourceGraphic" in2="effect1_dropShadow" result="shape"/>
</filter>
</defs>
</svg>
