<svg width="261" height="242" viewBox="0 0 261 242" fill="none" xmlns="http://www.w3.org/2000/svg">
<path opacity="0.4" fill-rule="evenodd" clip-rule="evenodd" d="M229.987 149.06C233.181 184.688 155.341 207.93 88.3456 191.726C21.3503 175.522 -9.38636 112.124 22.5811 78.3516C54.5486 44.5794 226.794 113.379 229.987 149.06Z" fill="#FFDB2D"/>
<path opacity="0.3" fill-rule="evenodd" clip-rule="evenodd" d="M211.933 50.2611C246.07 70.0868 228.498 141.524 180.299 180.484C132.1 219.444 58.8655 202.504 43.9508 158.094C29.0361 113.685 177.746 30.4014 211.933 50.2611Z" fill="#FFDB2D"/>
<g opacity="0.7">
<path fill-rule="evenodd" clip-rule="evenodd" d="M184.388 106.936C187.77 109.32 190.278 114.334 187.897 118.104C186.161 120.857 184.087 123.306 182.493 126.17C181.211 128.441 180.341 130.92 179.8 133.467C179.268 135.906 179.87 138.853 178.841 141.094C178.183 142.52 176.685 144.089 175.338 144.975C173.712 146.023 174.065 146.11 174.119 148.095C174.216 151.98 174.044 155.768 173.059 159.566C171.64 165.043 169.086 170.696 164.926 174.633C164.387 175.125 162.701 177.079 161.807 176.606C160.799 176.083 162.128 175.22 162.453 174.903C164.629 172.763 166.536 170.868 168.085 168.159C174.069 157.692 172.125 146.189 173.943 134.778C174.02 134.191 174.274 132.791 174.418 131.875C174.643 130.414 175.614 128.051 175.446 126.701C175.131 124.169 174.199 128.047 174.059 128.813C173.878 129.776 173.685 130.805 173.56 131.697C173.021 135.807 172.444 140.307 171.897 144.525C163.202 140.412 164.896 127.495 167.476 120.148C169.634 114.07 176.454 101.363 184.388 106.936Z" fill="#90C99F"/>
<path fill-rule="evenodd" clip-rule="evenodd" d="M234.799 132.1C229.054 128.281 222.772 129.107 217.275 132.796C214.288 134.796 212.048 137.458 209.409 139.846C205.418 143.42 201.392 145.329 196.018 145.877C194.347 146.053 192.914 146.414 191.644 147.056C189.87 147.265 188.11 147.751 186.42 148.636C184.226 149.772 182.324 151.709 181.886 154.222C181.778 154.899 181.655 156.326 181.944 157.277C175.492 160.521 169.761 165.093 165.502 170.819C162.933 174.29 160.455 177.793 157.982 181.339C157.308 182.296 156.451 184.024 158.086 182.868C159.581 181.793 160.802 179.208 161.901 177.709C167.231 170.422 172.09 163.834 180.23 159.513C181.075 159.071 181.962 158.624 182.83 158.2C182.854 158.219 182.896 158.214 182.915 158.19C182.939 158.209 182.92 158.232 182.944 158.251C183.005 158.222 183.065 158.194 183.15 158.184C183.319 158.164 183.525 158.097 183.707 158.011C184.245 157.862 184.863 157.661 185.048 157.425C189.188 155.909 193.435 154.745 197.717 153.684C197.674 153.689 202.479 152.352 200.754 153.818C199.922 154.537 196.974 154.777 195.583 155.134C192.51 155.924 188.746 157.01 185.364 158.244C185.082 158.213 184.353 158.556 183.825 158.789C183.54 158.909 183.278 159.047 183.012 159.142C186.937 165.038 193.799 164.743 199.781 162.882C199.781 162.882 199.781 162.882 199.799 162.858C201.541 162.396 203.289 161.976 205.084 161.935C208.076 161.882 210.226 163.149 212.936 164.092C220.353 166.708 228.739 161.095 233.929 156.137C239.661 150.538 242.9 137.46 234.799 132.1Z" fill="#F6B49E"/>
<path fill-rule="evenodd" clip-rule="evenodd" d="M237.946 106.039C227.879 107.44 218.946 113.31 210.928 119.136C201.989 125.649 193.746 132.936 186.851 141.584C182.309 147.279 177.654 152.923 173.511 158.892C172.039 161.014 170.662 163.21 169.399 165.457C169.293 165.641 166.515 170.699 168.017 170.201C168.883 169.928 170.925 164.977 171.366 164.219C173.869 160.049 176.765 156.111 179.784 152.308C184.788 146.023 189.518 139.6 195.078 133.828C195.913 132.959 196.761 132.024 197.719 131.29C198.715 130.509 198.074 130.692 199.171 130.905C200.227 131.123 201.116 131.896 202.269 132.038C206.839 132.613 212.203 129.048 215.897 126.878C220.15 124.386 224.019 121.211 227.667 117.976C230.348 115.583 232.886 113.079 235.3 110.44C236.074 109.599 236.796 108.679 237.646 107.937C237.879 107.738 238.449 107.499 238.615 107.287C238.943 106.82 238.885 106.356 239.157 105.96C238.73 105.968 238.326 105.994 237.946 106.039Z" fill="#FAC389"/>
<path fill-rule="evenodd" clip-rule="evenodd" d="M147.565 158.889C140.112 168.395 141.827 182.194 151.393 189.694C160.959 197.194 174.768 195.567 182.221 186.06" fill="#D2E4A9"/>
<path fill-rule="evenodd" clip-rule="evenodd" d="M166.214 173.625L165.289 172.899C166.248 171.823 167.225 170.723 168.303 169.739C172.423 166 179.7 161.459 185.287 164.697C185.496 164.822 186.184 165.362 186.978 166.061C187.548 166.165 188.086 166.358 188.579 166.707C193.116 169.769 195.206 176.93 194.484 182.153C193.889 186.333 190.626 189.908 187.202 192.174C184.904 193.687 181.116 195.439 178.581 193.49C175.411 191.081 178.277 187.082 180.005 184.78C182.283 181.729 183.956 178.813 183.149 174.904C182.973 174.004 182.689 173.096 182.513 172.196C182.208 170.776 181.826 169.258 182.693 167.957C183.84 166.152 185.054 166.609 186.261 168.051C186.461 168.284 188.108 171.365 188.413 170.195C188.498 169.842 188.261 169.313 187.868 168.739C186.626 167.537 185.165 166.125 184.616 165.847C178.781 163.024 171.452 168.362 167.532 172.335C167.068 172.732 166.65 173.167 166.214 173.625Z" fill="#90C99F"/>
</g>
<path d="M16.1932 63.8927C12.9363 65.8218 9.08295 66.5027 5.39114 65.8013L2.16538 65.1581C1.79576 65.0916 1.45859 64.9141 1.20037 64.6501C0.942153 64.3861 0.775622 64.0486 0.723752 63.6842C0.671882 63.3197 0.737228 62.9464 0.910777 62.6155C1.08433 62.2847 1.35752 62.0127 1.69268 61.8371L2.67308 61.3086C4.66728 60.2401 6.87285 59.6192 9.12668 59.4919C11.3805 59.3646 13.6249 59.734 15.6939 60.573L15.982 60.6914C16.3001 60.8111 16.5755 61.017 16.7764 61.2852C16.9772 61.5534 17.0955 61.8731 17.1176 62.2076C17.1396 62.5421 17.0646 62.8776 16.9011 63.1758C16.7375 63.4739 16.4921 63.7224 16.1932 63.8927Z" fill="#FFDB2D"/>
<path d="M14.9561 62.3038C12.9678 59.3571 12.1175 55.7747 12.5747 52.2713L12.9723 49.216C13.0191 48.8729 13.1673 48.5551 13.3972 48.3053C13.627 48.0556 13.9274 47.8858 14.2581 47.8188C14.5887 47.7517 14.9338 47.7907 15.247 47.9303C15.5602 48.07 15.8264 48.3037 16.0101 48.6001L16.595 49.4543C17.7007 51.2657 18.4018 53.2993 18.6468 55.4054C18.8917 57.5114 18.6741 59.636 18.0101 61.6225L17.9169 61.8949C17.8255 62.1995 17.6519 62.4695 17.4159 62.6742C17.18 62.8789 16.8912 63.01 16.5825 63.0527C16.2738 63.0953 15.9577 63.0477 15.6701 62.9153C15.3825 62.7829 15.1351 62.571 14.9561 62.3038Z" fill="#FFDB2D"/>
<path d="M230.31 49.8858L230.31 49.8857L230.304 49.8776C228.463 47.3559 227.808 44.3685 228.481 41.4953L229.123 38.8805L229.123 38.8805L229.125 38.8714C229.17 38.6704 229.292 38.476 229.486 38.3217C229.681 38.1674 229.932 38.0663 230.204 38.0348C230.476 38.0034 230.746 38.0442 230.976 38.142C231.204 38.2393 231.38 38.3868 231.49 38.5572L231.49 38.5572L231.494 38.563L232.022 39.3572C232.022 39.3574 232.022 39.3576 232.022 39.3578C233.042 40.9026 233.635 42.6116 233.757 44.3603C233.879 46.1093 233.526 47.8567 232.719 49.4728C232.718 49.4732 232.718 49.4735 232.718 49.4738L232.601 49.7055L232.597 49.7118L232.595 49.7182C232.512 49.8971 232.365 50.0593 232.166 50.1805C231.966 50.3016 231.728 50.3732 231.479 50.3865C231.231 50.3998 230.99 50.354 230.784 50.2623C230.578 50.1709 230.417 50.0385 230.31 49.8858Z" stroke="#FFDB2D"/>
<path d="M231.767 49.5244L231.767 49.5244L231.769 49.5237C234.628 47.9584 238.103 47.2908 241.492 47.6497L241.493 47.6497L244.545 47.9719C244.546 47.972 244.546 47.972 244.546 47.9721C244.795 47.9999 245.007 48.0851 245.16 48.1997L245.465 47.8439L245.16 48.1997C245.311 48.3126 245.406 48.4524 245.443 48.6016C245.481 48.7525 245.463 48.9254 245.368 49.0974C245.273 49.2703 245.107 49.4285 244.883 49.5409L244.875 49.5452L244.866 49.5499L244.022 50.019C242.267 50.8864 240.297 51.4365 238.259 51.6288C236.217 51.8215 234.164 51.6498 232.25 51.1311L231.98 51.056L231.97 51.0534L231.961 51.0511C231.746 50.9989 231.574 50.9041 231.452 50.7902C231.332 50.6779 231.258 50.545 231.234 50.4031C231.21 50.2595 231.235 50.0987 231.325 49.9399C231.416 49.7803 231.566 49.6337 231.767 49.5244Z" stroke="#FFDB2D"/>
<path d="M50.5723 16.8204C50.4459 16.9304 50.2887 17.0071 50.1167 17.0401C47.2682 17.5349 44.331 16.9878 41.8856 15.5099C41.8853 15.5097 41.8851 15.5096 41.8848 15.5094L39.6745 14.1625C39.5178 14.0596 39.3998 13.9167 39.332 13.7543C39.2635 13.5903 39.2483 13.4117 39.2873 13.2405C39.3264 13.0691 39.4189 12.9097 39.5566 12.7843C39.6929 12.6601 39.8671 12.5755 40.0579 12.544L40.9371 12.4311C40.9372 12.4311 40.9372 12.4311 40.9372 12.4311C42.6511 12.2112 44.3944 12.3631 46.0382 12.8753C47.682 13.3875 49.1831 14.2465 50.4314 15.3875L50.6024 15.5439C50.723 15.6585 50.8068 15.8001 50.8476 15.9525C50.8886 16.1058 50.8852 16.2666 50.8377 16.4185L51.3149 16.5678L50.8377 16.4185C50.7901 16.5705 50.6993 16.71 50.5723 16.8204Z" stroke="#FFDB2D"/>
<path d="M51.6469 7.69794L51.6474 7.69694L52.9182 5.28631C53.017 5.10152 53.1652 4.95666 53.3397 4.86757C53.5141 4.77852 53.7085 4.74824 53.8977 4.779C54.087 4.8098 54.2661 4.90101 54.4096 5.04446C54.5528 5.18753 54.6535 5.37572 54.6948 5.58523L54.8611 6.50486L54.861 6.50486L54.8617 6.50831C55.197 8.29138 55.1443 10.1307 54.7076 11.8893C54.271 13.6479 53.462 15.2794 52.3421 16.6631L52.3421 16.6631L52.3396 16.6662L52.1822 16.864C52.0657 17.0073 51.916 17.1115 51.7513 17.1683C51.5862 17.2252 51.4101 17.2332 51.2415 17.1917C51.0728 17.1502 50.9154 17.06 50.788 16.928C50.6605 16.796 50.5681 16.6273 50.5238 16.4395C49.8347 13.4803 50.2365 10.3587 51.6469 7.69794Z" stroke="#FFDB2D"/>
<g filter="url(#filter0_d)">
<rect x="71.1886" y="39" width="136" height="92" rx="4" transform="rotate(10.768 71.1886 39)" fill="#C4C4C4"/>
</g>
<g filter="url(#filter1_d)">
<path d="M126.455 111.037L76.5982 42.6391L198.629 66.8243L126.455 111.037Z" fill="#C4C4C4"/>
</g>
<defs>
<filter id="filter0_d" x="42" y="33" width="174.794" height="139.789" filterUnits="userSpaceOnUse" color-interpolation-filters="sRGB">
<feFlood flood-opacity="0" result="BackgroundImageFix"/>
<feColorMatrix in="SourceAlpha" type="matrix" values="0 0 0 0 0 0 0 0 0 0 0 0 0 0 0 0 0 0 127 0"/>
<feOffset dy="6"/>
<feGaussianBlur stdDeviation="6"/>
<feColorMatrix type="matrix" values="0 0 0 0 0.270833 0 0 0 0 0.0643229 0 0 0 0 0.0670764 0 0 0 0.15 0"/>
<feBlend mode="normal" in2="BackgroundImageFix" result="effect1_dropShadow"/>
<feBlend mode="normal" in="SourceGraphic" in2="effect1_dropShadow" result="shape"/>
</filter>
<filter id="filter1_d" x="53.4391" y="36.6392" width="157.19" height="104.49" filterUnits="userSpaceOnUse" color-interpolation-filters="sRGB">
<feFlood flood-opacity="0" result="BackgroundImageFix"/>
<feColorMatrix in="SourceAlpha" type="matrix" values="0 0 0 0 0 0 0 0 0 0 0 0 0 0 0 0 0 0 127 0"/>
<feOffset dy="6"/>
<feGaussianBlur stdDeviation="6"/>
<feColorMatrix type="matrix" values="0 0 0 0 0.270833 0 0 0 0 0.0643229 0 0 0 0 0.0670764 0 0 0 0.15 0"/>
<feBlend mode="normal" in2="BackgroundImageFix" result="effect1_dropShadow"/>
<feBlend mode="normal" in="SourceGraphic" in2="effect1_dropShadow" result="shape"/>
</filter>
</defs>
</svg>
