<svg width="24" height="24" viewBox="0 0 24 24" fill="none" xmlns="http://www.w3.org/2000/svg">
<path d="M12.9375 24C12.2812 24 11.625 24 10.9688 24C10.8281 23.9016 10.6594 23.9344 10.5047 23.9109C10.1484 23.8547 9.78281 23.8219 9.41719 23.7047C9.41719 20.6578 9.41719 17.625 9.41719 14.5687C6.36094 14.5687 3.32813 14.5687 0.290625 14.5687C0.20625 14.3109 0.192188 14.0625 0.135938 13.8187C0.0796875 13.5609 0.117188 13.2797 0 13.0312C0 12.3422 0 11.6578 0 10.9688C0.0984375 10.8281 0.065625 10.6594 0.0890625 10.5047C0.145313 10.1484 0.178125 9.78281 0.295313 9.41719C3.34219 9.41719 6.375 9.41719 9.42656 9.41719C9.42656 6.36094 9.42656 3.32813 9.42656 0.290625C9.68438 0.20625 9.93281 0.1875 10.1766 0.135938C10.4531 0.075 10.7437 0.107812 11.0109 0C11.6672 0 12.3234 0 12.9797 0C13.1391 0.0984375 13.3219 0.065625 13.4906 0.0890625C13.8469 0.145313 14.2125 0.178125 14.5781 0.295313C14.5781 3.34219 14.5781 6.375 14.5781 9.42656C17.6344 9.42656 20.6672 9.42656 23.7047 9.42656C23.7938 9.67969 23.8078 9.93281 23.8594 10.1719C23.925 10.4625 23.8922 10.7719 23.9953 11.0578C23.9953 11.7 23.9953 12.3375 23.9953 12.9797C23.9203 13.0172 23.9531 13.0875 23.9437 13.1437C23.8875 13.6172 23.8359 14.0859 23.7047 14.5687C20.6625 14.5687 17.6297 14.5687 14.5687 14.5687C14.5687 17.6297 14.5687 20.6625 14.5687 23.7188C14.3156 23.7656 14.0766 23.8031 13.8422 23.85C13.5469 23.925 13.2328 23.8969 12.9375 24Z" fill="#CE162E"/>
<path d="M21.3422 19.5328C19.9687 21.2156 18.2953 22.4343 16.275 23.2171C16.275 21.1359 16.275 19.0828 16.275 16.9968C17.9672 17.8453 19.6406 18.6796 21.3422 19.5328Z" fill="#02257A"/>
<path d="M22.7297 17.372C22.0078 17.011 21.3141 16.6595 20.6203 16.3126C20.625 16.3032 20.625 16.2892 20.6297 16.2798C21.4781 16.2798 22.3266 16.2798 23.1984 16.2798C23.0859 16.6595 22.9125 17.0063 22.7297 17.372Z" fill="#CE162E"/>
<path d="M7.72968 0.778076C7.72968 2.86401 7.72968 4.91714 7.72968 7.00308C6.03281 6.15464 4.35937 5.31558 2.65781 4.46714C4.03124 2.78901 5.69999 1.57026 7.72968 0.778076Z" fill="#02257A"/>
<path d="M0.792175 7.725C0.928113 7.34531 1.07811 6.98906 1.27499 6.63281C1.9828 6.98906 2.67655 7.33594 3.37499 7.68281C3.3703 7.69687 3.36561 7.71094 3.36092 7.72031C2.51717 7.725 1.66874 7.725 0.792175 7.725Z" fill="#CE162E"/>
<path d="M16.2703 7.00767C16.2703 4.92173 16.2703 2.87329 16.2703 0.787354C18.2906 1.56548 19.9594 2.78892 21.3422 4.47173C19.65 5.31548 17.9766 6.15454 16.2703 7.00767Z" fill="#02257A"/>
<path d="M21.8531 5.16089C22.2 5.62495 22.4719 6.11245 22.725 6.61402C22.5562 6.75933 22.3594 6.82496 22.1812 6.91402C21.675 7.17183 21.1641 7.42496 20.6531 7.67808C20.5922 7.7109 20.5266 7.73902 20.4562 7.73902C19.2469 7.73902 18.0375 7.73902 16.8047 7.68746C18.4828 6.84839 20.1609 6.00933 21.8531 5.16089Z" fill="#CE162E"/>
<path d="M2.65314 19.5328C4.35939 18.6797 6.03283 17.8406 7.72971 16.9922C7.72971 19.0828 7.72971 21.1312 7.72971 23.2172C5.70939 22.4391 4.04064 21.2156 2.65314 19.5328Z" fill="#02257A"/>
<path d="M7.09689 16.3498C5.46095 17.2029 3.80158 17.9998 2.14689 18.8436C1.80939 18.3701 1.52345 17.892 1.27032 17.367C1.75314 17.1232 2.24533 16.9123 2.69533 16.6451C3.22033 16.3311 3.76408 16.2373 4.36877 16.2607C5.26408 16.2936 6.16408 16.2701 7.06408 16.2701C7.07346 16.2936 7.08283 16.3217 7.09689 16.3498Z" fill="#CE162E"/>
</svg>
