<svg width="24" height="24" viewBox="0 0 24 24" fill="none" xmlns="http://www.w3.org/2000/svg">
<path d="M12.9375 24C12.2812 24 11.625 24 10.9688 24C10.8281 23.9016 10.6594 23.9344 10.5047 23.9109C10.1484 23.8547 9.78281 23.8219 9.41719 23.7047C9.41719 20.6578 9.41719 17.625 9.41719 14.5687C6.36094 14.5687 3.32813 14.5687 0.290625 14.5687C0.20625 14.3109 0.192188 14.0625 0.135938 13.8187C0.0796875 13.5609 0.117188 13.2797 0 13.0312C0 12.3422 0 11.6578 0 10.9688C0.0984375 10.8281 0.065625 10.6594 0.0890625 10.5047C0.145313 10.1484 0.178125 9.78281 0.295313 9.41719C3.34219 9.41719 6.375 9.41719 9.42656 9.41719C9.42656 6.36094 9.42656 3.32813 9.42656 0.290625C9.68438 0.20625 9.93281 0.1875 10.1766 0.135938C10.4531 0.075 10.7437 0.107812 11.0109 0C11.6672 0 12.3234 0 12.9797 0C13.1391 0.0984375 13.3219 0.065625 13.4906 0.0890625C13.8469 0.145313 14.2125 0.178125 14.5781 0.295313C14.5781 3.34219 14.5781 6.375 14.5781 9.42656C17.6344 9.42656 20.6672 9.42656 23.7047 9.42656C23.7938 9.67969 23.8078 9.93281 23.8594 10.1719C23.925 10.4625 23.8922 10.7719 23.9953 11.0578C23.9953 11.7 23.9953 12.3375 23.9953 12.9797C23.9203 13.0172 23.9531 13.0875 23.9437 13.1437C23.8875 13.6172 23.8359 14.0859 23.7047 14.5687C20.6625 14.5687 17.6297 14.5687 14.5687 14.5687C14.5687 17.6297 14.5687 20.6625 14.5687 23.7188C14.3156 23.7656 14.0766 23.8031 13.8422 23.85C13.5469 23.925 13.2328 23.8969 12.9375 24Z" fill="#CE162E"/>
</svg>
