<svg width="24" height="24" viewBox="0 0 24 24" fill="none" xmlns="http://www.w3.org/2000/svg">
<circle cx="12" cy="12" r="12" fill="white"/>
<path d="M0 12.4688C0 12.2204 0 11.9672 0 11.7188C0.0890625 11.5782 0.0328125 11.4282 0.0375 11.2782C0.0375 11.175 0.0375 11.0719 0.0375 10.9641C0.103125 10.4485 0.145313 9.93286 0.295313 9.41255C3.34219 9.41255 6.375 9.41255 9.43125 9.41255C9.43125 6.3563 9.43125 3.32349 9.43125 0.276611C9.95156 0.154736 10.4625 0.0937988 10.9688 0.0328613C11.0719 0.0328613 11.175 0.0328613 11.2734 0.0375488C11.3625 0.0375488 11.4516 0.0656738 11.5312 -0.00463867C11.7797 -0.00463867 12.0328 -0.00463867 12.2812 -0.00463867C12.45 0.0891113 12.6281 0.0234863 12.8016 0.0375488C12.8766 0.0375488 12.9516 0.0328613 13.0312 0.0328613C13.5469 0.0984863 14.0672 0.135986 14.5828 0.290674C14.5828 3.33755 14.5828 6.37036 14.5828 9.42661C17.6391 9.42661 20.6719 9.42661 23.7141 9.42661C23.8406 9.94224 23.9016 10.4532 23.9578 10.9641C23.9578 11.0391 23.9531 11.1141 23.9531 11.1938C23.9672 11.3672 23.9016 11.55 23.9953 11.7141C23.9953 11.9016 23.9953 12.0891 23.9953 12.2766C23.9016 12.4454 23.9672 12.6235 23.9531 12.7969C23.9578 12.8579 23.9578 12.9188 23.9625 12.9797C23.8969 13.5094 23.8547 14.0438 23.7047 14.5782C20.6578 14.5782 17.625 14.5782 14.5687 14.5782C14.5687 17.6344 14.5687 20.6672 14.5687 23.7094C14.0484 23.8407 13.5375 23.8969 13.0312 23.9532C12.9844 23.9485 12.9375 23.9485 12.8859 23.9438C12.7453 23.9625 12.6 23.9016 12.4688 23.9907C12.2203 23.9907 11.9672 23.9907 11.7188 23.9907C11.6062 23.9063 11.4797 23.9532 11.3531 23.9579C11.2219 23.9579 11.0953 23.9579 10.9641 23.9532C10.4484 23.8875 9.93281 23.8454 9.4125 23.7001C9.4125 20.6485 9.4125 17.6157 9.4125 14.5641C6.35625 14.5641 3.32344 14.5641 0.28125 14.5641C0.15 14.0438 0.09375 13.5329 0.0375 13.0266C0.0375 12.9235 0.0375 12.8204 0.0375 12.7219C0.0421875 12.6375 0.0703125 12.5438 0 12.4688Z" fill="#4F4F4F"/>
<path d="M23.9578 12.8016C23.9719 12.6281 23.9063 12.4453 24 12.2812C24 12.4547 24 12.6234 24 12.7969C23.9859 12.7922 23.9672 12.7922 23.9578 12.8016Z" fill="#515151"/>
<path d="M24 11.7188C23.9063 11.55 23.9719 11.3719 23.9578 11.1985L23.9766 11.2079L24 11.2032C24 11.3766 24 11.5454 24 11.7188Z" fill="#515151"/>
<path d="M12.8016 0.0421875C12.6281 0.028125 12.45 0.09375 12.2812 0C12.4547 0 12.6234 0 12.7969 0C12.7969 0.0140625 12.8016 0.028125 12.8016 0.0421875Z" fill="#515151"/>
<path d="M0.0375 11.2783C0.0328125 11.4283 0.0890625 11.5783 0 11.7189C0 11.5783 0 11.4377 0 11.2971C0.0140625 11.2924 0.0234375 11.2877 0.0375 11.2783Z" fill="#515151"/>
<path d="M12.4688 24.0002C12.6 23.9112 12.75 23.9721 12.8859 23.9534C12.8812 23.9581 12.8766 23.9674 12.8766 23.9721C12.8766 23.9815 12.8859 23.9909 12.8906 24.0049C12.75 24.0002 12.6094 24.0002 12.4688 24.0002Z" fill="#515151"/>
<path d="M11.3906 24.0003C11.3766 23.9909 11.3672 23.9769 11.3531 23.9675C11.475 23.9628 11.6016 23.9206 11.7187 24.0003C11.6109 24.0003 11.4984 24.0003 11.3906 24.0003Z" fill="#515151"/>
<path d="M11.2734 0.0421875C11.2781 0.028125 11.2875 0.0140625 11.2969 0C11.3766 0 11.4516 0 11.5312 0C11.4562 0.0703125 11.3625 0.0421875 11.2734 0.0421875Z" fill="#515151"/>
<path d="M0.0421875 12.7266C0.028125 12.7172 0.0140625 12.7125 0 12.7031C0 12.6234 0 12.5484 0 12.4688C0.0703125 12.5438 0.0421875 12.6375 0.0421875 12.7266Z" fill="#515151"/>
<path d="M5.29688 5.80771C5.23594 5.7749 5.17969 5.74678 5.11876 5.71396C5.06719 5.68584 5.02032 5.6624 4.96876 5.63428C4.20938 5.2499 3.45469 4.86553 2.66251 4.46709C4.02188 2.78897 5.70001 1.5749 7.72032 0.782715C7.72032 2.85928 7.72032 4.91709 7.72032 6.99365C6.98907 6.63271 6.26719 6.27646 5.54063 5.92022C5.46094 5.88272 5.38126 5.84521 5.29688 5.80771Z" fill="#242424"/>
<path d="M3.47345 7.72974C2.52189 7.72974 1.67345 7.72974 0.801575 7.72974C0.914075 7.34536 1.0922 6.99849 1.27032 6.62817C1.98282 6.98442 2.68126 7.33599 3.47345 7.72974Z" fill="#515151"/>
<path d="M21.3422 19.533C19.9688 21.2111 18.3 22.4298 16.2797 23.2173C16.2797 21.1408 16.2797 19.0876 16.2797 17.0017C17.9672 17.8455 19.6406 18.6798 21.3422 19.533Z" fill="#242424"/>
<path d="M20.6719 16.3642C20.6531 16.3407 20.6297 16.3173 20.5922 16.2798C21.4641 16.2798 22.3219 16.2798 23.2266 16.2798C23.0672 16.636 22.9172 16.9782 22.7578 17.3157C22.7438 17.3392 22.6781 17.3392 22.6359 17.3532C22.575 17.3204 22.5141 17.2876 22.4531 17.2501C22.4063 17.1892 22.3406 17.1657 22.2656 17.1563C22.2047 17.1235 22.1391 17.0954 22.0781 17.0626C22.0453 17.0485 22.0172 17.0298 21.9844 17.0157C21.6844 16.8657 21.3844 16.7157 21.0891 16.5657C21.0422 16.5423 21 16.5235 20.9531 16.5001C20.8922 16.4673 20.8266 16.4345 20.7656 16.4017C20.7328 16.3923 20.7047 16.3782 20.6719 16.3642Z" fill="#515151"/>
<path d="M7.08751 17.3017C7.11564 17.2876 7.14845 17.2736 7.17658 17.2595C7.27501 17.2126 7.36876 17.1611 7.4672 17.1142C7.48126 17.1189 7.49533 17.1142 7.50001 17.1001C7.54689 17.0767 7.59376 17.0486 7.64533 17.0251C7.7672 17.0064 7.73908 17.1001 7.73908 17.1611C7.73908 19.1673 7.73908 21.1783 7.73908 23.222C5.71407 22.4392 4.04063 21.2158 2.66251 19.5423C3.74532 18.9939 4.8047 18.4548 5.86407 17.9158C6.08439 17.8033 6.30001 17.6955 6.52032 17.583C6.55314 17.5689 6.58595 17.5548 6.61407 17.5408C6.76876 17.4611 6.92814 17.3814 7.08751 17.3017Z" fill="#242424"/>
<path d="M7.03124 16.2562C7.09218 16.2609 7.15781 16.2609 7.21874 16.2656C7.19062 16.3546 7.10156 16.3593 7.04062 16.3921C6.53906 16.6546 6.03749 16.9078 5.53593 17.1656C5.50312 17.1796 5.47499 17.1937 5.44218 17.2124C4.73437 17.5687 4.02656 17.9249 3.31874 18.2812C3.30468 18.2765 3.29062 18.2812 3.28124 18.2953C3.12656 18.3749 2.97187 18.4499 2.81718 18.5296C2.78437 18.5437 2.75624 18.5578 2.72343 18.5718C2.50781 18.6187 2.34374 18.8109 2.10937 18.8109C1.81406 18.3374 1.49999 17.8781 1.27499 17.3624C1.30312 17.339 1.33124 17.3203 1.35937 17.2968C1.39218 17.2828 1.42031 17.2687 1.45312 17.2546C1.60781 17.1749 1.76249 17.0953 1.92187 17.0156C2.02968 16.9968 2.12343 16.9499 2.20312 16.8749C2.23593 16.8609 2.26406 16.8421 2.29687 16.8281C2.42343 16.7671 2.54531 16.7015 2.67187 16.6406C2.74687 16.6031 2.82656 16.5656 2.90156 16.5328C2.98124 16.4906 3.06093 16.4484 3.14062 16.4062C3.20156 16.3734 3.26718 16.3453 3.32812 16.3125C3.75468 16.2046 4.19062 16.2843 4.62187 16.2656C4.94062 16.2515 5.25937 16.2562 5.57343 16.2562C5.71406 16.2562 5.85468 16.2562 5.99531 16.2562C6.12187 16.2562 6.24374 16.2562 6.37031 16.2562C6.41718 16.2562 6.46406 16.2562 6.51093 16.2562C6.65156 16.2562 6.79218 16.2562 6.93281 16.2562C6.97031 16.2515 6.99843 16.2515 7.03124 16.2562Z" fill="#515151"/>
<path d="M16.2656 0.796875C17.5828 1.26094 18.7453 1.9875 19.8047 2.88281C20.3109 3.30938 20.775 3.78281 21.2016 4.29375C21.2484 4.35469 21.3188 4.40156 21.3141 4.49063C21.0984 4.59844 20.8828 4.71094 20.6672 4.81875C20.6156 4.84219 20.5688 4.86563 20.5172 4.88906C20.3766 4.95938 20.2406 5.02969 20.1 5.1C20.0391 5.13281 19.9734 5.16563 19.9125 5.19844C19.5984 5.35313 19.2891 5.50781 18.975 5.6625C18.9422 5.68125 18.9141 5.69531 18.8813 5.71406C18.5672 5.86875 18.2578 6.02812 17.9438 6.18281C17.8969 6.20156 17.85 6.225 17.8031 6.24375C17.6438 6.32344 17.4844 6.40313 17.325 6.48281C17.2781 6.51094 17.2313 6.53438 17.1844 6.5625C17.025 6.64219 16.8609 6.72656 16.7016 6.80625L16.6875 6.80156L16.6781 6.81562C16.5469 6.87187 16.4109 6.93281 16.2656 6.99375C16.2563 6.90469 16.2516 6.82969 16.2469 6.75C16.2563 4.76719 16.2609 2.77969 16.2656 0.796875Z" fill="#242424"/>
<path d="M21.8906 5.19385C22.1812 5.67197 22.5141 6.12666 22.7203 6.65166C22.1156 6.95166 21.5109 7.26104 20.9016 7.55635C20.7375 7.63604 20.5875 7.74385 20.3812 7.74385C19.2516 7.73448 18.1172 7.73916 16.9875 7.73916C16.9266 7.73916 16.8516 7.78135 16.8 7.69229C18.1828 6.99854 19.5609 6.30479 20.9437 5.6251C21.2531 5.46572 21.5437 5.25947 21.8906 5.19385Z" fill="#515151"/>
</svg>
