<svg width="24" height="24" viewBox="0 0 24 24" fill="none" xmlns="http://www.w3.org/2000/svg">
<path d="M24 11.0623C24 11.7045 24 12.342 24 12.9842C23.9062 13.1436 23.9297 13.3217 23.9109 13.4952C23.7797 14.4655 23.5641 15.4123 23.1891 16.3217C23.1047 16.317 23.0156 16.3123 22.9313 16.3123C15.6422 16.3123 8.35781 16.3123 1.06875 16.3123C0.984375 16.3123 0.895312 16.317 0.810937 16.3217C0.478125 15.5202 0.28125 14.6858 0.135938 13.8373C0.0890625 13.5702 0.117188 13.2842 0 13.0311C0 12.3608 0 11.6858 0 11.0155C0.09375 10.8561 0.0703125 10.6733 0.09375 10.4998C0.225 9.52954 0.440625 8.58266 0.810937 7.67798C0.895312 7.67798 0.984375 7.68267 1.06875 7.68267C8.34844 7.68267 15.6281 7.68267 22.9078 7.68267C23.0016 7.68267 23.0953 7.67798 23.1891 7.67798C23.5172 8.48423 23.7188 9.3186 23.8641 10.1764C23.9156 10.4717 23.8969 10.7764 24 11.0623Z" fill="#DC0000"/>
<path d="M0.810944 16.3219C0.895319 16.3172 0.984381 16.3125 1.06876 16.3125C8.35782 16.3125 15.6422 16.3125 22.9313 16.3125C23.0156 16.3125 23.1047 16.3172 23.1891 16.3219C23.1703 16.3828 23.1516 16.4391 23.1281 16.4953C21.3234 20.6203 18.2203 23.0859 13.7813 23.8641C13.5 23.9109 13.2141 23.8922 12.9422 23.9953C12.2859 23.9953 11.6297 23.9953 10.9734 23.9953C10.9547 23.9344 10.8984 23.9484 10.8563 23.9437C10.5844 23.9062 10.3125 23.8828 10.0453 23.8359C7.28438 23.3578 4.95469 22.0828 3.07032 20.0016C2.08594 18.9234 1.32657 17.7 0.810944 16.3219Z" fill="#FECD00"/>
<path d="M23.1891 7.67813C23.0953 7.67813 23.0016 7.68281 22.9078 7.68281C15.6281 7.68281 8.34844 7.68281 1.06876 7.68281C0.984381 7.68281 0.895319 7.67813 0.810944 7.67813C0.904694 7.38281 1.03126 7.09688 1.17188 6.82031C3.14532 2.95781 6.26719 0.69375 10.575 0.084375C10.7203 0.065625 10.8797 0.09375 11.0156 0C11.6391 0 12.2672 0 12.8906 0C12.9281 0.0796875 12.9984 0.0375 13.0547 0.046875C13.3547 0.0890625 13.6594 0.107813 13.9594 0.159375C16.7203 0.642188 19.05 1.9125 20.9344 3.99375C21.9188 5.07656 22.6781 6.30469 23.1891 7.67813Z" fill="#010000"/>
</svg>
