<svg width="24" height="24" viewBox="0 0 24 24" fill="none" xmlns="http://www.w3.org/2000/svg">
<path d="M0 12.4689C0 12.2204 0 11.9673 0 11.7189C0.0140625 11.6064 0.028125 11.4985 0.0421875 11.386C0.0421875 11.3251 0.0375 11.2595 0.0375 11.1985C0.0375 11.1235 0.0375 11.0439 0.0421875 10.9689C0.154688 9.82041 0.389062 8.7001 0.834375 7.63135C0.914062 7.6501 0.99375 7.6876 1.07344 7.6876C8.44688 7.6876 15.8203 7.6876 23.1937 7.6876C23.6297 8.75635 23.8641 9.87198 23.9625 11.0157C23.9625 11.0767 23.9625 11.1423 23.9625 11.2032C23.9625 11.2829 23.9625 11.3579 23.9625 11.4376C23.9766 11.5314 23.9906 11.6298 24.0047 11.7235C24.0047 11.911 24.0047 12.0985 24.0047 12.286C23.9906 12.3985 23.9766 12.5064 23.9625 12.6189C23.9625 12.6798 23.9625 12.7454 23.9672 12.8064C23.9672 12.886 23.9672 12.961 23.9625 13.0407C23.8406 14.1751 23.6484 15.2907 23.1656 16.3407C23.0578 16.336 22.95 16.3267 22.8375 16.3267C15.4922 16.322 8.14687 16.322 0.801563 16.3173C0.389063 15.2626 0.145313 14.1704 0.0421875 13.0407C0.0421875 12.9939 0.0421875 12.947 0.0421875 12.9001C0.0421875 12.8392 0.0421875 12.7782 0.0421875 12.7126C0.028125 12.6282 0.0140625 12.5485 0 12.4689Z" fill="#424242"/>
<path d="M0.801575 16.3079C8.14689 16.3079 15.4922 16.3125 22.8375 16.3172C22.9453 16.3172 23.0531 16.3266 23.1656 16.3313C23.1563 16.3829 23.1563 16.4438 23.1328 16.4907C21.6141 20.0391 19.0266 22.4063 15.3234 23.5266C14.6672 23.7235 13.9828 23.8454 13.3125 24C13.2656 24 13.2188 24 13.1719 24C13.0781 24 12.9844 24 12.8906 24C12.3281 24 11.7656 24 11.2031 24C11.0766 24 10.9547 24 10.8281 24C10.7953 24 10.7672 24 10.7344 24C10.6641 23.9672 10.5984 23.9157 10.5234 23.911C6.55314 23.6625 2.03907 20.1375 0.801575 16.3079Z" fill="#C5C5C5"/>
<path d="M23.1891 7.68281C15.8156 7.68281 8.44218 7.68281 1.06874 7.68281C0.989056 7.68281 0.909369 7.64531 0.829681 7.62656C2.74218 3.13594 6.13124 0.623437 10.9687 0.0421875C11.0156 0.0421875 11.0625 0.0421875 11.1094 0.0421875C11.1703 0.0421875 11.2312 0.0421875 11.2969 0.0421875C11.4375 0.028125 11.5828 0.0140625 11.7234 0C11.9109 0 12.0984 0 12.2859 0C12.3984 0.0140625 12.5062 0.028125 12.6187 0.0421875C12.6797 0.0421875 12.7453 0.0421875 12.8062 0.0375C12.8812 0.0375 12.9609 0.0375 13.0359 0.0375C17.5641 0.417188 21.8812 3.66094 23.1891 7.68281Z" fill="black"/>
<path d="M11.7187 0C11.5781 0.0140625 11.4328 0.028125 11.2922 0.0421875C11.2969 0.028125 11.2969 0.0140625 11.2969 0C11.4375 0 11.5781 0 11.7187 0Z" fill="#505050"/>
<path d="M12.6141 0.0421875C12.5016 0.028125 12.3938 0.0140625 12.2812 0C12.3891 0 12.5016 0 12.6094 0C12.6094 0.0140625 12.6094 0.028125 12.6141 0.0421875Z" fill="#303030"/>
<path d="M0.0421875 11.386C0.028125 11.4985 0.0140625 11.6063 0 11.7188C0 11.611 0 11.4985 0 11.3907C0.0140625 11.3907 0.028125 11.386 0.0421875 11.386Z" fill="#666666"/>
<path d="M23.9578 12.6141C23.9719 12.5016 23.9859 12.3938 24 12.2812C24 12.3891 24 12.5016 24 12.6094C23.9859 12.6094 23.9719 12.6094 23.9578 12.6141Z" fill="#666666"/>
<path d="M24 11.7188C23.9859 11.625 23.9719 11.5266 23.9578 11.4329C23.9719 11.4329 23.9859 11.4375 24 11.4375C24 11.5313 24 11.625 24 11.7188Z" fill="#666666"/>
<path d="M13.0312 0C13.0266 0.0140625 13.0266 0.028125 13.0312 0.0421875C12.9562 0.0421875 12.8766 0.0421875 12.8016 0.0421875C12.7969 0.028125 12.7969 0.0140625 12.7969 0C12.8766 0 12.9516 0 13.0312 0Z" fill="#B6B6B6"/>
<path d="M0 10.9688C0.0140625 10.9688 0.028125 10.9688 0.0421875 10.9688C0.0421875 11.0438 0.0421875 11.1234 0.0375 11.1984C0.0234375 11.1984 0.009375 11.1984 0 11.2031C0 11.1234 0 11.0484 0 10.9688Z" fill="#CFCFCF"/>
<path d="M24 11.4375C23.9859 11.4375 23.9719 11.4329 23.9578 11.4329C23.9578 11.3532 23.9578 11.2782 23.9578 11.1985C23.9719 11.1985 23.9859 11.1985 24 11.2032C24 11.2829 24 11.3579 24 11.4375Z" fill="#8F8F8F"/>
<path d="M0 12.4688C0.0140625 12.5484 0.028125 12.6281 0.0421875 12.7078C0.028125 12.7078 0.0140625 12.7031 0 12.7031C0 12.6234 0 12.5484 0 12.4688Z" fill="#7D7D7D"/>
<path d="M24 13.0313H23.9766L23.9578 13.0359C23.9578 12.9563 23.9578 12.8813 23.9625 12.8016C23.9766 12.8016 23.9906 12.8016 24 12.7969C24 12.8766 24 12.9516 24 13.0313Z" fill="#C5C5C5"/>
<path d="M11.2969 0C11.2969 0.0140625 11.2969 0.028125 11.2922 0.0421875C11.2312 0.0421875 11.1703 0.0421875 11.1047 0.0421875C11.1094 0.028125 11.1094 0.0140625 11.1094 0C11.1703 0 11.2359 0 11.2969 0Z" fill="#8F8F8F"/>
<path d="M12.7969 0C12.7969 0.0140625 12.7969 0.028125 12.8016 0.0375C12.7406 0.0375 12.675 0.0375 12.6141 0.0421875C12.6094 0.028125 12.6094 0.0140625 12.6094 0C12.6703 0 12.7359 0 12.7969 0Z" fill="#666666"/>
<path d="M24 11.2032C23.9859 11.2032 23.9719 11.1985 23.9578 11.1985C23.9578 11.1375 23.9578 11.0719 23.9578 11.011C23.9719 11.011 23.9859 11.011 23.9953 11.0157C24 11.0766 24 11.1422 24 11.2032Z" fill="#C5C5C5"/>
<path d="M0 11.2032C0.0140625 11.1985 0.0234375 11.1938 0.0375 11.1985C0.0375 11.2594 0.0421875 11.325 0.0421875 11.386C0.028125 11.386 0.0140625 11.3907 0 11.3907C0 11.3297 0 11.2641 0 11.2032Z" fill="#939393"/>
<path d="M24 12.7969C23.9859 12.8016 23.9719 12.8016 23.9625 12.8016C23.9625 12.7406 23.9625 12.675 23.9578 12.6141C23.9719 12.6141 23.9859 12.6094 24 12.6094C24 12.6703 24 12.7359 24 12.7969Z" fill="#939393"/>
<path d="M0 12.7031C0.0140625 12.7031 0.028125 12.7078 0.0421875 12.7078C0.0421875 12.7688 0.0421875 12.8297 0.0421875 12.8953C0.028125 12.8953 0.0140625 12.8953 0 12.8953C0 12.8297 0 12.7641 0 12.7031Z" fill="#ABABAB"/>
<path d="M11.1094 4.88283e-05C11.1094 0.0141113 11.1094 0.0281738 11.1047 0.0375488C11.0578 0.0375488 11.0109 0.0375488 10.9641 0.0375488C10.9641 0.0234863 10.9687 0.00942383 10.9641 -0.00463867C11.0156 4.88283e-05 11.0625 4.88283e-05 11.1094 4.88283e-05Z" fill="#CFCFCF"/>
<path d="M0 12.8906C0.0140625 12.8906 0.028125 12.8906 0.0421875 12.8906C0.0421875 12.9375 0.0421875 12.9844 0.0421875 13.0312C0.028125 13.0312 0.0140625 13.0312 0 13.0312C0 12.9844 0 12.9375 0 12.8906Z" fill="#CFCFCF"/>
</svg>
