<svg width="97" height="86" viewBox="0 0 97 86" fill="none" xmlns="http://www.w3.org/2000/svg">
<path d="M2 2.42651H16.2389L32.1827 53.8764H84.0072L95.3991 20.3338L21.6327 19.8321" stroke="#828282" stroke-width="3" stroke-linecap="round" stroke-linejoin="round"/>
<path d="M94.4864 65.6501C94.4864 65.6501 94.4864 60.833 88.5633 60.6444C82.6401 60.4557 29.3439 60.833 29.3439 60.833C28.1276 60.1538 27.1142 59.1638 26.4076 57.9646C25.7009 56.7654 25.3265 55.4002 25.3228 54.0089H35.7777" stroke="#828282" stroke-width="3" stroke-linecap="round" stroke-linejoin="round"/>
<path d="M78.8843 82.4265C82.944 82.4265 86.235 79.1412 86.235 75.0886C86.235 71.0359 82.944 67.7506 78.8843 67.7506C74.8247 67.7506 71.5337 71.0359 71.5337 75.0886C71.5337 79.1412 74.8247 82.4265 78.8843 82.4265Z" stroke="#828282" stroke-width="6" stroke-linecap="round" stroke-linejoin="round"/>
<path d="M41.4874 82.4265C45.547 82.4265 48.838 79.1412 48.838 75.0886C48.838 71.0359 45.547 67.7506 41.4874 67.7506C37.4277 67.7506 34.1367 71.0359 34.1367 75.0886C34.1367 79.1412 37.4277 82.4265 41.4874 82.4265Z" stroke="#828282" stroke-width="6" stroke-linecap="round" stroke-linejoin="round"/>
<path d="M52.5975 41.322C51.0301 42.8788 51.0214 45.4114 52.5782 46.9789C54.1349 48.5463 56.6675 48.555 58.235 46.9982L52.5975 41.322ZM91.6352 13.8259C93.2027 12.2691 93.2113 9.73649 91.6546 8.16905C90.0978 6.60162 87.5652 6.59295 85.9978 8.14969L91.6352 13.8259ZM58.235 46.9982L91.6352 13.8259L85.9978 8.14969L52.5975 41.322L58.235 46.9982Z" fill="#F15B5D"/>
<path d="M58.7057 8.22495C57.1489 6.65752 54.6163 6.64885 53.0488 8.20559C51.4814 9.76233 51.4727 12.295 53.0295 13.8624L58.7057 8.22495ZM86.2018 47.2627C87.7586 48.8301 90.2912 48.8388 91.8587 47.282C93.4261 45.7253 93.4348 43.1926 91.878 41.6252L86.2018 47.2627ZM53.0295 13.8624L86.2018 47.2627L91.878 41.6252L58.7057 8.22495L53.0295 13.8624Z" fill="#F15B5D"/>
</svg>
