<svg width="64" height="63" viewBox="0 0 64 63" fill="none" xmlns="http://www.w3.org/2000/svg">
<circle cx="30.9706" cy="30.9724" r="28.8709" fill="white"/>
<path d="M29.9995 62.993H33.0704C33.7711 62.9142 34.4719 62.8355 35.1727 62.7646C37.59 62.5205 39.9206 61.9458 42.1962 61.119C48.6213 58.7726 53.7472 54.749 57.5975 49.1113C60.4006 45.0169 62.1014 40.4815 62.7313 35.5603C63.3534 30.7337 62.9045 26.0014 61.3376 21.3952C59.881 17.104 57.5975 13.3009 54.4952 9.98596C51.1961 6.46633 47.2985 3.82858 42.8025 2.08845C39.7789 0.915239 36.6372 0.253832 33.3932 0.0569851C29.3618 -0.179232 25.4327 0.316823 21.606 1.58452C16.9367 3.13568 12.8502 5.64745 9.34631 9.10408C6.29912 12.1119 3.96844 15.6 2.33855 19.5527C1.33856 21.97 0.653533 24.4818 0.314956 27.0802C0.204721 27.8991 0.149604 28.7258 0.0629912 29.5447C0.0551173 29.6707 0.0236217 29.7967 0 29.9226V33.0722C0.070865 33.8123 0.133856 34.5525 0.228343 35.2926C0.795263 39.9382 2.31492 44.2531 4.81882 48.2216C7.71642 52.8278 11.5431 56.4498 16.2911 59.0797C19.8816 61.0717 23.724 62.3158 27.8185 62.7646C28.5429 62.8512 29.2751 62.9142 29.9995 62.993Z" fill="#FFDB2D"/>
<path d="M23.9286 42.5189C22.2917 42.5189 20.9673 43.7522 20.9673 45.2595C20.9673 46.7668 22.2917 48 23.9286 48C25.5655 48 26.9048 46.7668 26.9048 45.2595C26.9048 43.7522 25.5655 42.5189 23.9286 42.5189ZM38.8095 42.5189C37.1726 42.5189 35.8482 43.7522 35.8482 45.2595C35.8482 46.7668 37.1726 48 38.8095 48C40.4464 48 41.7857 46.7668 41.7857 45.2595C41.7857 43.7522 40.4464 42.5189 38.8095 42.5189ZM24.5122 35.6676H36.6518C37.7679 35.6676 38.75 35.1058 39.256 34.2562L45 24.6506L43.4419 24.1436L37.6829 33.7355H25.5655L18.6585 22H15V23.3351H17.9762L23.3333 33.7355L21.3244 37.0789C20.2381 38.9151 21.6667 41.1486 23.9286 41.1486H41.7857V39.5676H22.6829L24.5122 35.6676Z" fill="white"/>
<path d="M34.6995 24.3126C35.9419 26.3419 35.895 28.7654 34.8136 30.685C34.3088 31.571 33.1448 31.3325 32.2102 31.8996C31.0128 32.6307 30.0863 33.932 28.7914 33.8123C26.9076 33.6249 25.1029 32.5997 24.0403 30.877C22.8578 28.9499 22.8328 26.6739 23.7824 24.7997C24.2712 23.7964 25.9496 24.0298 26.9569 23.3886C28.0082 22.7323 28.3307 21.3194 29.4923 21.3376C31.5653 21.3616 33.5322 22.4294 34.6995 24.3126Z" fill="#F05A5C"/>
<path d="M26.3545 22.0727C26.3545 22.0727 24.0696 20.1563 25.0177 18.1352C25.9801 16.0847 27.0313 15.4284 27.0313 15.4284C27.0313 15.4284 28.761 17.6585 28.3682 19.3658C27.9753 21.0732 26.3545 22.0727 26.3545 22.0727Z" fill="#90C99F"/>
<path d="M25.741 22.4312C25.741 22.4312 24.5948 23.808 23.3389 23.2327C22.0831 22.6574 21.7083 22.0002 21.7083 22.0002C21.7083 22.0002 23.0639 20.9444 24.1104 21.1987C25.1425 21.4824 25.741 22.4312 25.741 22.4312Z" fill="#90C99F"/>
<path d="M40.615 27.041C40.7058 26.9478 40.8088 26.8226 40.8898 26.7073C41.7803 25.4383 41.569 23.6522 40.4034 22.634C39.0709 21.478 37.049 21.687 35.9917 23.0565C35.9794 23.0885 35.9451 23.1302 35.923 23.14C35.2189 24.1144 34.2228 24.8478 33.1089 25.3158C32.3704 25.6171 31.6982 26.1273 31.1781 26.8612C29.8166 28.7364 30.1285 31.4045 31.866 32.9367C33.8537 34.6756 36.8644 34.3719 38.4614 32.3127C39.0355 31.5813 39.3445 30.7292 39.4057 29.8548C39.4424 28.8059 39.8766 27.8189 40.615 27.041Z" fill="#D2E4A9"/>
<path d="M40.1261 23.0217C40.1261 23.0217 41.1589 21.0012 42.852 21.3617C44.5451 21.7222 45.2273 22.4255 45.2273 22.4255C45.2273 22.4255 43.8535 24.0944 42.5015 24.0855C41.1397 24.0546 40.1261 23.0217 40.1261 23.0217Z" fill="#90C99F"/>
<path d="M39.7359 22.3212C39.7359 22.3212 38.4673 21.6664 38.6781 20.5932C38.8988 19.5421 39.3404 19.1078 39.3404 19.1078C39.3404 19.1078 40.3834 19.9687 40.3982 20.8358C40.3811 21.6906 39.7359 22.3212 39.7359 22.3212Z" fill="#90C99F"/>
</svg>
