<svg width="129" height="135" viewBox="0 0 129 135" fill="none" xmlns="http://www.w3.org/2000/svg">
<path d="M54.9593 38.3846C57.8917 29.0456 71.1083 29.0456 74.0407 38.3846L75.2102 42.1092C76.519 46.2774 80.3821 49.1135 84.751 49.1135H89.2436C98.8479 49.1135 102.93 61.335 95.2529 67.1065L91.0366 70.2764C87.651 72.8217 86.2362 77.224 87.5051 81.2652L88.9757 85.9486C91.8876 95.2222 81.195 102.778 73.4257 96.9374L70.5093 94.7448C66.95 92.0689 62.0501 92.0688 58.4907 94.7448L55.5743 96.9374C47.805 102.778 37.1124 95.2222 40.0243 85.9486L41.4949 81.2652C42.7638 77.224 41.349 72.8217 37.9634 70.2764L33.7471 67.1065C26.0704 61.335 30.1521 49.1135 39.7564 49.1135H44.249C48.6179 49.1135 52.481 46.2774 53.7898 42.1092L54.9593 38.3846Z" fill="#FFDB2D"/>
<path d="M55.4272 30.9081C58.1938 21.9973 70.8062 21.9973 73.5728 30.9081L76.3195 39.7548C77.6833 44.1476 81.7476 47.1413 86.3473 47.1413H96.169C105.267 47.1414 109.161 58.6971 101.919 64.2037L93.2024 70.8311C89.6885 73.5029 88.2209 78.0872 89.5298 82.3029L92.6727 92.4259C95.414 101.255 85.2092 108.401 77.8501 102.805L70.8551 97.4866C67.0995 94.6311 61.9005 94.6311 58.1448 97.4866L51.1499 102.805C43.7908 108.401 33.586 101.255 36.3273 92.4259L39.4702 82.3029C40.7791 78.0872 39.3115 73.5029 35.7976 70.8311L27.0811 64.2037C19.8388 58.6971 23.733 47.1414 32.831 47.1413H42.6527C47.2524 47.1413 51.3167 44.1476 52.6805 39.7548L55.4272 30.9081Z" stroke="#FFDB2D"/>
<path d="M71.4239 33.5806C71.4159 33.5522 71.3846 33.5305 71.3663 33.5051L52.113 5.08532L34.7719 14.3017L34.5601 14.4143L26.8999 18.4859L36.0598 38.6191L37.9791 42.8795L38.1122 43.1726L41.265 50.1669C41.3226 50.2038 41.3741 50.2492 41.4178 50.3016C41.7715 50.9299 43.2342 50.8755 45.4109 50.2861C48.5266 49.4233 53.1008 47.4401 57.9769 44.7214C66.2611 40.093 72.2816 35.1115 71.4239 33.5806Z" fill="#F05A5C"/>
<path d="M52.1616 5.05252C51.3312 3.62645 45.0773 5.47617 38.1902 9.18687C31.3031 12.8976 26.3944 17.0624 27.2255 18.491C27.8886 19.6295 32.002 18.6807 37.1331 16.3667C38.4373 15.7808 39.8029 15.1068 41.197 14.3566C41.4961 14.196 41.7913 14.031 42.0845 13.8693C48.4968 10.2872 52.9555 6.41812 52.1616 5.05252Z" fill="#F15B5D"/>
<path d="M56.3151 11.8844C55.7834 10.8325 55.7019 9.6161 56.0867 8.47447L56.4333 7.47749C56.4705 7.36313 56.5444 7.26086 56.6448 7.18478C56.7453 7.10871 56.8672 7.06258 56.9938 7.05277C57.1205 7.04295 57.2456 7.06994 57.3519 7.12999C57.4582 7.19005 57.5404 7.28022 57.5873 7.38806L57.7295 7.70378C58.0165 8.34587 58.1422 9.04617 58.0973 9.75288C58.0523 10.4596 57.8379 11.1546 57.4698 11.7866L57.418 11.8746C57.3645 11.9719 57.2834 12.0544 57.1838 12.1124C57.0842 12.1705 56.9702 12.2019 56.855 12.2029C56.7398 12.2039 56.628 12.1746 56.5325 12.1182C56.437 12.0619 56.3616 11.9808 56.3151 11.8844Z" fill="#F05A5C"/>
<path d="M56.965 11.731C58.0425 11.1325 59.3054 10.9463 60.5018 11.2093L61.5453 11.4382C61.6624 11.4647 61.7677 11.5254 61.8471 11.6123C61.9264 11.6992 61.9761 11.808 61.9893 11.9243C62.0025 12.0405 61.9788 12.1585 61.9211 12.2625C61.8635 12.3665 61.7748 12.4515 61.6669 12.506L61.3543 12.6824C60.6954 13.01 59.9719 13.1912 59.2371 13.2127C58.5023 13.2341 57.775 13.0952 57.1087 12.8063L57.0174 12.7659C56.9149 12.7252 56.8269 12.6572 56.7632 12.5695C56.6996 12.4819 56.663 12.3782 56.6575 12.2703C56.652 12.1624 56.678 12.0546 56.7323 11.9593C56.7867 11.8639 56.8673 11.7848 56.965 11.731Z" fill="#F05A5C"/>
<path d="M29.806 15.2528C28.8645 15.7046 27.7893 15.8031 26.7928 15.5288L25.9252 15.2867C25.8298 15.2572 25.7464 15.2006 25.6858 15.1242C25.6252 15.0478 25.5901 14.9551 25.5852 14.8581C25.5803 14.7611 25.6056 14.6642 25.6581 14.58C25.7105 14.4958 25.7876 14.4282 25.8793 14.3859L26.1647 14.2643C26.7387 14.0197 27.3595 13.9015 27.9813 13.9182C28.603 13.935 29.2098 14.0863 29.7569 14.3611L29.8301 14.3979C29.9096 14.4393 29.9753 14.5012 30.0202 14.5767C30.0652 14.6523 30.0876 14.7387 30.0851 14.8266C30.0826 14.9146 30.0553 15.0008 30.0061 15.0759C29.957 15.151 29.8878 15.2121 29.806 15.2528Z" fill="#F15B5D"/>
<path d="M29.5684 14.69C29.0919 13.7856 28.9246 12.7367 29.0999 11.7522L29.2505 10.8951C29.2681 10.798 29.3121 10.7113 29.3768 10.6468C29.4414 10.5822 29.5236 10.5429 29.6123 10.5341C29.7009 10.5253 29.7918 10.5474 29.8726 10.5975C29.9535 10.6476 30.0204 10.7232 30.0645 10.8142L30.1937 11.0895C30.4571 11.6412 30.6102 12.2437 30.6418 12.8524C30.6735 13.461 30.5827 14.0601 30.3763 14.6052L30.3485 14.6805C30.3177 14.7618 30.2668 14.8304 30.2014 14.8786C30.136 14.9269 30.0587 14.9529 29.978 14.9539C29.8973 14.9549 29.8164 14.9308 29.7441 14.8842C29.6718 14.8376 29.611 14.7704 29.5684 14.69Z" fill="#F15B5D"/>
<path opacity="0.4" d="M42.3971 7.17989L33.9922 12.3018L33.7771 12.4155L34.9712 15.6394L37.2942 41.262L40.4688 48.2708C40.5271 48.3077 40.5792 48.3531 40.6234 48.4055C40.98 49.0349 43.4655 49.1135 48.7076 46.9595L40.1535 12.2834L42.3971 7.17989Z" fill="black"/>
<path d="M36.2622 46.4371C37.0271 46.294 37.7133 45.876 38.1925 45.2613C38.6717 44.6466 38.9112 43.8771 38.8662 43.0967L37.6532 21.5377C37.5311 19.3672 37.8603 17.1962 38.6198 15.1627C39.3793 13.1292 41.0222 9.21887 42.5344 7.6673L43.128 6.97395L34.5428 11.5011C31.9168 14.6274 30.6175 18.6651 30.9234 22.7491L32.4633 43.4914C32.4948 43.9453 32.6217 44.3875 32.8357 44.789C33.0498 45.1905 33.3461 45.542 33.7051 45.8204C34.0641 46.0987 34.4777 46.2977 34.9184 46.404C35.3592 46.5103 35.8172 46.5216 36.2622 46.4371Z" fill="#2B2D2B"/>
<path d="M32.5805 38.9652C32.2397 39.9278 31.5429 40.7333 30.6291 41.221L29.8322 41.648C29.7419 41.6969 29.6388 41.7174 29.5369 41.7068C29.4351 41.6961 29.3394 41.6548 29.2631 41.5885C29.1867 41.5222 29.1334 41.4342 29.1104 41.3364C29.0874 41.2386 29.0958 41.1359 29.1345 41.0423L29.2477 40.7612C29.4771 40.1945 29.833 39.6841 30.289 39.2679C30.7451 38.8517 31.2895 38.5403 31.8821 38.3569L31.9634 38.334C32.0526 38.305 32.1481 38.3011 32.2388 38.3229C32.3296 38.3447 32.4119 38.3912 32.4764 38.4572C32.5408 38.5231 32.5848 38.6057 32.6032 38.6956C32.6216 38.7855 32.6137 38.8789 32.5805 38.9652Z" fill="#2B2D2B"/>
<path d="M31.9395 38.8772C31.0022 38.5633 30.1856 37.8797 29.6513 36.9619L29.1793 36.1596C29.1284 36.0689 29.103 35.965 29.1064 35.8615C29.1098 35.7581 29.1419 35.6602 29.1983 35.5807C29.2548 35.5013 29.3329 35.4441 29.4224 35.4169C29.5118 35.3896 29.6083 35.3935 29.699 35.4281L29.9746 35.5345C30.5277 35.7492 31.0372 36.0953 31.4654 36.5473C31.8937 36.9993 32.2297 37.5456 32.4487 38.1458L32.4732 38.2325C32.502 38.3203 32.5094 38.4136 32.4945 38.5028C32.4796 38.5919 32.443 38.6737 32.3885 38.7395C32.3341 38.8053 32.2637 38.8527 32.1847 38.877C32.1057 38.9012 32.0211 38.9013 31.9395 38.8772Z" fill="#2B2D2B"/>
<ellipse cx="72" cy="61.4999" rx="2" ry="3.5" fill="#565656"/>
<path d="M68 70.9999C68 73.2091 66.2091 74.9999 64 74.9999C61.7909 74.9999 60 73.2091 60 70.9999" stroke="#565656" stroke-linecap="round"/>
<ellipse cx="54" cy="61.4999" rx="2" ry="3.5" fill="#565656"/>
</svg>
