<svg width="117" height="110" viewBox="0 0 117 110" fill="none" xmlns="http://www.w3.org/2000/svg">
<path d="M58.4873 25.4281C61.4413 30.253 61.3299 36.0153 58.7586 40.5792C57.5584 42.6858 54.791 42.1189 52.5689 43.4671C49.7219 45.2055 47.519 48.2994 44.4401 48.0149C39.9614 47.5692 35.6705 45.1316 33.1439 41.0358C30.3324 36.454 30.273 31.0425 32.5309 26.5864C33.693 24.2008 37.6836 24.7559 40.0786 23.2314C42.5779 21.671 43.3449 18.3116 46.1066 18.3548C51.0354 18.412 55.7119 20.9507 58.4873 25.4281Z" fill="#F05A5C"/>
<path d="M38.6466 20.1027C38.6466 20.1027 33.214 15.5461 35.468 10.7408C37.7562 5.86537 40.2556 4.30493 40.2556 4.30493C40.2556 4.30493 44.3683 9.60745 43.4342 13.6668C42.5001 17.7261 38.6466 20.1027 38.6466 20.1027Z" fill="#90C99F"/>
<path d="M37.1876 20.9549C37.1876 20.9549 34.4624 24.2284 31.4764 22.8606C28.4905 21.4927 27.5996 19.9301 27.5996 19.9301C27.5996 19.9301 30.8225 17.4199 33.3107 18.0244C35.7648 18.6991 37.1876 20.9549 37.1876 20.9549Z" fill="#90C99F"/>
<path d="M63.8132 49.839C70.3374 57.2232 81.6223 57.9115 89.0188 51.3764C96.4153 44.8413 97.1225 33.5575 90.5983 26.1733C84.0741 18.7892 72.7891 18.1008 65.3926 24.6359C57.9961 31.171 57.289 42.4548 63.8132 49.839Z" fill="#FFDB2D"/>
<path d="M65.0451 48.7506C70.9691 55.4554 81.2158 56.0804 87.9318 50.1465C94.6479 44.2126 95.2899 33.9669 89.366 27.2621C83.442 20.5573 73.1952 19.9323 66.4792 25.8662C59.7632 31.8 59.1211 42.0457 65.0451 48.7506Z" fill="white"/>
<path d="M87.3405 43.4315C88.8053 45.0894 88.6474 47.6097 86.9867 49.077C85.326 50.5442 82.8055 50.3905 81.3406 48.7326L77.9615 38.8621L87.3405 43.4315Z" fill="#FFDB2D"/>
<path d="M67.0232 32.5277C65.5584 30.8698 65.7163 28.3495 67.377 26.8822C69.0377 25.415 71.5583 25.5687 73.0231 27.2266L76.4022 37.0971L67.0232 32.5277Z" fill="#FFDB2D"/>
<path d="M71.7628 48.1481C70.1021 49.6153 67.5816 49.4616 66.1167 47.8037C64.6519 46.1458 64.8098 43.6255 66.4705 42.1582L76.2951 38.8107L71.7628 48.1481Z" fill="#FFDB2D"/>
<path d="M82.7022 27.8168C84.3629 26.3495 86.8835 26.5033 88.3483 28.1612C89.8131 29.8191 89.6552 32.3394 87.9945 33.8067L78.1164 37.2015L82.7022 27.8168Z" fill="#FFDB2D"/>
<path d="M88.2466 34.6316C90.4647 34.7669 92.1185 36.6387 91.9796 38.8566C91.8406 41.0745 89.9656 42.7311 87.7475 42.5958L78.3685 38.0264L88.2466 34.6316Z" fill="#FFDB2D"/>
<path d="M66.1176 41.3274C63.8995 41.1921 62.2456 39.3202 62.3846 37.1024C62.5236 34.8845 64.3986 33.2279 66.6167 33.3632L75.9957 37.9326L66.1176 41.3274Z" fill="#FFDB2D"/>
<path d="M80.5154 48.9857C80.3764 51.2036 78.5014 52.8602 76.2833 52.7249C74.0652 52.5896 72.4114 50.7178 72.5504 48.4999L77.1299 39.2161L80.5154 48.9857Z" fill="#FFDB2D"/>
<path d="M73.9025 26.9259C74.0415 24.708 75.9164 23.0514 78.1345 23.1867C80.3526 23.322 82.0065 25.1938 81.8675 27.4117L77.2816 36.7964L73.9025 26.9259Z" fill="#FFDB2D"/>
<path d="M82.2031 17.2112C79.4372 14.5125 77.8435 10.8734 77.6268 7.06525L77.432 3.71385C77.3377 1.98774 79.4709 1.05527 80.605 2.33882L81.361 3.19451C84.5396 6.57611 86.0165 11.2707 85.3226 15.8835L85.3036 16.1859C85.1616 17.6446 83.3026 18.2396 82.2031 17.2112Z" fill="#FFDB2D"/>
<path d="M86.9195 17.0435C89.428 14.1606 92.9886 12.2526 96.8105 11.8279L100.122 11.4733C101.855 11.2754 102.838 13.3593 101.646 14.6022L100.837 15.413C97.6381 18.8104 93.0283 20.5026 88.3967 20.1189L88.0943 20.1005C86.6355 19.9609 85.9363 18.1979 86.9195 17.0435Z" fill="#FFDB2D"/>
<path d="M25 41H100L89.5 77.5H34L25 41Z" fill="white"/>
<path d="M2.02051 21.4265H17.1446L34.0796 76.075H89.1259L101.226 40.4471L22.8737 39.9141" stroke="#FFDB2D" stroke-width="3" stroke-linecap="round" stroke-linejoin="round"/>
<path d="M100.256 88.5806C100.256 88.5806 100.256 83.4641 93.965 83.2637C87.6737 83.0633 31.0641 83.4641 31.0641 83.4641C29.7722 82.7426 28.6958 81.6911 27.9452 80.4173C27.1947 79.1436 26.797 77.6935 26.793 76.2157H37.8979" stroke="#FFDB2D" stroke-width="3" stroke-linecap="round" stroke-linejoin="round"/>
<path d="M83.6846 106.4C87.9966 106.4 91.4922 102.91 91.4922 98.6058C91.4922 94.3012 87.9966 90.8116 83.6846 90.8116C79.3725 90.8116 75.877 94.3012 75.877 98.6058C75.877 102.91 79.3725 106.4 83.6846 106.4Z" stroke="#90C99F" stroke-width="6" stroke-linecap="round" stroke-linejoin="round"/>
<path d="M43.9629 106.4C48.2749 106.4 51.7705 102.91 51.7705 98.6058C51.7705 94.3012 48.2749 90.8116 43.9629 90.8116C39.6509 90.8116 36.1553 94.3012 36.1553 98.6058C36.1553 102.91 39.6509 106.4 43.9629 106.4Z" stroke="#90C99F" stroke-width="6" stroke-linecap="round" stroke-linejoin="round"/>
<path d="M46.7437 49.6088C45.1022 48.1304 42.5729 48.2627 41.0946 49.9043C39.6162 51.5458 39.7485 54.075 41.3901 55.5534L46.7437 49.6088ZM60.6256 67.4936L57.9487 70.4659C58.7605 71.1969 59.8359 71.5642 60.9252 71.4823C62.0146 71.4005 63.0231 70.8767 63.7165 70.0325L60.6256 67.4936ZM95.4539 31.3956C96.8561 29.6886 96.609 27.168 94.9019 25.7658C93.1949 24.3636 90.6743 24.6107 89.2721 26.3177L95.4539 31.3956ZM41.3901 55.5534L57.9487 70.4659L63.3024 64.5213L46.7437 49.6088L41.3901 55.5534ZM63.7165 70.0325L95.4539 31.3956L89.2721 26.3177L57.5346 64.9546L63.7165 70.0325Z" fill="#F15B5D"/>
<path d="M112.816 27.4832C112.932 27.0649 113.526 27.0649 113.642 27.4832C113.694 27.6686 113.863 27.7969 114.055 27.7969H114.082C114.515 27.7969 114.713 28.3362 114.383 28.6159L114.273 28.7092C114.13 28.8301 114.071 29.0229 114.121 29.2029L114.174 29.3917C114.284 29.789 113.814 30.09 113.5 29.8233C113.344 29.6909 113.115 29.6909 112.958 29.8233C112.644 30.09 112.174 29.789 112.284 29.3917L112.337 29.2029C112.387 29.0229 112.328 28.8301 112.185 28.7092L112.075 28.6159C111.745 28.3362 111.943 27.7969 112.376 27.7969H112.403C112.595 27.7969 112.764 27.6686 112.816 27.4832Z" fill="#FFDB2D"/>
<path d="M5.34358 63L6.24664 65.4405L8.68715 66.3436L6.24664 67.2466L5.34358 69.6872L4.44051 67.2466L2 66.3436L4.44051 65.4405L5.34358 63Z" fill="#FFDB2D"/>
<path d="M106.989 68.1327C107.593 66.4229 110.011 66.4229 110.615 68.1327C110.801 68.6614 111.21 69.0823 111.733 69.285L111.793 69.3084C113.496 69.9685 113.496 72.3779 111.793 73.038L111.733 73.0614C111.21 73.2641 110.801 73.6849 110.615 74.2137C110.011 75.9235 107.593 75.9235 106.989 74.2137C106.802 73.6849 106.394 73.2641 105.871 73.0614L105.81 73.038C104.108 72.3779 104.108 69.9685 105.81 69.3084L105.871 69.285C106.394 69.0823 106.802 68.6614 106.989 68.1327Z" fill="#FFDB2D"/>
<path d="M64.2559 2.73687C64.5661 1.83879 65.8362 1.83879 66.1463 2.73687L66.456 3.63356C66.5512 3.90904 66.7617 4.1293 67.0327 4.23672L68.0575 4.64302C68.8994 4.97681 68.8994 6.16844 68.0575 6.50223L67.0327 6.90853C66.7617 7.01595 66.5512 7.23621 66.456 7.5117L66.1463 8.40838C65.8362 9.30646 64.5661 9.30646 64.2559 8.40838L63.9462 7.5117C63.8511 7.23622 63.6405 7.01595 63.3696 6.90853L62.3447 6.50223C61.5028 6.16844 61.5028 4.97681 62.3447 4.64302L63.3696 4.23672C63.6405 4.1293 63.8511 3.90904 63.9462 3.63356L64.2559 2.73687Z" fill="#FFDB2D"/>
</svg>
