<svg width="24" height="24" viewBox="0 0 24 24" fill="none" xmlns="http://www.w3.org/2000/svg">
<path d="M2.5 17C2.5 17.8284 3.17157 18.5 4 18.5H20C20.8284 18.5 21.5 17.8284 21.5 17C21.5 16.1716 20.8284 15.5 20 15.5H4C3.17157 15.5 2.5 16.1716 2.5 17ZM2.5 12C2.5 12.8284 3.17157 13.5 4 13.5H20C20.8284 13.5 21.5 12.8284 21.5 12C21.5 11.1716 20.8284 10.5 20 10.5H4C3.17157 10.5 2.5 11.1716 2.5 12ZM4 5.5C3.17157 5.5 2.5 6.17157 2.5 7C2.5 7.82843 3.17157 8.5 4 8.5H20C20.8284 8.5 21.5 7.82843 21.5 7C21.5 6.17157 20.8284 5.5 20 5.5H4Z" stroke="#828282"/>
</svg>
