<svg width="24" height="24" viewBox="0 0 24 24" fill="none" xmlns="http://www.w3.org/2000/svg">
<g clip-path="url(#clip0)">
<path d="M14.0564 21.0564L14.0564 21.0564L14.0516 21.0613C13.785 21.3354 13.4139 21.5 13 21.5C12.5854 21.5 12.2118 21.3347 11.9436 21.0664L2.94355 12.0664C2.66397 11.7869 2.5 11.4127 2.5 11V4C2.5 3.17614 3.17614 2.5 4 2.5H11C11.4146 2.5 11.7882 2.6653 12.0564 2.93355L21.0564 11.9336C21.3274 12.2045 21.5 12.5891 21.5 13C21.5 13.4139 21.3354 13.785 21.0613 14.0516L21.0613 14.0516L21.0564 14.0564L14.0564 21.0564ZM6.76263 8.74943C6.76263 9.85557 7.65648 10.7494 8.76263 10.7494C9.86877 10.7494 10.7626 9.85557 10.7626 8.74943C10.7626 7.64328 9.86877 6.74943 8.76263 6.74943C7.65648 6.74943 6.76263 7.64328 6.76263 8.74943Z" stroke="#828282"/>
</g>
<defs>
<clipPath id="clip0">
<rect width="24" height="24" fill="white"/>
</clipPath>
</defs>
</svg>
