<svg width="20" height="17" viewBox="0 0 20 17" fill="none" xmlns="http://www.w3.org/2000/svg">
<path fill-rule="evenodd" clip-rule="evenodd" d="M2.09449 16.0016H9.96642C12.6185 16.0016 15.2753 16.0016 17.9367 16.0062C19.0988 16.0016 19.9844 15.1535 19.9844 13.9914C19.9938 9.98985 19.9938 5.99297 19.9844 1.9961C19.9844 0.866849 19.0941 0 17.9649 0H2.03358C0.890277 0 0.0093712 0.87622 0.0093712 2.01484L0.00935507 2.0285C0.00467478 5.9927 0 9.95223 0 13.9164C0 15.1488 0.862163 16.0016 2.09449 16.0016ZM7.84551 14.9874C8.55694 14.9884 9.26853 14.9895 9.98048 14.9895C10.696 14.9895 11.4115 14.9884 12.1271 14.9874C14.0358 14.9846 15.9452 14.9818 17.8571 14.9988C18.5693 15.0035 19.0051 14.4834 19.0004 13.8462C18.9863 10.9225 18.9881 8.00144 18.9898 5.07909C18.9904 4.10472 18.991 3.13021 18.991 2.15541C18.991 1.38696 18.6115 1.00273 17.843 1.00273H2.12261C1.39633 1.00273 1.00273 1.39633 1.00273 2.11324C1.00133 3.2842 1.00119 4.45559 1.00105 5.62715C1.00072 8.36072 1.00039 11.0952 0.98399 13.8274C0.979304 14.4553 1.39164 15.0082 2.15541 14.9988C4.05338 14.9818 5.94888 14.9846 7.84551 14.9874Z" fill="#828282"/>
<path d="M18.4803 3.97811C18.4896 4.21707 18.3631 4.35764 18.1804 4.4701C17.0277 5.187 15.8797 5.90859 14.727 6.63018C13.2792 7.53451 11.8266 8.43885 10.3834 9.34786C10.1117 9.52123 9.87737 9.51655 9.6056 9.34786C7.0238 7.72663 4.43731 6.11476 1.85082 4.49821C1.49939 4.27799 1.40099 3.96873 1.59779 3.70634C1.77116 3.47205 2.02887 3.42988 2.30533 3.60325C3.27058 4.20302 4.23582 4.80747 5.20576 5.41191C6.74266 6.37247 8.27487 7.32835 9.80708 8.29359C9.96171 8.39199 10.0648 8.36856 10.2054 8.27953C12.6888 6.7239 15.1769 5.16826 17.665 3.61262C17.8524 3.49548 18.0398 3.44394 18.2366 3.56108C18.3819 3.65479 18.4896 3.79068 18.4803 3.97811Z" fill="#828282"/>
</svg>
