<svg width="24" height="24" viewBox="0 0 24 24" fill="none" xmlns="http://www.w3.org/2000/svg">
<path d="M2.51 6.00042V6C2.51 5.17287 3.1794 4.5 4 4.5H20C20.8239 4.5 21.5 5.17614 21.5 6V18C21.5 18.8239 20.8239 19.5 20 19.5H4C3.17621 19.5 2.5001 18.824 2.5 18.0002C2.5 18.0001 2.5 18.0001 2.5 18L2.51 6.00042Z" stroke="#828282" stroke-linecap="round" stroke-linejoin="round"/>
<path d="M2.51 6.00042V6C2.51 5.17287 3.1794 4.5 4 4.5H20C20.8239 4.5 21.5 5.17614 21.5 6V18C21.5 18.8239 20.8239 19.5 20 19.5H4C3.17621 19.5 2.5001 18.824 2.5 18.0002C2.5 18.0001 2.5 18.0001 2.5 18L2.51 6.00042Z" stroke="#828282" stroke-linecap="round" stroke-linejoin="round"/>
<path d="M9.97619 15.0952C9.43056 15.0952 8.98909 15.5238 8.98909 16.0476C8.98909 16.5714 9.43056 17 9.97619 17C10.5218 17 10.9683 16.5714 10.9683 16.0476C10.9683 15.5238 10.5218 15.0952 9.97619 15.0952ZM14.9365 15.0952C14.3909 15.0952 13.9494 15.5238 13.9494 16.0476C13.9494 16.5714 14.3909 17 14.9365 17C15.4821 17 15.9286 16.5714 15.9286 16.0476C15.9286 15.5238 15.4821 15.0952 14.9365 15.0952ZM10.5218 12.7143H14.2173C14.5893 12.7143 14.9167 12.5191 15.0853 12.2238L17 8.88572L16.1369 8.42858L14.2173 11.7619H10.7351L8.62202 7.4762H7V8.42858H7.99206L9.77778 12.0429L9.10813 13.2048C8.74603 13.8429 9.22222 14.6191 9.97619 14.6191H15.9286V13.6667H9.97619L10.5218 12.7143Z" fill="#828282"/>
</svg>
