<svg width="20" height="12" viewBox="0 0 20 12" fill="none" xmlns="http://www.w3.org/2000/svg">
<path d="M18.3333 11.6667H13.3333V8.33333H11.1C10.15 10.35 8.1 11.6667 5.83333 11.6667C2.61667 11.6667 0 9.05 0 5.83333C0 2.61667 2.61667 0 5.83333 0C8.1 0 10.1417 1.31667 11.1 3.33333H20V8.33333H18.3333V11.6667ZM15 10H16.6667V6.66667H18.3333V5H9.95L9.75833 4.44167C9.175 2.78333 7.59167 1.66667 5.83333 1.66667C3.53333 1.66667 1.66667 3.53333 1.66667 5.83333C1.66667 8.13333 3.53333 10 5.83333 10C7.59167 10 9.175 8.88333 9.75833 7.225L9.95 6.66667H15V10ZM5.83333 8.33333C4.45833 8.33333 3.33333 7.20833 3.33333 5.83333C3.33333 4.45833 4.45833 3.33333 5.83333 3.33333C7.20833 3.33333 8.33333 4.45833 8.33333 5.83333C8.33333 7.20833 7.20833 8.33333 5.83333 8.33333ZM5.83333 5C5.375 5 5 5.375 5 5.83333C5 6.29167 5.375 6.66667 5.83333 6.66667C6.29167 6.66667 6.66667 6.29167 6.66667 5.83333C6.66667 5.375 6.29167 5 5.83333 5Z" fill="#828282"/>
</svg>
