<svg width="24" height="24" viewBox="0 0 24 24" fill="none" xmlns="http://www.w3.org/2000/svg">
<path d="M11.6312 22.335L11.63 22.3337C11.4887 22.1783 9.69217 20.1742 7.93418 17.5236C7.05531 16.1985 6.19259 14.7215 5.55098 13.2406C4.90713 11.7545 4.5 10.2963 4.5 9C4.5 4.86614 7.86614 1.5 12 1.5C16.1339 1.5 19.5 4.86614 19.5 9C19.5 10.2963 19.0929 11.7545 18.449 13.2406C17.8074 14.7215 16.9447 16.1985 16.0658 17.5236C14.3078 20.1742 12.5113 22.1783 12.37 22.3337L12.3688 22.335L12 22.7437L11.6312 22.335ZM11.6163 20.7905L12.0014 21.2516L12.3849 20.7892C13.2675 19.7249 14.785 17.7934 16.0844 15.6382C17.37 13.5059 18.5 11.0631 18.5 9C18.5 5.41386 15.5861 2.5 12 2.5C8.41386 2.5 5.5 5.41386 5.5 9C5.5 10.9136 6.51836 13.2288 7.7509 15.3362C8.99635 17.4656 10.5142 19.4711 11.6163 20.7905Z" stroke="#828282"/>
<circle cx="12" cy="9" r="3" stroke="#828282"/>
</svg>
