<svg width="64" height="63" viewBox="0 0 64 63" fill="none" xmlns="http://www.w3.org/2000/svg">
<circle cx="30.9706" cy="30.9725" r="28.8709" fill="white"/>
<path d="M33.0704 62.993C32.0467 62.993 31.0231 62.993 29.9995 62.993C29.2751 62.9142 28.5429 62.8512 27.8185 62.7646C23.724 62.3158 19.8816 61.0717 16.2911 59.0797C11.5431 56.4498 7.71642 52.8278 4.81882 48.2216C2.31493 44.2531 0.795263 39.9382 0.228343 35.2926C0.133856 34.5525 0.070865 33.8123 0 33.0722C0 32.025 0 30.9699 0 29.9226C0.0236217 29.7967 0.0551173 29.6707 0.0629912 29.5447C0.149604 28.7258 0.204721 27.8991 0.314956 27.0802C0.653533 24.4818 1.33856 21.97 2.33855 19.5527C3.96844 15.6 6.29912 12.1119 9.34631 9.10408C12.8502 5.64745 16.9367 3.13568 21.606 1.58452C25.4327 0.316823 29.3618 -0.179232 33.3932 0.0569851C36.6372 0.253832 39.7789 0.915239 42.8025 2.08845C47.2985 3.82858 51.1961 6.46633 54.4952 9.98596C57.5975 13.3009 59.881 17.104 61.3376 21.3952C62.9045 26.0014 63.3534 30.7337 62.7313 35.5603C62.1014 40.4815 60.4006 45.0169 57.5975 49.1113C53.7472 54.749 48.6213 58.7726 42.1962 61.119C39.9206 61.9458 37.59 62.5205 35.1727 62.7646C34.4719 62.8355 33.7711 62.9142 33.0704 62.993ZM31.4798 59.6151C33.3932 59.6308 35.2829 59.434 37.149 59.0403C42.456 57.9379 47.0623 55.497 50.9913 51.7648C51.2039 51.568 51.2512 51.4184 51.1252 51.1349C49.8732 48.2688 48.1095 45.757 45.7552 43.702C40.275 38.9304 33.9129 37.2139 26.8342 38.7808C19.8895 40.3241 14.9604 44.5208 11.9368 50.9696C11.7242 51.4262 11.8502 51.631 12.1573 51.9144C17.606 56.9773 24.0547 59.5206 31.4798 59.6151ZM42.7474 23.6629C42.7552 17.4583 37.7317 12.3875 31.5586 12.3639C25.3382 12.3481 20.2517 17.3795 20.2438 23.5763C20.2359 29.7967 25.2752 34.8674 31.472 34.8753C37.6687 34.8832 42.7395 29.8439 42.7474 23.6629Z" fill="#FFDB2D"/>
<path d="M45.1436 22.5719C45.1436 15.3242 39.2682 9.44873 32.0205 9.44873C24.7727 9.44873 18.8973 15.3242 18.8973 22.5719" stroke="#F15B5D"/>
<path d="M18.8973 24.1467L20.4721 32.0206H31.4955" stroke="#F15B5D"/>
<circle cx="30.9706" cy="32.0206" r="1.57478" fill="#F15B5D"/>
<path d="M15.7478 23.6216C15.7478 21.0124 17.8629 18.8972 20.4721 18.8972H20.997V28.3459H20.4721C17.8629 28.3459 15.7478 26.2307 15.7478 23.6216Z" fill="#F15B5D"/>
<path d="M47.2433 23.6216C47.2433 26.2308 45.1282 28.3459 42.519 28.3459L41.9941 28.3459L41.9941 18.8973L42.519 18.8973C45.1282 18.8973 47.2433 21.0124 47.2433 23.6216Z" fill="#F15B5D"/>
</svg>
