<svg width="124" height="124" viewBox="0 0 124 124" fill="none" xmlns="http://www.w3.org/2000/svg">
<path d="M22 53H97L86.5 89.5H31L22 53Z" fill="white"/>
<path d="M109.816 39.4832C109.932 39.0649 110.526 39.0649 110.642 39.4832C110.694 39.6686 110.863 39.7969 111.055 39.7969H111.082C111.515 39.7969 111.713 40.3362 111.383 40.6159L111.273 40.7092C111.13 40.8301 111.071 41.0229 111.121 41.2029L111.174 41.3917C111.284 41.789 110.814 42.09 110.5 41.8233C110.344 41.6909 110.115 41.6909 109.958 41.8233C109.644 42.09 109.174 41.789 109.284 41.3917L109.337 41.2029C109.387 41.0229 109.328 40.8301 109.185 40.7092L109.075 40.6159C108.745 40.3362 108.943 39.7969 109.376 39.7969H109.403C109.595 39.7969 109.764 39.6686 109.816 39.4832Z" fill="#FFDB2D"/>
<path d="M10.3436 76L11.2466 78.4405L13.6872 79.3436L11.2466 80.2466L10.3436 82.6872L9.44051 80.2466L7 79.3436L9.44051 78.4405L10.3436 76Z" fill="#FFDB2D"/>
<path d="M103.989 80.1327C104.593 78.4229 107.011 78.4229 107.615 80.1327C107.801 80.6614 108.21 81.0823 108.733 81.285L108.793 81.3084C110.496 81.9685 110.496 84.3779 108.793 85.038L108.733 85.0614C108.21 85.2641 107.801 85.6849 107.615 86.2137C107.011 87.9235 104.593 87.9235 103.989 86.2137C103.802 85.6849 103.394 85.2641 102.871 85.0614L102.81 85.038C101.108 84.3779 101.108 81.9685 102.81 81.3084L102.871 81.285C103.394 81.0823 103.802 80.6614 103.989 80.1327Z" fill="#FFDB2D"/>
<path d="M61.2559 14.7369C61.5661 13.8388 62.8362 13.8388 63.1463 14.7369L63.456 15.6336C63.5512 15.909 63.7617 16.1293 64.0327 16.2367L65.0575 16.643C65.8994 16.9768 65.8994 18.1684 65.0575 18.5022L64.0327 18.9085C63.7617 19.0159 63.5512 19.2362 63.456 19.5117L63.1463 20.4084C62.8362 21.3065 61.5661 21.3065 61.2559 20.4084L60.9462 19.5117C60.8511 19.2362 60.6405 19.0159 60.3696 18.9085L59.3447 18.5022C58.5028 18.1684 58.5028 16.9768 59.3447 16.643L60.3696 16.2367C60.6405 16.1293 60.8511 15.909 60.9462 15.6336L61.2559 14.7369Z" fill="#FFDB2D"/>
<path d="M94.758 65.404L60.558 31.204C59.19 29.836 57.29 29 55.2 29H28.6C24.42 29 21 32.42 21 36.6V63.2C21 65.29 21.836 67.19 23.242 68.596L57.442 102.796C58.81 104.164 60.71 105 62.8 105C64.89 105 66.79 104.164 68.158 102.758L94.758 76.158C96.164 74.79 97 72.89 97 70.8C97 68.71 96.126 66.772 94.758 65.404ZM46.698 60.3478C43.544 60.3478 40.998 57.8018 40.998 54.6478C40.998 51.4938 43.544 48.9478 46.698 48.9478C49.852 48.9478 52.398 51.4938 52.398 54.6478C52.398 57.8018 49.852 60.3478 46.698 60.3478Z" fill="#F15B5D"/>
<path d="M97.5 91C87.2827 91 79 82.7173 79 72.5C79 62.2827 87.2827 54 97.5 54C107.717 54 116 62.2827 116 72.5C116 82.7173 107.717 91 97.5 91Z" fill="white" stroke="#FFDB2D" stroke-width="4"/>
<rect x="96" y="62" width="4" height="15" fill="#FFDB2D"/>
<rect x="96" y="80" width="4" height="3" fill="#FFDB2D"/>
</svg>
