<svg width="24" height="24" viewBox="0 0 24 24" fill="none" xmlns="http://www.w3.org/2000/svg">
<path d="M14.3499 3.17022L14.4693 3.5H14.82H19C19.8239 3.5 20.5 4.17614 20.5 5V19C20.5 19.8239 19.8239 20.5 19 20.5H5C4.17614 20.5 3.5 19.8239 3.5 19V5C3.5 4.17614 4.17614 3.5 5 3.5H9.18H9.53073L9.65013 3.17022C10.0027 2.19634 10.9228 1.5 12 1.5C13.0772 1.5 13.9973 2.19634 14.3499 3.17022Z" fill="#F15B5D" stroke="#F15B5D"/>
<circle cx="16.5" cy="16.5" r="6" fill="white" fill="#F15B5D" stroke="#FAFAFA"/>
<line x1="16.5" y1="13" x2="16.5" y2="17" stroke="#FAFAFA"/>
<path d="M20 17L16 17" stroke="#FAFAFA"/>
</svg>
