<svg width="20" height="20" viewBox="0 0 20 20" fill="none" xmlns="http://www.w3.org/2000/svg">
<path d="M1 17.2727C1 16.7035 1.25439 16.1498 1.80166 15.5986C2.35791 15.0384 3.17169 14.5314 4.14648 14.1047C6.10147 13.2489 8.4649 12.8182 10 12.8182C11.5351 12.8182 13.8985 13.2489 15.8535 14.1047C16.8283 14.5314 17.6421 15.0384 18.1983 15.5986C18.7456 16.1498 19 16.7035 19 17.2727V19H1V17.2727ZM13.5455 4.54545C13.5455 5.86421 12.803 7.01746 11.7109 7.63683C11.1915 7.92474 10.613 8.09091 10 8.09091C9.38698 8.09091 8.80852 7.92474 8.28905 7.63683C7.19703 7.01746 6.45455 5.86421 6.45455 4.54545C6.45455 2.58865 8.04319 1 10 1C11.9568 1 13.5455 2.58865 13.5455 4.54545Z" stroke="#828282" stroke-width="2"/>
</svg>
