<svg width="24" height="24" viewBox="0 0 24 24" fill="none" xmlns="http://www.w3.org/2000/svg">
<path fill-rule="evenodd" clip-rule="evenodd" d="M11 4.93624C11.981 3.75041 13.484 3 15.05 3C17.822 3 20 5.24196 20 8.09537C20 8.17714 19.9983 8.25856 19.995 8.33965C19.3709 8.11967 18.6994 8 18 8C14.6863 8 12 10.6863 12 14C12 15.4405 12.5076 16.7624 13.3537 17.7966C13.0177 18.1119 12.6717 18.4348 12.3164 18.7665L12.305 18.7771L11 20L9.695 18.7864L9.65947 18.7531C5.04437 14.4361 2 11.5883 2 8.09537C2 5.24196 4.178 3 6.95 3C8.516 3 10.019 3.75041 11 4.93624Z" fill="#F15B5D"/>
<path d="M21.268 16.0333C21.6532 15.4203 21.8809 14.711 21.8809 13.9405C21.8809 11.7601 20.1208 10 17.9405 10C15.7601 10 14 11.7601 14 13.9405C14 16.1208 15.7601 17.8809 17.9317 17.8809C18.7023 17.8809 19.4203 17.6532 20.0245 17.268L22.7566 20L24 18.7566L21.268 16.0333ZM17.9405 16.1296C16.732 16.1296 15.7513 15.1489 15.7513 13.9405C15.7513 12.732 16.732 11.7513 17.9405 11.7513C19.1489 11.7513 20.1296 12.732 20.1296 13.9405C20.1296 15.1489 19.1489 16.1296 17.9405 16.1296Z" fill="#F15B5D"/>
</svg>
