<svg width="24" height="26" viewBox="0 0 24 26" fill="none" xmlns="http://www.w3.org/2000/svg">
<path d="M15.4638 14.6666H14.7035L14.4341 14.3838C15.3772 13.1895 15.9449 11.639 15.9449 9.95234C15.9449 6.19139 13.1446 3.14282 9.68986 3.14282C6.23513 3.14282 3.43478 6.19139 3.43478 9.95234C3.43478 13.7133 6.23513 16.7619 9.68986 16.7619C11.2392 16.7619 12.6634 16.1438 13.7605 15.1171L14.0203 15.4104V16.2381L18.8319 21.4657L20.2657 19.9047L15.4638 14.6666ZM9.68986 14.6666C7.29368 14.6666 5.35942 12.5609 5.35942 9.95234C5.35942 7.34377 7.29368 5.23806 9.68986 5.23806C12.086 5.23806 14.0203 7.34377 14.0203 9.95234C14.0203 12.5609 12.086 14.6666 9.68986 14.6666Z" fill="#F15B5D"/>
</svg>
