<svg width="25" height="26" viewBox="0 0 25 26" fill="none" xmlns="http://www.w3.org/2000/svg">
<path d="M11.8532 1.25777C12.1349 0.301058 13.4901 0.301056 13.7718 1.25777L15.8567 8.33819C15.9819 8.76363 16.3725 9.05573 16.8159 9.05573H23.7568C24.7015 9.05573 25.1194 10.245 24.3823 10.8359L18.6031 15.4691C18.2866 15.7228 18.1548 16.1427 18.2693 16.5318L20.436 23.8901C20.7125 24.829 19.6149 25.565 18.8513 24.9527L13.438 20.6129C13.0725 20.3199 12.5525 20.3199 12.187 20.6129L6.77374 24.9527C6.01008 25.565 4.91248 24.829 5.18895 23.8901L7.35566 16.5318C7.47024 16.1427 7.33839 15.7228 7.02188 15.4691L1.24273 10.8359C0.505614 10.245 0.923478 9.05573 1.86824 9.05573H8.80905C9.25254 9.05573 9.64306 8.76363 9.76833 8.33819L11.8532 1.25777Z" fill="#FFDB2D"/>
</svg>
