<svg width="25" height="26" viewBox="0 0 25 26" fill="none" xmlns="http://www.w3.org/2000/svg">
<path d="M11.2907 1.25777C11.5724 0.301058 12.9276 0.301056 13.2093 1.25777L15.2942 8.33819C15.4194 8.76363 15.81 9.05573 16.2534 9.05573H23.1943C24.139 9.05573 24.5569 10.245 23.8198 10.8359L18.0406 15.4691C17.7241 15.7228 17.5923 16.1427 17.7068 16.5318L19.8735 23.8901C20.15 24.829 19.0524 25.565 18.2888 24.9527L12.8755 20.6129C12.51 20.3199 11.99 20.3199 11.6245 20.6129L6.21124 24.9527C5.44758 25.565 4.34998 24.829 4.62645 23.8901L6.79316 16.5318C6.90774 16.1427 6.77589 15.7228 6.45938 15.4691L0.680234 10.8359C-0.056886 10.245 0.360978 9.05573 1.30574 9.05573H8.24655C8.69004 9.05573 9.08056 8.76363 9.20583 8.33819L11.2907 1.25777Z" fill="#CECECE"/>
</svg>
