<svg width="43" height="41" viewBox="0 0 43 41" fill="none" xmlns="http://www.w3.org/2000/svg">
<path d="M20.5489 0.927052C20.8483 0.00574136 22.1517 0.00573993 22.4511 0.927051L26.7761 14.2381C26.91 14.6501 27.2939 14.9291 27.7271 14.9291L41.7232 14.9291C42.6919 14.9291 43.0947 16.1687 42.311 16.7381L30.9879 24.9648C30.6374 25.2194 30.4908 25.6708 30.6247 26.0828L34.9497 39.3939C35.249 40.3152 34.1946 41.0813 33.4108 40.5119L22.0878 32.2852C21.7373 32.0306 21.2627 32.0306 20.9122 32.2852L9.58916 40.5119C8.80545 41.0813 7.75097 40.3152 8.05032 39.3939L12.3753 26.0828C12.5092 25.6708 12.3626 25.2194 12.0121 24.9648L0.689015 16.7381C-0.0946989 16.1687 0.308076 14.9291 1.2768 14.9291L15.2729 14.9291C15.7061 14.9291 16.09 14.6501 16.2239 14.2381L20.5489 0.927052Z" fill="#FFDB2D"/>
</svg>
