<svg width="101" height="103" viewBox="0 0 101 103" fill="none" xmlns="http://www.w3.org/2000/svg">
<path d="M98.8086 76.0348C98.8043 75.9678 98.7447 75.9043 98.7158 75.8389L69.276 3.22146L26.1728 15.5337L25.6464 15.6841L6.60573 21.1235L17.4615 70.433L19.7161 80.8584L19.8737 81.5762L23.5795 98.6923C23.6905 98.802 23.7839 98.928 23.8564 99.0659C24.3467 100.637 27.6379 101.212 32.778 100.934C40.1445 100.492 51.3008 98.2443 63.4815 94.4984C84.1801 88.1132 99.9938 79.8611 98.8086 76.0348Z" fill="#F05A5C"/>
<path d="M69.4002 3.17136C68.226 -0.407824 53.3835 0.741703 36.2408 5.74397C19.098 10.7462 6.15566 17.705 7.33033 21.2901C8.26815 24.1476 17.9029 23.9894 30.4599 21.2684C33.6508 20.5818 37.0203 19.7278 40.4898 18.7175C41.2342 18.5014 41.9717 18.2737 42.7035 18.0524C58.7248 13.111 70.5218 6.59817 69.4002 3.17136Z" fill="#F15B5D"/>
<path d="M75.4173 20.4016C74.7315 17.8001 75.1292 15.0458 76.5321 12.6806L77.7808 10.62C77.9184 10.3825 78.1322 10.1894 78.3926 10.0674C78.653 9.94543 78.9472 9.90056 79.2345 9.93899C79.5219 9.97742 79.7883 10.0973 79.997 10.282C80.2057 10.4667 80.3464 10.7072 80.3997 10.9703L80.5667 11.7428C80.9015 13.313 80.8484 14.9362 80.4114 16.4924C79.9743 18.0487 79.1644 19.4981 78.0416 20.7335L77.884 20.9052C77.7183 21.0971 77.4978 21.2424 77.2478 21.3246C76.9978 21.4068 76.7284 21.4225 76.4707 21.3699C76.213 21.3173 75.9775 21.1985 75.7911 21.0272C75.6047 20.8559 75.4752 20.639 75.4173 20.4016Z" fill="#F05A5C"/>
<path d="M76.9412 20.3689C79.6317 19.5463 82.5398 19.7322 85.0854 20.8894L87.3057 21.8977C87.5545 22.0126 87.7607 22.1983 87.8965 22.4301C88.0323 22.6619 88.0912 22.9286 88.0654 23.1943C88.0396 23.4601 87.9302 23.7122 87.752 23.9169C87.5738 24.1216 87.3353 24.269 87.0685 24.3394L86.2865 24.5842C84.6597 25.0017 82.9582 25.0615 81.3076 24.7592C79.657 24.457 78.0994 23.8004 76.7498 22.8379L76.5652 22.7043C76.3559 22.5646 76.1917 22.3707 76.0914 22.1448C75.9911 21.9188 75.9587 21.6699 75.9979 21.4264C76.0371 21.1829 76.1463 20.9546 76.3131 20.7677C76.4799 20.5807 76.6976 20.4425 76.9412 20.3689Z" fill="#F05A5C"/>
<path d="M14.6337 15.2906C12.3165 15.8506 9.86934 15.5582 7.77549 14.4711L5.95418 13.5173C5.75525 13.406 5.59603 13.2399 5.4971 13.0405C5.39818 12.841 5.36411 12.6173 5.39929 12.3984C5.43448 12.1794 5.5373 11.9753 5.69446 11.8123C5.85163 11.6494 6.05591 11.5351 6.28088 11.4844L6.97583 11.3489C8.37381 11.0765 9.81604 11.1082 11.196 11.4419C12.5761 11.7755 13.8586 12.4025 14.949 13.2765L15.0949 13.3935C15.2525 13.5239 15.3697 13.6933 15.434 13.8834C15.4983 14.0735 15.5073 14.2771 15.4598 14.4722C15.4124 14.6674 15.3104 14.8467 15.1648 14.991C15.0192 15.1352 14.8356 15.2388 14.6337 15.2906Z" fill="#F15B5D"/>
<path d="M14.3716 13.921C13.7387 11.6751 13.865 9.25377 14.7253 7.13943L15.4701 5.29784C15.5554 5.08934 15.6951 4.91686 15.8702 4.80359C16.0453 4.69033 16.2475 4.64171 16.4496 4.66428C16.6517 4.68685 16.844 4.77953 17.0006 4.92984C17.1572 5.08016 17.2706 5.28091 17.3256 5.50508L17.483 6.18124C17.808 7.53834 17.8629 8.95637 17.6435 10.3301C17.424 11.7038 16.936 12.998 16.2156 14.1167L16.1176 14.2714C16.01 14.4383 15.8636 14.5671 15.6947 14.6437C15.5257 14.7202 15.3408 14.7416 15.1602 14.7053C14.9795 14.6691 14.8103 14.5767 14.6712 14.4383C14.532 14.2999 14.4284 14.1209 14.3716 13.921Z" fill="#F15B5D"/>
<path opacity="0.4" d="M46.5887 3.26796L25.3854 10.6975L24.851 10.8488L25.9808 18.6147L18.9584 76.9211L22.7059 94.0801C22.8184 94.1901 22.9131 94.3163 22.9866 94.4545C23.4829 96.0294 28.9942 97.389 41.7228 95.0781L39.1487 13.592L46.5887 3.26796Z" fill="black"/>
<path d="M14.1889 87.9824C15.9646 88.0274 17.6956 87.4213 19.0583 86.2773C20.421 85.1333 21.3222 83.5297 21.5937 81.7661L29.1577 33.0599C29.9194 28.1566 31.6887 23.4668 34.3531 19.2891C37.0175 15.1114 42.5482 7.16488 46.6632 4.42167L48.3187 3.15669L26.9961 9.17254C19.6444 14.9004 14.8201 23.2952 13.5571 32.5578L7.11187 79.5964C6.96578 80.6246 7.03841 81.6724 7.32499 82.6706C7.61156 83.6688 8.10556 84.5947 8.77436 85.3872C9.44317 86.1798 10.2716 86.8208 11.2049 87.2682C12.1382 87.7155 13.1553 87.959 14.1889 87.9824Z" fill="#2B2D2B"/>
<path d="M9.52931 69.5479C8.3099 71.5344 6.3706 73.0006 4.09831 73.654L2.11583 74.2275C1.89105 74.2936 1.65109 74.2902 1.42876 74.2179C1.20643 74.1456 1.01258 74.0078 0.873711 73.8234C0.734846 73.6391 0.65775 73.4171 0.652962 73.1879C0.648175 72.9587 0.715931 72.7334 0.846965 72.5429L1.23362 71.9694C2.01578 70.8134 3.05347 69.8436 4.2698 69.1317C5.48612 68.4199 6.8499 67.9843 8.26006 67.8572L8.45249 67.8447C8.66554 67.8224 8.88053 67.8593 9.07274 67.9512C9.26495 68.0431 9.42658 68.1862 9.53905 68.3641C9.65152 68.542 9.71027 68.7474 9.70855 68.9569C9.70683 69.1663 9.6447 69.3711 9.52931 69.5479Z" fill="#2B2D2B"/>
<path d="M8.14056 69.0461C6.19785 67.8987 4.70056 65.9837 3.94508 63.6802L3.27363 61.6641C3.20329 61.4375 3.19606 61.1933 3.25292 60.9641C3.30977 60.7348 3.42801 60.5314 3.59187 60.381C3.75574 60.2305 3.95745 60.1401 4.17012 60.1219C4.3828 60.1037 4.59635 60.1584 4.78231 60.2789L5.3468 60.6477C6.4793 61.3905 7.45178 62.4059 8.19244 63.6189C8.93309 64.832 9.42298 66.2116 9.62593 67.6559L9.63924 67.861C9.66172 68.0708 9.63364 68.2827 9.55792 68.4746C9.4822 68.6665 9.3616 68.8315 9.20865 68.9525C9.0557 69.0734 8.87597 69.1459 8.68815 69.1624C8.50032 69.1788 8.31125 69.1387 8.14056 69.0461Z" fill="#2B2D2B"/>
</svg>
