<svg width="24" height="24" viewBox="0 0 24 24" fill="none" xmlns="http://www.w3.org/2000/svg">
<path d="M4.15301 20.0001L5.8673 8H18.1327L19.847 20.0001H4.15301Z" stroke="#828282" stroke-width="2"/>
<path d="M14 8H15V7V6C15 4.89543 14.1046 4 13 4H11C9.89543 4 9 4.89543 9 6V7V8H10H14Z" stroke="#828282" stroke-width="2"/>
<path d="M9.27202 13.6705L8.66008 14.2888V15.9332H8V11.0668H8.66008V13.4733L10.8844 11.0668H11.682L9.71208 13.2159L11.8367 15.9332H11.046L9.27202 13.6705Z" fill="#828282"/>
<path d="M16 15.2948C15.8304 15.531 15.5932 15.7081 15.2884 15.8262C14.9858 15.9421 14.6329 16 14.2295 16C13.8215 16 13.4594 15.9075 13.1431 15.7226C12.8268 15.5354 12.5816 15.2703 12.4074 14.9271C12.2355 14.584 12.1473 14.1863 12.1427 13.734V13.3095C12.1427 12.5764 12.318 12.0082 12.6687 11.6049C13.0216 11.2016 13.5167 11 14.1538 11C14.6764 11 15.097 11.1303 15.4156 11.391C15.7341 11.6495 15.9289 12.0172 16 12.494H15.3399C15.2162 11.85 14.8219 11.5281 14.1573 11.5281C13.7149 11.5281 13.3792 11.6796 13.15 11.9826C12.9231 12.2834 12.8085 12.7201 12.8062 13.2928V13.6905C12.8062 14.2364 12.9345 14.6709 13.1912 14.994C13.4479 15.3148 13.7952 15.4753 14.2329 15.4753C14.4804 15.4753 14.697 15.4485 14.8827 15.3951C15.0683 15.3416 15.2219 15.2513 15.3434 15.1243V14.0314H14.1848V13.51H16V15.2948Z" fill="#828282"/>
</svg>
