<svg width="271" height="252" viewBox="0 0 271 252" fill="none" xmlns="http://www.w3.org/2000/svg">
<g opacity="0.6">
<path opacity="0.4" fill-rule="evenodd" clip-rule="evenodd" d="M239.987 159.06C243.181 194.688 165.341 217.93 98.3456 201.726C31.3503 185.522 0.613654 122.124 32.5811 88.3514C64.5486 54.5791 236.794 123.378 239.987 159.06Z" fill="#FFDB2D"/>
<path opacity="0.3" fill-rule="evenodd" clip-rule="evenodd" d="M221.933 60.2611C256.07 80.0868 238.498 151.524 190.299 190.484C142.1 229.444 68.8655 212.504 53.9508 168.094C39.0361 123.685 187.746 40.4014 221.933 60.2611Z" fill="#FFDB2D"/>
</g>
<path d="M21.328 103.773L21.9281 95.4302C22.0282 94.0398 23.2522 93.0019 24.6403 93.1307L46.7805 95.2069C48.1237 95.3315 49.3835 95.9902 50.2561 97.0193L118.314 177.291" stroke="#CECECE" stroke-width="8"/>
<path fill-rule="evenodd" clip-rule="evenodd" d="M111.626 182.54L124.347 171.755C124.755 171.409 125.337 171.463 125.69 171.879L125.898 172.124C126.251 172.541 126.209 173.124 125.801 173.47L113.08 184.255C112.672 184.601 112.09 184.547 111.737 184.131L111.529 183.885C111.176 183.469 111.218 182.886 111.626 182.54Z" fill="#AFB9C5"/>
<path fill-rule="evenodd" clip-rule="evenodd" d="M21.7565 98.8275C27.5189 99.362 31.8672 104.491 31.4519 110.263L30.8131 119.143L9.91653 117.205L10.5554 108.324C10.9706 102.552 15.9942 98.293 21.7565 98.8275Z" fill="#CECECE"/>
<path d="M9.98169 116.933C9.89979 118.072 14.5113 119.428 20.2817 119.964C26.0521 120.499 30.7964 120.01 30.8783 118.871C30.9602 117.733 26.3487 116.376 20.5783 115.841C14.8078 115.305 10.0636 115.795 9.98169 116.933Z" fill="#FFDB2D"/>
<g opacity="0.7">
<path fill-rule="evenodd" clip-rule="evenodd" d="M194.388 116.936C197.77 119.32 200.278 124.334 197.897 128.104C196.161 130.856 194.087 133.306 192.493 136.17C191.211 138.44 190.341 140.919 189.8 143.466C189.268 145.906 189.87 148.853 188.841 151.094C188.183 152.52 186.685 154.088 185.338 154.975C183.712 156.023 184.065 156.11 184.119 158.095C184.216 161.979 184.044 165.768 183.059 169.566C181.64 175.043 179.086 180.696 174.926 184.633C174.387 185.125 172.701 187.079 171.807 186.606C170.799 186.083 172.128 185.22 172.453 184.903C174.629 182.763 176.536 180.868 178.085 178.159C184.069 167.691 182.125 156.189 183.943 144.778C184.02 144.191 184.274 142.791 184.418 141.874C184.643 140.413 185.614 138.051 185.446 136.701C185.131 134.169 184.199 138.047 184.059 138.813C183.878 139.776 183.685 140.805 183.56 141.697C183.021 145.807 182.444 150.307 181.897 154.524C173.202 150.411 174.896 137.495 177.476 130.147C179.634 124.07 186.454 111.363 194.388 116.936Z" fill="#90C99F"/>
<path fill-rule="evenodd" clip-rule="evenodd" d="M244.799 142.1C239.054 138.281 232.772 139.107 227.275 142.795C224.288 144.796 222.048 147.458 219.409 149.845C215.418 153.42 211.392 155.329 206.018 155.877C204.347 156.052 202.914 156.414 201.644 157.056C199.87 157.265 198.11 157.751 196.42 158.635C194.226 159.772 192.324 161.709 191.886 164.222C191.778 164.899 191.655 166.326 191.944 167.277C185.492 170.521 179.761 175.093 175.502 180.819C172.933 184.29 170.455 187.793 167.982 191.339C167.308 192.296 166.451 194.024 168.086 192.868C169.581 191.793 170.802 189.208 171.901 187.708C177.231 180.422 182.09 173.833 190.23 169.513C191.075 169.071 191.962 168.623 192.83 168.2C192.854 168.219 192.896 168.214 192.915 168.19C192.939 168.209 192.92 168.232 192.944 168.251C193.005 168.222 193.065 168.194 193.15 168.184C193.319 168.164 193.525 168.097 193.707 168.011C194.245 167.862 194.863 167.661 195.048 167.425C199.188 165.909 203.435 164.745 207.717 163.683C207.674 163.688 212.479 162.351 210.754 163.818C209.922 164.537 206.974 164.777 205.583 165.134C202.51 165.924 198.746 167.01 195.364 168.244C195.082 168.213 194.353 168.556 193.825 168.789C193.54 168.908 193.278 169.046 193.012 169.142C196.937 175.038 203.799 174.743 209.781 172.881C209.781 172.881 209.781 172.881 209.799 172.858C211.541 172.395 213.289 171.975 215.084 171.935C218.076 171.882 220.226 173.149 222.936 174.092C230.353 176.708 238.739 171.095 243.929 166.137C249.661 160.537 252.9 147.46 244.799 142.1Z" fill="#F6B49E"/>
<path fill-rule="evenodd" clip-rule="evenodd" d="M247.946 116.039C237.879 117.439 228.946 123.309 220.928 129.136C211.989 135.648 203.746 142.936 196.851 151.584C192.309 157.279 187.654 162.923 183.511 168.892C182.039 171.014 180.662 173.21 179.399 175.457C179.293 175.64 176.515 180.699 178.017 180.201C178.883 179.928 180.925 174.977 181.366 174.219C183.869 170.049 186.765 166.111 189.784 162.308C194.788 156.023 199.518 149.6 205.078 143.828C205.913 142.959 206.761 142.024 207.719 141.29C208.715 140.509 208.074 140.691 209.171 140.905C210.227 141.123 211.116 141.896 212.269 142.038C216.839 142.613 222.203 139.047 225.897 136.878C230.15 134.385 234.019 131.21 237.667 127.976C240.348 125.583 242.886 123.079 245.3 120.439C246.074 119.599 246.796 118.679 247.646 117.936C247.879 117.738 248.449 117.499 248.615 117.287C248.943 116.82 248.885 116.356 249.157 115.96C248.73 115.968 248.326 115.994 247.946 116.039Z" fill="#FAC389"/>
<path fill-rule="evenodd" clip-rule="evenodd" d="M157.565 168.889C150.112 178.395 151.827 192.194 161.393 199.694C170.959 207.194 184.768 205.566 192.221 196.06" fill="#D2E4A9"/>
<path fill-rule="evenodd" clip-rule="evenodd" d="M176.214 183.625L175.289 182.899C176.248 181.823 177.225 180.722 178.303 179.739C182.423 175.999 189.7 171.459 195.287 174.697C195.496 174.822 196.184 175.362 196.978 176.06C197.548 176.165 198.086 176.358 198.579 176.707C203.116 179.768 205.206 186.929 204.484 192.153C203.889 196.333 200.626 199.908 197.202 202.174C194.904 203.686 191.116 205.439 188.581 203.49C185.411 201.08 188.277 197.082 190.005 194.78C192.283 191.728 193.956 188.812 193.149 184.904C192.973 184.004 192.689 183.096 192.513 182.196C192.208 180.776 191.826 179.258 192.693 177.957C193.84 176.152 195.054 176.608 196.261 178.05C196.461 178.284 198.108 181.365 198.413 180.194C198.498 179.842 198.261 179.313 197.868 178.739C196.626 177.536 195.165 176.124 194.616 175.846C188.781 173.023 181.452 178.362 177.532 182.335C177.068 182.732 176.65 183.167 176.214 183.625Z" fill="#90C99F"/>
</g>
<path d="M45.5699 40.0694C45.5749 40.0579 45.5798 40.0466 45.5846 40.0355C45.7397 40.1177 45.9306 40.2218 46.149 40.3463C46.7656 40.6979 47.5969 41.2108 48.4579 41.8558C50.205 43.1648 51.9692 44.9411 52.4392 46.9442C52.9244 49.0122 52.5912 51.0315 52.123 52.5524C51.8898 53.31 51.6256 53.9355 51.4205 54.3703C51.3596 54.4994 51.304 54.6114 51.2561 54.7049C51.0684 54.6495 50.8166 54.5698 50.5202 54.4628C49.8471 54.22 48.9518 53.8393 48.0546 53.288C46.2503 52.1792 44.5243 50.4388 44.439 47.8042C44.3474 44.9763 44.6963 42.9105 45.0616 41.5623C45.2443 40.8879 45.4313 40.3921 45.5699 40.0694Z" stroke="#90C99F"/>
<path d="M40.2347 60.8055C40.2666 60.7477 40.3016 60.6852 40.3398 60.6186C40.56 60.2342 40.8807 59.7158 41.2829 59.1783C42.1055 58.0792 43.1938 57.0028 44.3875 56.703C45.6202 56.4052 46.8489 56.6083 47.7907 56.9017C48.2585 57.0475 48.6464 57.2127 48.916 57.3408C48.9408 57.3526 48.9647 57.364 48.9875 57.3752C48.9593 57.4634 48.9251 57.565 48.8846 57.6772C48.7348 58.0913 48.5002 58.6416 48.1611 59.1939C47.4769 60.308 46.4226 61.3484 44.8415 61.4304C43.0783 61.5218 41.8056 61.3017 40.9854 61.0671C40.6695 60.9767 40.42 60.884 40.2347 60.8055Z" stroke="#90C99F"/>
<path d="M58.2258 56.1115L87.6729 78.9348C89.1716 80.1204 87.6915 82.4576 85.9672 81.6003L52.7677 65.181C52.2035 64.9072 51.7118 64.5695 51.3286 64.1359C49.6959 62.3609 49.4217 59.6432 50.8528 57.5422C52.4414 55.109 55.799 54.459 58.2258 56.1115Z" fill="#F6B49E"/>
<path d="M230.433 94.6157L230.433 94.6157L230.424 94.6248C228.09 97.0837 226.7 100.221 226.578 103.572C226.408 105.957 225.565 108.276 224.001 110.268L224.001 110.268L223.997 110.272C219.633 115.9 211.403 116.733 205.965 111.977C201.216 107.787 200.368 100.485 204.082 95.3695L204.082 95.3696L204.089 95.3602C205.513 93.3502 207.346 91.9623 209.354 91.1428L209.354 91.1428L209.364 91.1388C212.753 89.7152 215.815 87.4836 218.012 84.496C218.09 84.4264 218.144 84.3622 218.174 84.3266C218.227 84.2622 218.288 84.1782 218.343 84.079C221.128 80.559 226.388 80.0319 229.867 83.0492C232.922 85.7185 233.481 90.4204 231.142 93.7529C230.931 94.0535 230.661 94.3815 230.433 94.6157Z" stroke="#D2E4A9" stroke-width="2"/>
<path d="M242.64 81.3732C242.904 81.5257 243.129 81.6691 243.317 81.7972C242.896 82.2328 242.31 82.8003 241.615 83.3645C240.137 84.5648 238.362 85.5902 236.736 85.5829C234.97 85.5407 233.395 84.8468 232.231 84.1269C231.716 83.8085 231.294 83.4922 230.985 83.2408C231.018 83.1899 231.053 83.1367 231.09 83.0816C231.429 82.5773 231.924 81.9223 232.555 81.3038C233.835 80.0509 235.522 79.0834 237.549 79.515C239.945 80.0251 241.6 80.7722 242.64 81.3732Z" stroke="#90C99F" stroke-width="2"/>
<path d="M227.472 79.3093C226.719 78.5375 226.191 77.582 226.408 76.4655C226.711 75.0228 227.161 74.0265 227.517 73.407C227.52 73.4017 227.523 73.3965 227.526 73.3912C227.723 73.5961 227.938 73.8354 228.153 74.1007C228.895 75.0144 229.485 76.0585 229.508 76.9827C229.484 77.9953 229.087 78.9089 228.661 79.5986C228.555 79.7709 228.448 79.9256 228.35 80.0603C228.081 79.8664 227.769 79.6136 227.472 79.3093ZM228.092 72.585L228.092 72.5853C228.093 72.584 228.093 72.5839 228.092 72.585ZM229.013 80.4839L229.012 80.4829L229.012 80.4832L229.013 80.4836L229.013 80.4839Z" stroke="#90C99F" stroke-width="2"/>
<path d="M167.16 59.3975H93.5779C91.3138 59.3975 89.4614 61.2386 89.4614 63.489V204.295C125.781 221.499 163.63 206.971 171.277 204.295V63.489C171.277 61.2386 169.424 59.3975 167.16 59.3975Z" fill="#EEEEEE"/>
<path d="M130.112 204.135C134.375 204.135 137.83 200.701 137.83 196.464C137.83 192.227 134.375 188.792 130.112 188.792C125.849 188.792 122.393 192.227 122.393 196.464C122.393 200.701 125.849 204.135 130.112 204.135Z" fill="white"/>
<path d="M123.422 69.6263C123.991 69.6263 124.452 69.1684 124.452 68.6034C124.452 68.0385 123.991 67.5806 123.422 67.5806C122.854 67.5806 122.393 68.0385 122.393 68.6034C122.393 69.1684 122.854 69.6263 123.422 69.6263Z" fill="white"/>
<path fill-rule="evenodd" clip-rule="evenodd" d="M128.054 67.5806H136.801C137.367 67.5806 137.83 68.0409 137.83 68.6034C137.83 69.166 137.367 69.6263 136.801 69.6263H128.054C127.487 69.6263 127.024 69.166 127.024 68.6034C127.024 68.0409 127.487 67.5806 128.054 67.5806Z" fill="white"/>
<path fill-rule="evenodd" clip-rule="evenodd" d="M98.7235 73.718H162.015C163.147 73.718 164.073 74.6386 164.073 75.7638V99.29C164.073 100.415 163.147 101.336 162.015 101.336H98.7235C97.5915 101.336 96.6653 100.415 96.6653 99.29V75.7638C96.6653 74.6386 97.5915 73.718 98.7235 73.718Z" fill="white"/>
<g opacity="0.3">
<path fill-rule="evenodd" clip-rule="evenodd" d="M118.277 82.0034H152.752C153.627 82.0034 154.296 82.6683 154.296 83.5377V84.6118C154.296 85.4812 153.627 86.1461 152.752 86.1461H118.277C117.402 86.1461 116.733 85.4812 116.733 84.6118V83.5377C116.733 82.6683 117.402 82.0034 118.277 82.0034Z" fill="#DDE3E9"/>
<path fill-rule="evenodd" clip-rule="evenodd" d="M118.277 88.9077H140.403C141.278 88.9077 141.947 89.5726 141.947 90.442V91.5161C141.947 92.3855 141.278 93.0504 140.403 93.0504H118.277C117.402 93.0504 116.733 92.3855 116.733 91.5161V90.442C116.733 89.5726 117.402 88.9077 118.277 88.9077Z" fill="#DDE3E9"/>
</g>
<path opacity="0.3" d="M107.471 93.6642C110.881 93.6642 113.646 90.9165 113.646 87.5269C113.646 84.1374 110.881 81.3896 107.471 81.3896C104.061 81.3896 101.296 84.1374 101.296 87.5269C101.296 90.9165 104.061 93.6642 107.471 93.6642Z" fill="#C5CFD6"/>
<path fill-rule="evenodd" clip-rule="evenodd" d="M162.317 105.325H98.4211C97.2782 105.325 96.3431 106.254 96.3431 107.39V124.945C96.3431 126.081 97.2782 127.01 98.4211 127.01H162.317C163.46 127.01 164.395 126.081 164.395 124.945V107.39C164.395 106.254 163.46 105.325 162.317 105.325Z" fill="white"/>
<path fill-rule="evenodd" clip-rule="evenodd" d="M142.577 111.831H107.772C106.889 111.831 106.213 112.502 106.213 113.38V113.534C106.213 114.412 106.889 115.083 107.772 115.083H142.577C143.46 115.083 144.135 114.412 144.135 113.534V113.38C144.135 112.502 143.46 111.831 142.577 111.831Z" fill="#DDE3E9"/>
<path fill-rule="evenodd" clip-rule="evenodd" d="M142.577 117.252H120.239C119.356 117.252 118.681 117.923 118.681 118.801V118.956C118.681 119.834 119.356 120.505 120.239 120.505H142.577C143.46 120.505 144.135 119.834 144.135 118.956V118.801C144.135 117.923 143.46 117.252 142.577 117.252Z" fill="#DDE3E9"/>
<path d="M153.486 122.364C150.043 122.364 147.252 119.59 147.252 116.168C147.252 112.746 150.043 109.972 153.486 109.972C156.929 109.972 159.72 112.746 159.72 116.168C159.72 119.59 156.929 122.364 153.486 122.364Z" fill="#C5CFD6"/>
<path fill-rule="evenodd" clip-rule="evenodd" d="M98.7235 130.999H162.015C163.147 130.999 164.073 131.92 164.073 133.045V150.434C164.073 151.559 163.147 152.48 162.015 152.48H98.7235C97.5915 152.48 96.6653 151.559 96.6653 150.434V133.045C96.6653 131.92 97.5915 130.999 98.7235 130.999Z" fill="white"/>
<path fill-rule="evenodd" clip-rule="evenodd" d="M118.277 137.443H152.752C153.627 137.443 154.296 138.108 154.296 138.978V139.131C154.296 140.001 153.627 140.665 152.752 140.665H118.277C117.402 140.665 116.733 140.001 116.733 139.131V138.978C116.733 138.108 117.402 137.443 118.277 137.443Z" fill="#DDE3E9"/>
<path fill-rule="evenodd" clip-rule="evenodd" d="M118.277 142.814H140.403C141.278 142.814 141.947 143.479 141.947 144.348V144.502C141.947 145.371 141.278 146.036 140.403 146.036H118.277C117.402 146.036 116.733 145.371 116.733 144.502V144.348C116.733 143.479 117.402 142.814 118.277 142.814Z" fill="#DDE3E9"/>
<path d="M107.471 147.877C110.881 147.877 113.646 145.129 113.646 141.74C113.646 138.35 110.881 135.602 107.471 135.602C104.061 135.602 101.296 138.35 101.296 141.74C101.296 145.129 104.061 147.877 107.471 147.877Z" fill="#AFB9C5"/>
<path fill-rule="evenodd" clip-rule="evenodd" d="M98.4211 104.511H162.317C163.46 104.511 164.395 105.431 164.395 106.557V130.083C164.395 131.208 163.46 132.129 162.317 132.129H98.4211C97.2782 132.129 96.3431 131.208 96.3431 130.083V106.557C96.3431 105.431 97.2782 104.511 98.4211 104.511Z" fill="white"/>
<path d="M111.253 129.744C113.998 129.744 116.223 127.005 116.223 123.627C116.223 120.248 113.998 117.51 111.253 117.51C108.508 117.51 106.283 120.248 106.283 123.627C106.283 127.005 108.508 129.744 111.253 129.744Z" fill="#C5CFD6"/>
<path fill-rule="evenodd" clip-rule="evenodd" d="M162.317 130.765H98.4211C97.2782 130.765 96.3431 131.694 96.3431 132.83V150.385C96.3431 151.521 97.2782 152.451 98.4211 152.451H162.317C163.46 152.451 164.395 151.521 164.395 150.385V132.83C164.395 131.694 163.46 130.765 162.317 130.765Z" fill="white"/>
<path fill-rule="evenodd" clip-rule="evenodd" d="M151.739 137.271C151.739 137.271 144.515 140.524 129.952 141.595C115.459 140.524 108.164 137.271 108.164 137.271C107.059 137.271 106.213 137.942 106.213 138.82V138.975C106.213 139.852 107.059 140.524 108.164 140.524C108.164 140.524 115.077 143.889 129.952 145.036C142.221 144.654 151.739 140.524 151.739 140.524C152.845 140.524 153.69 139.852 153.69 138.975V138.82C153.69 137.942 152.845 137.271 151.739 137.271Z" fill="#DDE3E9"/>
<path d="M149.485 129.744C146.74 129.744 144.515 127.005 144.515 123.627C144.515 120.248 146.74 117.51 149.485 117.51C152.23 117.51 154.455 120.248 154.455 123.627C154.455 127.005 152.23 129.744 149.485 129.744Z" fill="#C5CFD6"/>
<path fill-rule="evenodd" clip-rule="evenodd" d="M98.7235 156.571H162.015C163.147 156.571 164.073 157.492 164.073 158.617V176.006C164.073 177.131 163.147 178.052 162.015 178.052H98.7235C97.5915 178.052 96.6653 177.131 96.6653 176.006V158.617C96.6653 157.492 97.5915 156.571 98.7235 156.571Z" fill="white"/>
<g opacity="0.3">
<path fill-rule="evenodd" clip-rule="evenodd" d="M118.277 163.016H152.752C153.627 163.016 154.296 163.68 154.296 164.55V164.703C154.296 165.573 153.627 166.238 152.752 166.238H118.277C117.402 166.238 116.733 165.573 116.733 164.703V164.55C116.733 163.68 117.402 163.016 118.277 163.016Z" fill="#DDE3E9"/>
<path fill-rule="evenodd" clip-rule="evenodd" d="M118.277 168.385H140.403C141.278 168.385 141.947 169.05 141.947 169.92V170.073C141.947 170.943 141.278 171.608 140.403 171.608H118.277C117.402 171.608 116.733 170.943 116.733 170.073V169.92C116.733 169.05 117.402 168.385 118.277 168.385Z" fill="#DDE3E9"/>
</g>
<path opacity="0.3" d="M107.471 173.449C110.881 173.449 113.646 170.701 113.646 167.312C113.646 163.922 110.881 161.174 107.471 161.174C104.061 161.174 101.296 163.922 101.296 167.312C101.296 170.701 104.061 173.449 107.471 173.449Z" fill="#C5CFD6"/>
<path d="M26.1932 73.8924C22.9363 75.8216 19.083 76.5024 15.3911 75.801L12.1654 75.1579C11.7958 75.0913 11.4586 74.9138 11.2004 74.6498C10.9422 74.3858 10.7756 74.0483 10.7238 73.6839C10.6719 73.3195 10.7372 72.9461 10.9108 72.6153C11.0843 72.2844 11.3575 72.0124 11.6927 71.8368L12.6731 71.3084C14.6673 70.2399 16.8728 69.619 19.1267 69.4916C21.3805 69.3643 23.6249 69.7338 25.6939 70.5727L25.982 70.6912C26.3001 70.8109 26.5755 71.0167 26.7764 71.2849C26.9772 71.5532 27.0955 71.8729 27.1176 72.2073C27.1396 72.5418 27.0646 72.8774 26.9011 73.1755C26.7375 73.4736 26.4921 73.7221 26.1932 73.8924Z" fill="#FFDB2D"/>
<path d="M24.9562 72.3035C22.9678 69.3568 22.1175 65.7745 22.5747 62.271L22.9723 59.2157C23.0191 58.8726 23.1673 58.5549 23.3972 58.3051C23.627 58.0554 23.9274 57.8856 24.2581 57.8185C24.5888 57.7515 24.9338 57.7904 25.247 57.9301C25.5602 58.0697 25.8264 58.3035 26.0101 58.5998L26.595 59.4541C27.7007 61.2654 28.4018 63.2991 28.6468 65.4051C28.8917 67.5111 28.6741 69.6358 28.0101 71.6223L27.9169 71.8947C27.8255 72.1992 27.6519 72.4692 27.4159 72.6739C27.18 72.8786 26.8912 73.0098 26.5825 73.0524C26.2739 73.0951 25.9577 73.0475 25.6701 72.915C25.3826 72.7826 25.1352 72.5707 24.9562 72.3035Z" fill="#FFDB2D"/>
<path d="M240.31 59.8855L240.31 59.8855L240.304 59.8774C238.463 57.3557 237.808 54.3682 238.481 51.495L239.123 48.8802L239.123 48.8803L239.125 48.8712C239.17 48.6702 239.292 48.4757 239.486 48.3215C239.681 48.1672 239.932 48.066 240.204 48.0346C240.476 48.0032 240.746 48.044 240.976 48.1417C241.204 48.239 241.38 48.3866 241.49 48.557L241.49 48.557L241.494 48.5628L242.022 49.3569C242.022 49.3571 242.022 49.3573 242.022 49.3575C243.042 50.9024 243.635 52.6114 243.757 54.3601C243.879 56.109 243.526 57.8565 242.719 59.4726C242.718 59.4729 242.718 59.4733 242.718 59.4736L242.601 59.7053L242.597 59.7116L242.595 59.7179C242.512 59.8969 242.365 60.0591 242.166 60.1802C241.966 60.3014 241.728 60.373 241.479 60.3862C241.231 60.3995 240.99 60.3538 240.784 60.262C240.578 60.1706 240.417 60.0382 240.31 59.8855Z" stroke="#FFDB2D"/>
<path d="M241.767 59.5241L241.767 59.5241L241.769 59.5235C244.628 57.9582 248.103 57.2906 251.492 57.6495L251.493 57.6495L254.545 57.9717C254.546 57.9718 254.546 57.9718 254.546 57.9719C254.795 57.9996 255.007 58.0849 255.16 58.1994L255.465 57.8436L255.16 58.1994C255.311 58.3123 255.406 58.4521 255.443 58.6013C255.481 58.7522 255.463 58.9252 255.368 59.0971C255.273 59.2701 255.107 59.4282 254.883 59.5406L254.875 59.545L254.866 59.5497L254.022 60.0188C252.267 60.8861 250.297 61.4363 248.259 61.6286C246.217 61.8212 244.164 61.6495 242.25 61.1308L241.98 61.0557L241.97 61.0532L241.961 61.0509C241.746 60.9986 241.574 60.9038 241.452 60.79C241.332 60.6777 241.258 60.5448 241.234 60.4029C241.21 60.2593 241.235 60.0984 241.325 59.9396C241.416 59.7801 241.566 59.6335 241.767 59.5241Z" stroke="#FFDB2D"/>
<path d="M60.5723 26.8202C60.4459 26.9302 60.2887 27.0069 60.1167 27.0399C57.2682 27.5346 54.331 26.9876 51.8856 25.5096C51.8853 25.5095 51.8851 25.5093 51.8848 25.5092L49.6745 24.1623C49.5179 24.0594 49.3998 23.9165 49.332 23.754C49.2635 23.5901 49.2483 23.4115 49.2873 23.2403C49.3264 23.0688 49.4189 22.9094 49.5566 22.7841C49.693 22.6599 49.8671 22.5752 50.0579 22.5437L50.9372 22.4309C50.9372 22.4309 50.9372 22.4309 50.9372 22.4309C52.6511 22.2109 54.3945 22.3629 56.0383 22.875C57.682 23.3872 59.1832 24.2462 60.4314 25.3872L60.6025 25.5437C60.723 25.6583 60.8068 25.7998 60.8476 25.9523C60.8886 26.1056 60.8853 26.2664 60.8377 26.4183L61.3149 26.5676L60.8377 26.4183C60.7901 26.5703 60.6994 26.7097 60.5723 26.8202Z" stroke="#FFDB2D"/>
<path d="M61.6469 17.6977L61.6474 17.6967L62.9182 15.2861C63.017 15.1013 63.1652 14.9564 63.3397 14.8673C63.5141 14.7783 63.7085 14.748 63.8977 14.7788C64.087 14.8096 64.2661 14.9008 64.4096 15.0442C64.5528 15.1873 64.6536 15.3755 64.6948 15.585L64.8611 16.5046L64.8611 16.5046L64.8617 16.5081C65.197 18.2911 65.1443 20.1304 64.7076 21.8891C64.271 23.6477 63.462 25.2791 62.3421 26.6629L62.3421 26.6629L62.3397 26.666L62.1822 26.8637C62.0657 27.007 61.916 27.1112 61.7513 27.168C61.5862 27.225 61.4101 27.2329 61.2415 27.1915C61.0728 27.1499 60.9154 27.0598 60.788 26.9278C60.6605 26.7957 60.5681 26.627 60.5238 26.4393C59.8347 23.4801 60.2365 20.3584 61.6469 17.6977Z" stroke="#FFDB2D"/>
<g filter="url(#filter0_d)">
<path d="M123.361 57.1729C123.361 57.1409 123.334 57.1089 123.323 57.0769L111.545 21.6165L90.6552 26.151L90.4001 26.2064L81.1723 28.2097L84.823 52.0078L85.5756 57.0381L85.6285 57.3845L86.866 65.6433C86.9155 65.6989 86.956 65.7617 86.9863 65.8295C87.1714 66.5922 88.7199 66.9672 91.1744 66.9925C94.6934 67.0087 100.071 66.2819 105.983 64.8736C116.029 62.4711 123.807 59.0302 123.361 57.1729Z" fill="#F05A5C"/>
<path d="M111.605 21.5964C111.157 19.8571 104.058 19.9481 95.747 21.8017C87.4358 23.6554 81.0632 26.5691 81.512 28.3113C81.8705 29.6998 86.4602 29.9206 92.5192 29.0116C94.0587 28.7829 95.6883 28.4801 97.3704 28.1059C97.7312 28.0259 98.0892 27.9403 98.4442 27.8574C106.22 25.9983 112.034 23.2616 111.605 21.5964Z" fill="#F15B5D"/>
<path d="M113.939 29.9807C113.693 28.7217 113.967 27.4232 114.707 26.3408L115.364 25.3987C115.437 25.2899 115.545 25.2046 115.673 25.1545C115.8 25.1045 115.942 25.0921 116.077 25.1193C116.213 25.1464 116.336 25.2116 116.43 25.3059C116.523 25.4002 116.583 25.519 116.6 25.6458L116.656 26.0186C116.767 26.776 116.692 27.5468 116.436 28.274C116.18 29.0011 115.75 29.6659 115.178 30.2193L115.098 30.2962C115.013 30.3824 114.903 30.4448 114.782 30.4762C114.66 30.5076 114.532 30.5068 114.411 30.4739C114.29 30.4409 114.181 30.3772 114.098 30.2899C114.014 30.2027 113.96 30.0955 113.939 29.9807Z" fill="#F05A5C"/>
<path d="M114.665 30.012C115.971 29.7032 117.349 29.881 118.525 30.5099L119.55 31.0579C119.665 31.1202 119.758 31.215 119.815 31.3294C119.873 31.4439 119.893 31.5726 119.872 31.6983C119.852 31.824 119.792 31.9406 119.701 32.0325C119.61 32.1244 119.492 32.1872 119.363 32.2125L118.983 32.305C118.196 32.4537 117.384 32.4299 116.608 32.2353C115.832 32.0408 115.111 31.6805 114.498 31.181L114.415 31.1117C114.319 31.0388 114.247 30.9415 114.206 30.8309C114.166 30.7203 114.158 30.6009 114.184 30.4862C114.21 30.3715 114.269 30.2663 114.354 30.1824C114.439 30.0986 114.547 30.0395 114.665 30.012Z" fill="#F05A5C"/>
<path d="M85.1718 25.6807C84.0519 25.876 82.8964 25.6616 81.9334 25.08L81.096 24.5701C81.0048 24.5111 80.9341 24.4271 80.8932 24.3292C80.8522 24.2312 80.8429 24.1237 80.8663 24.0206C80.8898 23.9175 80.945 23.8235 81.0248 23.7508C81.1046 23.6781 81.2053 23.63 81.3139 23.6128L81.6488 23.5697C82.3224 23.483 83.0078 23.5424 83.6542 23.7436C84.3006 23.9448 84.8917 24.2825 85.3837 24.7319L85.4495 24.7921C85.5205 24.859 85.5711 24.9432 85.5959 25.0356C85.6206 25.1281 85.6186 25.2252 85.59 25.3166C85.5615 25.408 85.5074 25.4903 85.4337 25.5544C85.36 25.6186 85.2694 25.6622 85.1718 25.6807Z" fill="#F15B5D"/>
<path d="M85.0891 25.0213C84.8569 23.9331 84.9914 22.7848 85.4658 21.8051L85.8768 20.9516C85.9238 20.855 85.9955 20.7772 86.0823 20.7287C86.1692 20.6802 86.2669 20.6633 86.3623 20.6802C86.4578 20.6972 86.5465 20.7472 86.6164 20.8235C86.6863 20.8999 86.7341 20.9989 86.7534 21.1073L86.8075 21.4339C86.9204 22.0896 86.903 22.7661 86.7564 23.4131C86.6097 24.06 86.3377 24.6609 85.9605 25.1711L85.9091 25.2417C85.8528 25.3178 85.7792 25.3746 85.6965 25.4058C85.6137 25.4371 85.5251 25.4416 85.4402 25.4188C85.3554 25.396 85.2777 25.3468 85.2157 25.2767C85.1538 25.2065 85.1099 25.1182 85.0891 25.0213Z" fill="#F15B5D"/>
<path opacity="0.4" d="M100.747 20.9417L90.4291 23.8256L90.1702 23.8812L90.4692 27.6114L85.336 55.1414L86.592 63.4219C86.6422 63.4776 86.6834 63.5406 86.7141 63.6086C86.9019 64.3733 89.4827 65.1897 95.6108 64.4811L96.8896 25.6259L100.747 20.9417Z" fill="black"/>
<path d="M82.7265 60.2584C83.5701 60.3343 84.4124 60.0991 85.096 59.5966C85.7796 59.0941 86.2578 58.3587 86.4411 57.5278L91.5371 34.5828C92.0503 32.2729 93.0363 30.0956 94.4326 28.1895C95.8288 26.2833 98.7048 22.6718 100.747 21.4929L101.574 20.9418L91.2425 23.1493C87.5681 25.6491 85.0144 29.4956 84.1288 33.8645L79.6165 56.0504C79.5154 56.5352 79.5177 57.036 79.6234 57.5198C79.7291 58.0036 79.9358 58.4594 80.2297 58.8571C80.5236 59.2547 80.8981 59.5853 81.3285 59.8268C81.7589 60.0684 82.2353 60.2155 82.7265 60.2584Z" fill="#2B2D2B"/>
<path d="M81.0756 51.3428C80.4343 52.2507 79.4664 52.8888 78.3651 53.1299L77.4041 53.3419C77.2951 53.3664 77.181 53.3575 77.0774 53.3162C76.9738 53.275 76.8858 53.2035 76.8254 53.1115C76.765 53.0195 76.7351 52.9115 76.7399 52.8022C76.7447 52.693 76.7838 52.5879 76.852 52.5013L77.0536 52.2402C77.4614 51.7142 77.985 51.2846 78.5856 50.9832C79.1863 50.6818 79.8487 50.5165 80.5236 50.4993L80.6156 50.4993C80.7176 50.4952 80.8188 50.5194 80.9074 50.569C80.9961 50.6186 81.0686 50.6917 81.1167 50.7798C81.1647 50.8679 81.1864 50.9675 81.1791 51.0671C81.1718 51.1667 81.136 51.2623 81.0756 51.3428Z" fill="#2B2D2B"/>
<path d="M80.4302 51.0615C79.541 50.4558 78.8874 49.4985 78.5986 48.3791L78.3411 47.3991C78.3146 47.2891 78.3186 47.1727 78.3527 47.0654C78.3868 46.958 78.4493 46.8649 78.5319 46.7983C78.6145 46.7317 78.7133 46.6949 78.8151 46.6928C78.9168 46.6906 79.0168 46.7233 79.1016 46.7863L79.3588 46.9792C79.8749 47.3674 80.3065 47.8805 80.6217 48.4805C80.9368 49.0805 81.1276 49.752 81.1798 50.4456L81.1798 50.5436C81.1841 50.6441 81.1642 50.7441 81.1223 50.8331C81.0803 50.9221 81.0179 50.9969 80.9414 51.0497C80.8649 51.1026 80.7771 51.1316 80.6872 51.1336C80.5973 51.1357 80.5086 51.1108 80.4302 51.0615Z" fill="#2B2D2B"/>
</g>
<path d="M180.031 66.1819C186.556 73.5661 197.84 74.2544 205.237 67.7193C212.633 61.1842 213.341 49.9004 206.816 42.5162C200.292 35.1321 189.007 34.4437 181.611 40.9788C174.214 47.5139 173.507 58.7977 180.031 66.1819Z" fill="#FFDB2D"/>
<path d="M181.263 65.0935C187.187 71.7983 197.434 72.4233 204.15 66.4894C210.866 60.5555 211.508 50.3098 205.584 43.605C199.66 36.9002 189.414 36.2752 182.698 42.2091C175.981 48.1429 175.339 58.3886 181.263 65.0935Z" fill="white"/>
<path d="M203.559 59.7741C205.024 61.432 204.866 63.9523 203.205 65.4196C201.544 66.8869 199.024 66.7331 197.559 65.0752L194.18 55.2048L203.559 59.7741Z" fill="#FFDB2D"/>
<path d="M183.242 48.8705C181.777 47.2126 181.935 44.6923 183.595 43.225C185.256 41.7577 187.777 41.9115 189.241 43.5694L192.621 53.4399L183.242 48.8705Z" fill="#FFDB2D"/>
<path d="M187.981 64.4912C186.32 65.9585 183.8 65.8047 182.335 64.1468C180.87 62.4889 181.028 59.9686 182.689 58.5013L192.513 55.1539L187.981 64.4912Z" fill="#FFDB2D"/>
<path d="M198.92 44.1598C200.581 42.6926 203.102 42.8463 204.566 44.5042C206.031 46.1621 205.873 48.6824 204.213 50.1497L194.335 53.5445L198.92 44.1598Z" fill="#FFDB2D"/>
<path d="M204.465 50.9744C206.683 51.1097 208.337 52.9815 208.198 55.1994C208.059 57.4173 206.184 59.0738 203.966 58.9386L194.587 54.3692L204.465 50.9744Z" fill="#FFDB2D"/>
<path d="M182.336 57.67C180.118 57.5347 178.464 55.6629 178.603 53.445C178.742 51.2271 180.617 49.5706 182.835 49.7058L192.214 54.2752L182.336 57.67Z" fill="#FFDB2D"/>
<path d="M196.734 65.3288C196.595 67.5466 194.72 69.2032 192.502 69.0679C190.283 68.9326 188.63 67.0608 188.769 64.8429L193.348 55.5591L196.734 65.3288Z" fill="#FFDB2D"/>
<path d="M190.121 43.2688C190.26 41.0509 192.135 39.3943 194.353 39.5296C196.571 39.6649 198.225 41.5367 198.086 43.7546L193.5 53.1393L190.121 43.2688Z" fill="#FFDB2D"/>
<path d="M198.421 33.5542C195.655 30.8555 194.062 27.2164 193.845 23.4083L193.65 20.0569C193.556 18.3308 195.689 17.3983 196.823 18.6818L197.579 19.5375C200.758 22.9191 202.235 27.6137 201.541 32.2265L201.522 32.5289C201.38 33.9876 199.521 34.5826 198.421 33.5542Z" fill="#FFDB2D"/>
<path d="M203.138 33.3864C205.646 30.5035 209.207 28.5955 213.029 28.1708L216.34 27.8162C218.073 27.6183 219.056 29.7022 217.865 30.9451L217.055 31.7559C213.856 35.1533 209.247 36.8455 204.615 36.4618L204.313 36.4434C202.854 36.3038 202.155 34.5408 203.138 33.3864Z" fill="#FFDB2D"/>
<path d="M39.4293 133.532C45.0714 133.947 49.6867 137.399 51.8937 142.15C52.9046 144.353 50.8298 146.27 50.6286 148.862C50.3798 152.188 51.6077 155.782 49.5805 158.117C46.6059 161.495 42.1229 163.558 37.3224 163.221C31.9608 162.832 27.5308 159.723 25.2286 155.29C23.9689 152.954 26.7477 150.037 26.9065 147.202C27.0971 144.262 24.8159 141.679 26.462 139.461C29.3837 135.491 34.1736 133.174 39.4293 133.532Z" fill="#F05A5C"/>
<path d="M23.5297 146.541C23.5297 146.541 16.6597 148.295 14.0716 143.661C11.4465 138.959 11.637 136.018 11.637 136.018C11.637 136.018 18.343 135.771 21.0952 138.898C23.8473 142.024 23.5297 146.541 23.5297 146.541Z" fill="#90C99F"/>
<path d="M23.371 148.223C23.371 148.223 24.44 152.346 21.5872 153.973C18.7344 155.6 16.9454 155.412 16.9454 155.412C16.9454 155.412 16.7867 151.33 18.7292 149.662C20.7087 148.062 23.371 148.223 23.371 148.223Z" fill="#90C99F"/>
<path d="M86.3087 176.611C93.8943 186.163 92.3003 200.055 82.7483 207.641C73.1963 215.227 59.3035 213.633 51.7179 204.081C44.1322 194.529 45.7263 180.636 55.2783 173.05C64.8303 165.465 78.7231 167.059 86.3087 176.611Z" stroke="#FFDB2D" stroke-width="4"/>
<path d="M57.9911 176.467C58.5808 175.998 58.6792 175.141 58.2109 174.551C57.7427 173.961 56.8851 173.863 56.2954 174.331C55.7058 174.8 55.6074 175.657 56.0756 176.247C56.5439 176.836 57.4015 176.935 57.9911 176.467Z" fill="#90C99F"/>
<path d="M54.9142 203.283C55.5038 202.815 55.6022 201.957 55.134 201.368C54.6657 200.778 53.8081 200.68 53.2185 201.148C52.6288 201.616 52.5304 202.474 52.9987 203.063C53.4669 203.653 54.3245 203.752 54.9142 203.283Z" fill="#90C99F"/>
<path d="M84.8081 179.544C85.3977 179.075 85.4961 178.218 85.0278 177.628C84.5596 177.038 83.702 176.94 83.1123 177.408C82.5227 177.877 82.4243 178.734 82.8926 179.324C83.3608 179.913 84.2184 180.012 84.8081 179.544Z" fill="#90C99F"/>
<path d="M81.7311 206.36C82.3208 205.892 82.4192 205.034 81.9509 204.445C81.4826 203.855 80.6251 203.757 80.0354 204.225C79.4458 204.693 79.3474 205.551 79.8156 206.14C80.2839 206.73 81.1415 206.828 81.7311 206.36Z" fill="#90C99F"/>
<path fill-rule="evenodd" clip-rule="evenodd" d="M57.569 179.17L69.8119 189.364L68.5709 190.692L57.569 179.17Z" fill="#90C99F"/>
<path fill-rule="evenodd" clip-rule="evenodd" d="M80.8925 189.953L70.0037 191.223L69.9426 189.424L80.8925 189.953Z" fill="#90C99F"/>
<path d="M70.8518 191.58C71.5371 190.846 71.4981 189.696 70.7645 189.01C70.0309 188.325 68.8806 188.364 68.1952 189.098C67.5098 189.831 67.5489 190.982 68.2825 191.667C69.0161 192.352 70.1664 192.313 70.8518 191.58Z" fill="#90C99F"/>
<g clip-path="url(#clip0)">
<path d="M196.549 153.104C196.268 151.542 196.582 149.931 197.428 148.589L198.18 147.42C198.263 147.285 198.386 147.179 198.532 147.117C198.678 147.055 198.839 147.04 198.994 147.074C199.149 147.107 199.29 147.188 199.397 147.305C199.504 147.422 199.572 147.57 199.591 147.727L199.655 148.19C199.781 149.13 199.695 150.086 199.403 150.988C199.11 151.89 198.619 152.715 197.964 153.401L197.873 153.496C197.776 153.603 197.651 153.681 197.512 153.719C197.373 153.758 197.226 153.757 197.088 153.716C196.95 153.675 196.826 153.596 196.731 153.488C196.635 153.38 196.572 153.247 196.549 153.104Z" fill="#FFDB2D"/>
<path d="M197.319 152.875C198.86 152.498 200.487 152.716 201.875 153.485L203.085 154.156C203.221 154.233 203.33 154.348 203.397 154.489C203.465 154.629 203.489 154.786 203.464 154.94C203.44 155.093 203.37 155.236 203.262 155.349C203.154 155.461 203.015 155.538 202.863 155.569L202.414 155.682C201.485 155.863 200.527 155.834 199.611 155.595C198.695 155.357 197.844 154.916 197.121 154.305L197.022 154.22C196.91 154.131 196.825 154.012 196.777 153.876C196.728 153.741 196.719 153.595 196.75 153.455C196.781 153.314 196.851 153.186 196.951 153.083C197.052 152.981 197.179 152.908 197.319 152.875Z" fill="#FFDB2D"/>
<path d="M161.634 147.639C160.312 147.879 158.949 147.614 157.812 146.897L156.824 146.269C156.717 146.196 156.633 146.093 156.585 145.972C156.537 145.851 156.526 145.719 156.553 145.592C156.581 145.465 156.646 145.349 156.741 145.26C156.835 145.17 156.954 145.111 157.082 145.09L157.477 145.037C158.272 144.93 159.081 145.004 159.844 145.252C160.607 145.5 161.304 145.916 161.885 146.47L161.962 146.544C162.046 146.627 162.106 146.73 162.135 146.844C162.164 146.958 162.162 147.078 162.128 147.19C162.094 147.303 162.03 147.404 161.943 147.483C161.856 147.562 161.75 147.616 161.634 147.639Z" fill="#FFDB2D"/>
<path d="M161.437 146.989C161.118 145.683 161.304 144.306 161.955 143.13L162.52 142.106C162.585 141.99 162.683 141.897 162.802 141.839C162.922 141.781 163.056 141.761 163.187 141.781C163.318 141.801 163.439 141.861 163.535 141.953C163.631 142.045 163.697 142.163 163.723 142.293L163.797 142.685C163.952 143.472 163.928 144.284 163.726 145.06C163.525 145.836 163.151 146.557 162.633 147.169L162.562 147.254C162.485 147.345 162.384 147.413 162.27 147.451C162.157 147.488 162.035 147.494 161.918 147.466C161.802 147.439 161.695 147.38 161.61 147.296C161.525 147.211 161.465 147.105 161.437 146.989Z" fill="#FFDB2D"/>
<path d="M137.443 160.541H130.743C130.039 160.541 129.469 161.511 129.469 162.708V163.419C129.469 164.615 130.039 165.585 130.743 165.585H137.443C138.146 165.585 138.716 164.615 138.716 163.419V162.708C138.716 161.511 138.146 160.541 137.443 160.541Z" fill="#FFDB2D"/>
<path d="M135.143 170.629H129.68C129.099 170.629 128.629 171.276 128.629 172.074V172.547C128.629 173.345 129.099 173.992 129.68 173.992H135.143C135.724 173.992 136.194 173.345 136.194 172.547V172.074C136.194 171.276 135.724 170.629 135.143 170.629Z" fill="#FAC389"/>
<path d="M140.345 177.354H133.725C133.232 177.354 132.832 178.002 132.832 178.8V179.271C132.832 180.07 133.232 180.717 133.725 180.717H140.345C140.839 180.717 141.238 180.07 141.238 179.271V178.8C141.238 178.002 140.839 177.354 140.345 177.354Z" fill="#F15B5D"/>
<path d="M133.886 153.892H146.382L160.374 199.144H205.855L215.853 169.642L151.116 169.2" stroke="#F15B5D" stroke-width="3" stroke-linecap="round" stroke-linejoin="round"/>
<path d="M215.051 209.499C215.051 209.499 215.051 205.262 209.853 205.096C204.655 204.93 157.883 205.262 157.883 205.262C156.816 204.665 155.926 203.794 155.306 202.739C154.686 201.685 154.357 200.484 154.354 199.26H163.529" stroke="#F15B5D" stroke-width="3" stroke-linecap="round" stroke-linejoin="round"/>
<path d="M201.359 224.255C204.922 224.255 207.81 221.365 207.81 217.801C207.81 214.236 204.922 211.347 201.359 211.347C197.797 211.347 194.908 214.236 194.908 217.801C194.908 221.365 197.797 224.255 201.359 224.255Z" stroke="#FFDB2D" stroke-width="2" stroke-linecap="round" stroke-linejoin="round"/>
<path d="M168.54 224.255C172.103 224.255 174.991 221.365 174.991 217.801C174.991 214.236 172.103 211.347 168.54 211.347C164.978 211.347 162.089 214.236 162.089 217.801C162.089 221.365 164.978 224.255 168.54 224.255Z" stroke="#FFDB2D" stroke-width="2" stroke-linecap="round" stroke-linejoin="round"/>
</g>
<defs>
<filter id="filter0_d" x="64.7386" y="14.3477" width="70.6441" height="70.6489" filterUnits="userSpaceOnUse" color-interpolation-filters="sRGB">
<feFlood flood-opacity="0" result="BackgroundImageFix"/>
<feColorMatrix in="SourceAlpha" type="matrix" values="0 0 0 0 0 0 0 0 0 0 0 0 0 0 0 0 0 0 127 0"/>
<feOffset dy="6"/>
<feGaussianBlur stdDeviation="6"/>
<feColorMatrix type="matrix" values="0 0 0 0 0.270833 0 0 0 0 0.0643229 0 0 0 0 0.0670764 0 0 0 0.15 0"/>
<feBlend mode="normal" in2="BackgroundImageFix" result="effect1_dropShadow"/>
<feBlend mode="normal" in="SourceGraphic" in2="effect1_dropShadow" result="shape"/>
</filter>
<clipPath id="clip0">
<rect x="124.425" y="141.206" width="93.3128" height="84.9063" fill="white"/>
</clipPath>
</defs>
</svg>
